  0
SECTION
  2
HEADER
  9
$EXTMIN
 10
450001
 20
6465001
  9
$EXTMAX
 10
452627
 20
6467627
  0
ENDSEC
  0
SECTION
  2
ENTITIES
  0
POINT
  8
dotknoll
 10
450003.814285714
 20
6466136.18571428
 50
0
  0
POINT
  8
dotknoll
 10
450003.753333333
 20
6466073.16666667
 50
0
  0
POINT
  8
dotknoll
 10
450004.766153846
 20
6466707.15538462
 50
0
  0
POINT
  8
dotknoll
 10
450003.752
 20
6466865.28
 50
0
  0
POINT
  8
udepression
 10
450179.872
 20
6466859.15
 50
0
  0
POINT
  8
udepression
 10
450210.913333333
 20
6466720.99333333
 50
0
  0
POINT
  8
udepression
 10
450218.996666667
 20
6466726.99
 50
0
  0
POINT
  8
udepression
 10
450222.993333333
 20
6466728.98
 50
0
  0
POINT
  8
uglyudepression
 10
450238.878
 20
6466702.07
 50
0
  0
POINT
  8
udepression
 10
450239.113333333
 20
6466706.77666667
 50
0
  0
POINT
  8
udepression
 10
450244.85
 20
6466704.97333333
 50
0
  0
POINT
  8
udepression
 10
450249.096666667
 20
6466706.87333333
 50
0
  0
POINT
  8
uglyudepression
 10
450265.27
 20
6466706.75333333
 50
0
  0
POINT
  8
udepression
 10
450289.216666667
 20
6466816.82333333
 50
0
  0
POINT
  8
udepression
 10
450293.046666667
 20
6466817.00666667
 50
0
  0
POINT
  8
udepression
 10
450302.14
 20
6466696.788
 50
0
  0
POINT
  8
udepression
 10
450338.826666667
 20
6466696.96666667
 50
0
  0
POINT
  8
udepression
 10
450405.073333333
 20
6466701.04666667
 50
0
  0
POINT
  8
udepression
 10
450405.06
 20
6466704.95666667
 50
0
  0
POINT
  8
udepression
 10
450410.741666667
 20
6466701.01666667
 50
0
  0
POINT
  8
udepression
 10
450418.88
 20
6466708.98666667
 50
0
  0
POINT
  8
udepression
 10
450423.056666667
 20
6466697.01
 50
0
  0
POINT
  8
udepression
 10
450426.028
 20
6466700.894
 50
0
  0
POINT
  8
udepression
 10
450430.986666667
 20
6466697.04
 50
0
  0
POINT
  8
udepression
 10
450467.15
 20
6466834.98666667
 50
0
  0
POINT
  8
udepression
 10
450471.853333333
 20
6466833.86833333
 50
0
  0
POINT
  8
udepression
 10
450474.986666667
 20
6466836.85666667
 50
0
  0
POINT
  8
udepression
 10
450480.816666667
 20
6466868.925
 50
0
  0
POINT
  8
udepression
 10
450546.03
 20
6466865.986
 50
0
  0
POINT
  8
uglyudepression
 10
450558.903333333
 20
6466865.02666667
 50
0
  0
POINT
  8
udepression
 10
450563.013333333
 20
6466861
 50
0
  0
POINT
  8
udepression
 10
450566.084
 20
6466863.978
 50
0
  0
POINT
  8
udepression
 10
450630.04
 20
6466344.828
 50
0
  0
POINT
  8
dotknoll
 10
450080.829230769
 20
6467174.32153846
 50
0
  0
POINT
  8
uglyudepression
 10
450102.963333333
 20
6467165.00666667
 50
0
  0
POINT
  8
udepression
 10
450456.893333333
 20
6466901.18
 50
0
  0
POINT
  8
udepression
 10
450486.863333333
 20
6466918.875
 50
0
  0
POINT
  8
udepression
 10
450486.973333333
 20
6466911.25
 50
0
  0
POINT
  8
udepression
 10
450488.723333333
 20
6466913.08333333
 50
0
  0
POINT
  8
udepression
 10
450492.012
 20
6466928.152
 50
0
  0
POINT
  8
uglyudepression
 10
450495.013333333
 20
6466923.01
 50
0
  0
POINT
  8
uglyudepression
 10
450506.776666667
 20
6466743.08333333
 50
0
  0
POINT
  8
udepression
 10
450510.833333333
 20
6466911.00333333
 50
0
  0
POINT
  8
dotknoll
 10
450611.01
 20
6466668.75
 50
0
  0
POINT
  8
uglydotknoll
 10
450615.27
 20
6466600.84
 50
0
  0
POINT
  8
uglyudepression
 10
450614.956666667
 20
6466708.83666667
 50
0
  0
POINT
  8
uglydotknoll
 10
450616.823333333
 20
6466667.04
 50
0
  0
POINT
  8
uglyudepression
 10
450621.076666667
 20
6466637.05
 50
0
  0
POINT
  8
udepression
 10
450626.956666667
 20
6466629.06666667
 50
0
  0
POINT
  8
udepression
 10
450627.096666667
 20
6466632.96666667
 50
0
  0
POINT
  8
udepression
 10
450632.11
 20
6466613.894
 50
0
  0
POINT
  8
udepression
 10
450633.016666667
 20
6466620.95
 50
0
  0
POINT
  8
uglyudepression
 10
450632.753333333
 20
6466693.16666667
 50
0
  0
POINT
  8
udepression
 10
450636.853333333
 20
6466611.26
 50
0
  0
POINT
  8
udepression
 10
450636.99
 20
6466617.04666667
 50
0
  0
POINT
  8
udepression
 10
450637.126666667
 20
6466653.16
 50
0
  0
POINT
  8
udepression
 10
450638.87
 20
6466654.86
 50
0
  0
POINT
  8
udepression
 10
450646.173333333
 20
6466468.36166667
 50
0
  0
POINT
  8
udepression
 10
450646.966666667
 20
6466656.98
 50
0
  0
POINT
  8
udepression
 10
450651.233333333
 20
6466464.52333333
 50
0
  0
POINT
  8
udepression
 10
451944.773333333
 20
6465017.11666667
 50
0
  0
POINT
  8
udepression
 10
451960.923333333
 20
6465406.98333333
 50
0
  0
POINT
  8
udepression
 10
451965.663333333
 20
6465383.77
 50
0
  0
POINT
  8
udepression
 10
451972.006
 20
6465380.97
 50
0
  0
POINT
  8
udepression
 10
451989.203333333
 20
6465371.00666667
 50
0
  0
POINT
  8
udepression
 10
451994.032
 20
6465364.014
 50
0
  0
POINT
  8
udepression
 10
451995.043333333
 20
6465186.99333333
 50
0
  0
POINT
  8
udepression
 10
451994.93
 20
6465190.97
 50
0
  0
POINT
  8
udepression
 10
451998.726666667
 20
6465359.08666667
 50
0
  0
POINT
  8
udepression
 10
452012.966666667
 20
6465275.02
 50
0
  0
POINT
  8
udepression
 10
452015.05
 20
6465295.08666667
 50
0
  0
POINT
  8
uglyudepression
 10
452017
 20
6465330.85
 50
0
  0
POINT
  8
uglydotknoll
 10
452261.06
 20
6465035.07
 50
0
  0
POINT
  8
dotknoll
 10
452455.184444444
 20
6465005.71333333
 50
0
  0
POINT
  8
dotknoll
 10
452470.288571429
 20
6465005.53142857
 50
0
  0
POINT
  8
uglydotknoll
 10
450444.996666667
 20
6465156.97
 50
0
  0
POINT
  8
udepression
 10
450508.86
 20
6467431.08333333
 50
0
  0
POINT
  8
dotknoll
 10
450565.056666667
 20
6466892.9
 50
0
  0
POINT
  8
uglyudepression
 10
450579.018
 20
6465526.04
 50
0
  0
POINT
  8
udepression
 10
450624.77
 20
6466790.94666667
 50
0
  0
POINT
  8
udepression
 10
450623.02
 20
6466794.86333333
 50
0
  0
POINT
  8
udepression
 10
450628.023333333
 20
6466771.73666667
 50
0
  0
POINT
  8
udepression
 10
450634.896666667
 20
6466770.98666667
 50
0
  0
POINT
  8
udepression
 10
450663.073333333
 20
6466739.02
 50
0
  0
POINT
  8
udepression
 10
450697.22
 20
6466513.29538462
 50
0
  0
POINT
  8
dotknoll
 10
450769.11
 20
6465524.85
 50
0
  0
POINT
  8
udepression
 10
450912.963333333
 20
6465041.04
 50
0
  0
POINT
  8
dotknoll
 10
450978.002
 20
6465485.006
 50
0
  0
POINT
  8
uglydotknoll
 10
451003.966
 20
6465505.006
 50
0
  0
POINT
  8
dotknoll
 10
451067.848
 20
6465006.856
 50
0
  0
POINT
  8
dotknoll
 10
451423.096923077
 20
6465449.98923077
 50
0
  0
POINT
  8
dotknoll
 10
451430.923333333
 20
6465559.14
 50
0
  0
POINT
  8
dotknoll
 10
451434.015
 20
6465420.65666667
 50
0
  0
POINT
  8
uglydotknoll
 10
451432.99
 20
6465441.99
 50
0
  0
POINT
  8
dotknoll
 10
451446.056666667
 20
6465531.69
 50
0
  0
POINT
  8
dotknoll
 10
451577.870769231
 20
6465522.13230769
 50
0
  0
POINT
  8
dotknoll
 10
451586.873333333
 20
6465533.18
 50
0
  0
POINT
  8
udepression
 10
451604.876
 20
6465982.008
 50
0
  0
POINT
  8
dotknoll
 10
451616.255
 20
6465504.56166667
 50
0
  0
POINT
  8
dotknoll
 10
451633.047692308
 20
6465496.08923077
 50
0
  0
POINT
  8
dotknoll
 10
451645.083076923
 20
6465651.98461538
 50
0
  0
POINT
  8
dotknoll
 10
451679.127692308
 20
6465618.11230769
 50
0
  0
POINT
  8
dotknoll
 10
451699.132307692
 20
6465570.03076923
 50
0
  0
POINT
  8
uglyudepression
 10
451717.978
 20
6465545.018
 50
0
  0
POINT
  8
uglydotknoll
 10
451723.013333333
 20
6465533.01
 50
0
  0
POINT
  8
dotknoll
 10
451839.104615385
 20
6465462.06923077
 50
0
  0
POINT
  8
dotknoll
 10
451905
 20
6465022.97666667
 50
0
  0
POINT
  8
dotknoll
 10
451938.976666667
 20
6465395.05333333
 50
0
  0
POINT
  8
dotknoll
 10
452002.875
 20
6465247.86
 50
0
  0
POINT
  8
dotknoll
 10
452004.996
 20
6465128.002
 50
0
  0
POINT
  8
dotknoll
 10
452008.345
 20
6465284.36333333
 50
0
  0
POINT
  8
dotknoll
 10
452011.001538462
 20
6465329.24769231
 50
0
  0
POINT
  8
udepression
 10
452013.056666667
 20
6466035.11
 50
0
  0
POINT
  8
udepression
 10
452017.912
 20
6466037.018
 50
0
  0
POINT
  8
udepression
 10
452042.983333333
 20
6466046.99333333
 50
0
  0
POINT
  8
udepression
 10
452049.03
 20
6466049
 50
0
  0
POINT
  8
udepression
 10
452063.016666667
 20
6466054.99333333
 50
0
  0
POINT
  8
dotknoll
 10
452132.795384615
 20
6465028.23692308
 50
0
  0
POINT
  8
dotknoll
 10
452137.65
 20
6465465.92333333
 50
0
  0
POINT
  8
uglydotknoll
 10
450570.501538461
 20
6465574.46307692
 50
0
  0
POINT
  8
uglydotknoll
 10
450574.04
 20
6465567.936
 50
0
  0
POINT
  8
uglydotknoll
 10
450575.06
 20
6465550.96333333
 50
0
  0
POINT
  8
uglydotknoll
 10
450576.994
 20
6465553.986
 50
0
  0
POINT
  8
dotknoll
 10
450583.032
 20
6465529.966
 50
0
  0
POINT
  8
uglyudepression
 10
450593.056666667
 20
6467290.94
 50
0
  0
POINT
  8
uglyudepression
 10
450678.926666667
 20
6466764.8
 50
0
  0
POINT
  8
udepression
 10
450684.108
 20
6466819.044
 50
0
  0
POINT
  8
udepression
 10
450687.176666667
 20
6466760.63333333
 50
0
  0
POINT
  8
udepression
 10
450704.91
 20
6466393.02333333
 50
0
  0
POINT
  8
uglyudepression
 10
450747.063333333
 20
6467204.94
 50
0
  0
POINT
  8
dotknoll
 10
451303.084615385
 20
6466114.10923077
 50
0
  0
POINT
  8
dotknoll
 10
451370.161538462
 20
6466128.97846154
 50
0
  0
POINT
  8
dotknoll
 10
451399.104615385
 20
6466235.98461538
 50
0
  0
POINT
  8
uglydotknoll
 10
451406.963333333
 20
6466149.02333333
 50
0
  0
POINT
  8
dotknoll
 10
451487.111666667
 20
6466058.58333333
 50
0
  0
POINT
  8
dotknoll
 10
451561.12
 20
6466082.06615385
 50
0
  0
POINT
  8
dotknoll
 10
451618.372307692
 20
6465991.11692308
 50
0
  0
POINT
  8
dotknoll
 10
451714.807692308
 20
6466050.36307692
 50
0
  0
POINT
  8
dotknoll
 10
451816.823333333
 20
6466077.99333333
 50
0
  0
POINT
  8
dotknoll
 10
451847.711666667
 20
6466173.99166667
 50
0
  0
POINT
  8
dotknoll
 10
452153.926
 20
6465006.894
 50
0
  0
POINT
  8
dotknoll
 10
452193.951666667
 20
6465409.82
 50
0
  0
POINT
  8
uglyudepression
 10
450666.833333333
 20
6467387.08333333
 50
0
  0
POINT
  8
dotknoll
 10
450698.564615385
 20
6466129.40307692
 50
0
  0
POINT
  8
dotknoll
 10
450721.868
 20
6467223.132
 50
0
  0
POINT
  8
dotknoll
 10
450732.205
 20
6465103.49166667
 50
0
  0
POINT
  8
uglydotknoll
 10
450743.16
 20
6467213.01
 50
0
  0
POINT
  8
udepression
 10
450756.92
 20
6466619.06333333
 50
0
  0
POINT
  8
uglyudepression
 10
450765.186666667
 20
6466566.97333333
 50
0
  0
POINT
  8
uglyudepression
 10
450774.826666667
 20
6466506.90666667
 50
0
  0
POINT
  8
udepression
 10
450777.258333333
 20
6466602.51333333
 50
0
  0
POINT
  8
uglyudepression
 10
450777.08
 20
6466609.04
 50
0
  0
POINT
  8
udepression
 10
450931.988
 20
6467157.844
 50
0
  0
POINT
  8
udepression
 10
450942.052
 20
6467154.736
 50
0
  0
POINT
  8
dotknoll
 10
452292.170769231
 20
6466476.96769231
 50
0
  0
POINT
  8
dotknoll
 10
452298.05
 20
6466470.675
 50
0
  0
POINT
  8
dotknoll
 10
452304.86
 20
6466396.31230769
 50
0
  0
POINT
  8
dotknoll
 10
452352.753846154
 20
6466512.31538462
 50
0
  0
POINT
  8
uglydotknoll
 10
452404.983333333
 20
6466495.01
 50
0
  0
POINT
  8
udepression
 10
450842.693333333
 20
6466533.19
 50
0
  0
POINT
  8
udepression
 10
450849.176666667
 20
6466526.79
 50
0
  0
POINT
  8
uglyudepression
 10
450873.033333333
 20
6466617.13
 50
0
  0
POINT
  8
dotknoll
 10
451762.963333333
 20
6466393.01333333
 50
0
  0
POINT
  8
dotknoll
 10
451824.15
 20
6466379.62166667
 50
0
  0
POINT
  8
dotknoll
 10
452003.053333333
 20
6466274.98333333
 50
0
  0
POINT
  8
dotknoll
 10
452284.736666667
 20
6466787.21333333
 50
0
  0
POINT
  8
dotknoll
 10
450731.06
 20
6467110.60333333
 50
0
  0
POINT
  8
dotknoll
 10
450896.966666667
 20
6466573.02333333
 50
0
  0
POINT
  8
dotknoll
 10
450903.383333333
 20
6466402.265
 50
0
  0
POINT
  8
uglydotknoll
 10
450937
 20
6466473.01666667
 50
0
  0
POINT
  8
uglyudepression
 10
451275.026666667
 20
6466386.97
 50
0
  0
POINT
  8
dotknoll
 10
452236.975384615
 20
6466618.13538462
 50
0
  0
POINT
  8
uglyudepression
 10
451204.044
 20
6466989
 50
0
  0
POINT
  8
udepression
 10
451207.944
 20
6466990.884
 50
0
  0
POINT
  8
udepression
 10
451217.016666667
 20
6466996.98
 50
0
  0
POINT
  8
dotknoll
 10
451908.756666667
 20
6466567.20333333
 50
0
  0
POINT
  8
uglydotknoll
 10
451218.974
 20
6466895.966
 50
0
  0
POINT
  8
uglyudepression
 10
451248.996
 20
6467017.86
 50
0
  0
POINT
  8
dotknoll
 10
451256.03
 20
6466921.715
 50
0
  0
POINT
  8
dotknoll
 10
451597.075384615
 20
6466780.25846154
 50
0
  0
POINT
  8
dotknoll
 10
451834.721538462
 20
6466686.25076923
 50
0
  0
POINT
  8
uglydotknoll
 10
451206.94
 20
6467161.24333333
 50
0
  0
POINT
  8
uglydotknoll
 10
451380.986666667
 20
6466986.99666667
 50
0
  0
POINT
  8
udepression
 10
451833.19
 20
6466862.90666667
 50
0
  0
POINT
  8
udepression
 10
451837.006666667
 20
6466872.92333333
 50
0
  0
POINT
  8
udepression
 10
451839.113333333
 20
6466874.97
 50
0
  0
POINT
  8
udepression
 10
452227.11
 20
6467230.92666667
 50
0
  0
POINT
  8
dotknoll
 10
452170.941538462
 20
6467210.15076923
 50
0
  0
POINT
  8
uglydotknoll
 10
451011.036666667
 20
6467410.92333333
 50
0
  0
POINT
  8
dotknoll
 10
451219.036666667
 20
6467191.1
 50
0
  0
POINT
  8
uglydotknoll
 10
450924.041666667
 20
6467484.695
 50
0
  0
POINT
  8
uglydotknoll
 10
451030.853333333
 20
6467412.95666667
 50
0
  0
POINT
  8
uglydotknoll
 10
451195.996666667
 20
6467497.65666667
 50
0
  0
POINT
  8
uglydotknoll
 10
451337.05
 20
6467354.69666667
 50
0
  0
POINT
  8
uglyudepression
 10
451182.826666667
 20
6467416.99
 50
0
  0
POINT
  8
dotknoll
 10
451893.85
 20
6467109.134
 50
0
  0
POINT
  8
dotknoll
 10
451900.118461538
 20
6467125.02615385
 50
0
  0
POINT
  8
uglydotknoll
 10
451270.753333333
 20
6467363.15
 50
0
  0
POINT
  8
uglydotknoll
 10
451463.06
 20
6467369.18
 50
0
  0
POINT
  8
uglydotknoll
 10
451118.311666667
 20
6467322.44666667
 50
0
  0
POINT
  8
dotknoll
 10
451134.846666667
 20
6467317.26666667
 50
0
  0
POINT
  8
dotknoll
 10
452769.12
 20
6465310.95
 50
0
  0
POINT
  8
dotknoll
 10
452779.146666667
 20
6465332.88666667
 50
0
  0
POINT
  8
dotknoll
 10
453400.123076923
 20
6465387.05692308
 50
0
  0
POINT
  8
dotknoll
 10
453437.049230769
 20
6465536.13384615
 50
0
  0
POINT
  8
uglydotknoll
 10
453519.646666667
 20
6465382.07333333
 50
0
  0
POINT
  8
dotknoll
 10
453642.401666667
 20
6465432.34
 50
0
  0
POINT
  8
udepression
 10
453640.983333333
 20
6466218.85
 50
0
  0
POINT
  8
udepression
 10
453641.053333333
 20
6466222.93333333
 50
0
  0
POINT
  8
udepression
 10
453646.933333333
 20
6466249.11666667
 50
0
  0
POINT
  8
dotknoll
 10
453658.194
 20
6465428.872
 50
0
  0
POINT
  8
dotknoll
 10
453662.165
 20
6465418.50666666
 50
0
  0
POINT
  8
dotknoll
 10
453662.148333333
 20
6465423.55666667
 50
0
  0
POINT
  8
dotknoll
 10
453662.883333333
 20
6465430.04166667
 50
0
  0
POINT
  8
dotknoll
 10
453747.014
 20
6465469.972
 50
0
  0
POINT
  8
uglyudepression
 10
453983.203333333
 20
6465344.93
 50
0
  0
POINT
  8
udepression
 10
454020.99
 20
6465354.86666667
 50
0
  0
POINT
  8
udepression
 10
454023.153333333
 20
6465329.06666667
 50
0
  0
POINT
  8
uglydotknoll
 10
454214.966666667
 20
6465391.01666667
 50
0
  0
POINT
  8
uglydotknoll
 10
454461.986
 20
6465066.98
 50
0
  0
POINT
  8
udepression
 10
454531.01
 20
6465910.97333333
 50
0
  0
POINT
  8
uglyudepression
 10
454539.226666667
 20
6465006.79666667
 50
0
  0
POINT
  8
dotknoll
 10
454562.323333333
 20
6465176.31166667
 50
0
  0
POINT
  8
dotknoll
 10
454563.972
 20
6465166.998
 50
0
  0
POINT
  8
uglydotknoll
 10
454635
 20
6465110.98333333
 50
0
  0
POINT
  8
udepression
 10
454777.028
 20
6465405.958
 50
0
  0
POINT
  8
dotknoll
 10
453370.216923077
 20
6465744.98
 50
0
  0
POINT
  8
dotknoll
 10
453649.076923077
 20
6465975.94461538
 50
0
  0
POINT
  8
uglydotknoll
 10
453862.98
 20
6466227.01
 50
0
  0
POINT
  8
dotknoll
 10
453863.964
 20
6466233.014
 50
0
  0
POINT
  8
uglyudepression
 10
454042.92
 20
6466195.07
 50
0
  0
POINT
  8
uglydotknoll
 10
454101.715
 20
6465952.04166667
 50
0
  0
POINT
  8
uglyudepression
 10
454251.02
 20
6465822.94666667
 50
0
  0
POINT
  8
uglydotknoll
 10
454382.996666667
 20
6466004.98333333
 50
0
  0
POINT
  8
dotknoll
 10
454632.403333333
 20
6465868.38166667
 50
0
  0
POINT
  8
dotknoll
 10
454650.776923077
 20
6466210.35538461
 50
0
  0
POINT
  8
udepression
 10
454930.962
 20
6466654.002
 50
0
  0
POINT
  8
udepression
 10
454941.014
 20
6466662.148
 50
0
  0
POINT
  8
udepression
 10
454943.964
 20
6466664.768
 50
0
  0
POINT
  8
udepression
 10
454954.96
 20
6466675.00666667
 50
0
  0
POINT
  8
udepression
 10
454958.042
 20
6466678.856
 50
0
  0
POINT
  8
udepression
 10
454965.113333333
 20
6466683.00333333
 50
0
  0
POINT
  8
udepression
 10
454966.953333333
 20
6466684.85
 50
0
  0
POINT
  8
udepression
 10
454971.994
 20
6466692.976
 50
0
  0
POINT
  8
udepression
 10
454980.886666667
 20
6466692.93666667
 50
0
  0
POINT
  8
dotknoll
 10
454998.79
 20
6466316.69166667
 50
0
  0
POINT
  8
dotknoll
 10
452535.864615385
 20
6466190.08615385
 50
0
  0
POINT
  8
udepression
 10
452611.096666667
 20
6466107.03333333
 50
0
  0
POINT
  8
udepression
 10
452628.976
 20
6466425.954
 50
0
  0
POINT
  8
udepression
 10
452631.033333333
 20
6466416.57166667
 50
0
  0
POINT
  8
uglyudepression
 10
452953.006666667
 20
6466898.98333333
 50
0
  0
POINT
  8
udepression
 10
453009.101538462
 20
6466239.37538462
 50
0
  0
POINT
  8
dotknoll
 10
453056.993333333
 20
6467035.1
 50
0
  0
POINT
  8
dotknoll
 10
453058.91
 20
6467037.00333333
 50
0
  0
POINT
  8
uglydotknoll
 10
453102.996666667
 20
6467099.06
 50
0
  0
POINT
  8
udepression
 10
453106.056
 20
6466490.98
 50
0
  0
POINT
  8
udepression
 10
453989.32
 20
6467382.78333333
 50
0
  0
POINT
  8
dotknoll
 10
454088.252307692
 20
6466896.91846154
 50
0
  0
POINT
  8
dotknoll
 10
454709.078
 20
6466485.978
 50
0
  0
POINT
  8
dotknoll
 10
454849.063076923
 20
6466590.14923077
 50
0
  0
POINT
  8
udepression
 10
454886.9
 20
6466817.05666667
 50
0
  0
POINT
  8
udepression
 10
454898.796666667
 20
6466823.08
 50
0
  0
POINT
  8
udepression
 10
454902.042
 20
6466825.152
 50
0
  0
POINT
  8
udepression
 10
454904.996666667
 20
6466826.89666667
 50
0
  0
POINT
  8
udepression
 10
454907.07
 20
6466828.85666667
 50
0
  0
POINT
  8
udepression
 10
454912.89
 20
6466831.01666667
 50
0
  0
POINT
  8
udepression
 10
454915.033333333
 20
6466832.99666667
 50
0
  0
POINT
  8
uglyudepression
 10
452588.83
 20
6466654.99
 50
0
  0
POINT
  8
uglyudepression
 10
452955.013333333
 20
6466816.86666667
 50
0
  0
POINT
  8
uglydotknoll
 10
454197.003333333
 20
6466930.97666667
 50
0
  0
POINT
  8
dotknoll
 10
454233.115384615
 20
6467060.12923077
 50
0
  0
POINT
  8
dotknoll
 10
454437.12
 20
6467025.30615385
 50
0
  0
POINT
  8
uglydotknoll
 10
454450.96
 20
6466921.11
 50
0
  0
POINT
  8
dotknoll
 10
454871.924
 20
6466803.088
 50
0
  0
POINT
  8
uglydotknoll
 10
454871
 20
6466864.98
 50
0
  0
POINT
  8
uglydotknoll
 10
454886.993333333
 20
6466848.99666667
 50
0
  0
POINT
  8
dotknoll
 10
454998.768333333
 20
6466580.745
 50
0
  0
POINT
  8
dotknoll
 10
452567.026666667
 20
6465956.97333333
 50
0
  0
POINT
  8
udepression
 10
452798.82
 20
6467003.04666667
 50
0
  0
POINT
  8
dotknoll
 10
452892.77
 20
6466851.07
 50
0
  0
POINT
  8
dotknoll
 10
452898.178461539
 20
6466842.94769231
 50
0
  0
POINT
  8
dotknoll
 10
453274.011666667
 20
6466889.655
 50
0
  0
POINT
  8
dotknoll
 10
453277.883076923
 20
6466876.00923077
 50
0
  0
POINT
  8
udepression
 10
453367.73
 20
6467197.94
 50
0
  0
POINT
  8
dotknoll
 10
453153.054
 20
6467457.992
 50
0
  0
POINT
  8
uglydotknoll
 10
453912.936666667
 20
6467261.05
 50
0
  0
POINT
  8
dotknoll
 10
453916.89
 20
6467261.07
 50
0
  0
POINT
  8
uglydotknoll
 10
453696.008
 20
6467290.022
 50
0
  0
POINT
  8
udepression
 10
453716.876666667
 20
6467495.00666667
 50
0
  0
POINT
  8
uglydotknoll
 10
454700.996666667
 20
6467185.00666667
 50
0
  0
POINT
  8
dotknoll
 10
454999.396
 20
6467307.376
 50
0
  0
POINT
  8
dotknoll
 10
452900.883333333
 20
6467249.22333333
 50
0
  0
POINT
  8
dotknoll
 10
454930.993333333
 20
6467252.99666667
 50
0
  0
POINT
  8
uglyudepression
 10
452721.056666667
 20
6467478.92
 50
0
  0
POINT
  8
udepression
 10
450933.888333333
 20
6469609.83
 50
0
  0
POINT
  8
udepression
 10
450956.986666667
 20
6469595.06333333
 50
0
  0
POINT
  8
dotknoll
 10
450003.74
 20
6469542.19714286
 50
0
  0
POINT
  8
dotknoll
 10
450003.617142857
 20
6468598.37142857
 50
0
  0
POINT
  8
uglydotknoll
 10
450307
 20
6468796.99666667
 50
0
  0
POINT
  8
dotknoll
 10
450003.952
 20
6467815.184
 50
0
  0
POINT
  8
dotknoll
 10
451303.06
 20
6469633.02
 50
0
  0
POINT
  8
dotknoll
 10
450794.131666667
 20
6468425.685
 50
0
  0
POINT
  8
dotknoll
 10
451335.013333333
 20
6469348.91666667
 50
0
  0
POINT
  8
dotknoll
 10
450979.01
 20
6468664.98333333
 50
0
  0
POINT
  8
uglyudepression
 10
451456.936666667
 20
6469220.91
 50
0
  0
POINT
  8
dotknoll
 10
451173.233333333
 20
6468940.90333333
 50
0
  0
POINT
  8
dotknoll
 10
450220.073333333
 20
6467501.71166667
 50
0
  0
POINT
  8
uglydotknoll
 10
450259.003333333
 20
6469053
 50
0
  0
POINT
  8
dotknoll
 10
450295.101666667
 20
6467978.625
 50
0
  0
POINT
  8
dotknoll
 10
450424.223333333
 20
6467978.67666667
 50
0
  0
POINT
  8
udepression
 10
450957.206666667
 20
6468330.88
 50
0
  0
POINT
  8
udepression
 10
450472.853333333
 20
6467867.01333333
 50
0
  0
POINT
  8
udepression
 10
450654.986666667
 20
6468038.96
 50
0
  0
POINT
  8
uglyudepression
 10
450693.003333333
 20
6468116.98
 50
0
  0
POINT
  8
uglydotknoll
 10
450721.878
 20
6468145.226
 50
0
  0
POINT
  8
dotknoll
 10
450789.053333333
 20
6468642.95666667
 50
0
  0
POINT
  8
uglydotknoll
 10
450943
 20
6468793.00666667
 50
0
  0
POINT
  8
dotknoll
 10
450973.004615385
 20
6468108.05230769
 50
0
  0
POINT
  8
uglydotknoll
 10
451043.076666667
 20
6468612.71
 50
0
  0
POINT
  8
uglyudepression
 10
451047.033333333
 20
6468057.02333333
 50
0
  0
POINT
  8
dotknoll
 10
451315.026
 20
6468736.09
 50
0
  0
POINT
  8
uglydotknoll
 10
450549.013333333
 20
6467842.99666667
 50
0
  0
POINT
  8
uglydotknoll
 10
451014.88
 20
6468551.11333333
 50
0
  0
POINT
  8
dotknoll
 10
451208.305
 20
6469236.56333333
 50
0
  0
POINT
  8
uglydotknoll
 10
451355.193333333
 20
6468728.89333333
 50
0
  0
POINT
  8
uglydotknoll
 10
452095.006666667
 20
6469934.99333333
 50
0
  0
POINT
  8
uglydotknoll
 10
451101.056666667
 20
6468722.96666667
 50
0
  0
POINT
  8
dotknoll
 10
451304.883333333
 20
6468709.00666667
 50
0
  0
POINT
  8
udepression
 10
450987.003333333
 20
6467844.98666667
 50
0
  0
POINT
  8
uglydotknoll
 10
451077.05
 20
6468482.86333333
 50
0
  0
POINT
  8
uglydotknoll
 10
451113.116
 20
6468981.922
 50
0
  0
POINT
  8
dotknoll
 10
451489.02
 20
6468716.84333333
 50
0
  0
POINT
  8
dotknoll
 10
450992.215
 20
6467837.47333333
 50
0
  0
POINT
  8
uglydotknoll
 10
450991.12
 20
6467842.96333333
 50
0
  0
POINT
  8
udepression
 10
451222.916666667
 20
6468098.99333333
 50
0
  0
POINT
  8
udepression
 10
451226.97
 20
6468076.97666667
 50
0
  0
POINT
  8
uglyudepression
 10
451355.166666667
 20
6468544.99666667
 50
0
  0
POINT
  8
uglydotknoll
 10
450970.303333333
 20
6467855.44833333
 50
0
  0
POINT
  8
uglydotknoll
 10
451023.851666667
 20
6467883.78833333
 50
0
  0
POINT
  8
uglyudepression
 10
451234.93
 20
6468078.89333333
 50
0
  0
POINT
  8
uglyudepression
 10
451252.896666667
 20
6468103.3
 50
0
  0
POINT
  8
uglyudepression
 10
451254.83
 20
6468105.05333333
 50
0
  0
POINT
  8
udepression
 10
451274.86
 20
6468261.03333333
 50
0
  0
POINT
  8
udepression
 10
451280.886666667
 20
6468267.06666667
 50
0
  0
POINT
  8
dotknoll
 10
451475.076923077
 20
6468428.22769231
 50
0
  0
POINT
  8
uglydotknoll
 10
450827.988
 20
6467759.028
 50
0
  0
POINT
  8
dotknoll
 10
451011.916
 20
6467885.102
 50
0
  0
POINT
  8
udepression
 10
451253.92
 20
6468057.016
 50
0
  0
POINT
  8
udepression
 10
451259.013333333
 20
6468092.97666667
 50
0
  0
POINT
  8
udepression
 10
451262.9
 20
6468221.954
 50
0
  0
POINT
  8
uglyudepression
 10
451267.063333333
 20
6468184.94333333
 50
0
  0
POINT
  8
udepression
 10
451316.741666667
 20
6468263.59166667
 50
0
  0
POINT
  8
uglyudepression
 10
451378.966666667
 20
6468285.01333333
 50
0
  0
POINT
  8
udepression
 10
451409.123076923
 20
6468232.07538462
 50
0
  0
POINT
  8
uglyudepression
 10
451538.776666667
 20
6468401.14333333
 50
0
  0
POINT
  8
dotknoll
 10
451623.167692308
 20
6468715.18
 50
0
  0
POINT
  8
uglyudepression
 10
450868.956666667
 20
6467705.04333333
 50
0
  0
POINT
  8
uglydotknoll
 10
450947.006666667
 20
6467777.02
 50
0
  0
POINT
  8
udepression
 10
451200.79
 20
6467904.96333333
 50
0
  0
POINT
  8
udepression
 10
451210.95
 20
6467935.02
 50
0
  0
POINT
  8
udepression
 10
451214.96
 20
6467941.02666667
 50
0
  0
POINT
  8
udepression
 10
451216.896666667
 20
6467943.18666667
 50
0
  0
POINT
  8
udepression
 10
451217.15
 20
6467960.93666667
 50
0
  0
POINT
  8
udepression
 10
451218.78
 20
6467947.07
 50
0
  0
POINT
  8
udepression
 10
451221.106666667
 20
6467964.87666667
 50
0
  0
POINT
  8
udepression
 10
451222.83
 20
6467953.27666667
 50
0
  0
POINT
  8
uglyudepression
 10
451255.006666667
 20
6468005.05666667
 50
0
  0
POINT
  8
uglyudepression
 10
451257.2
 20
6467912.69333333
 50
0
  0
POINT
  8
udepression
 10
451259.86
 20
6467895.70333333
 50
0
  0
POINT
  8
uglyudepression
 10
451271.2
 20
6467986.76333333
 50
0
  0
POINT
  8
udepression
 10
451295.353846154
 20
6468066.52307692
 50
0
  0
POINT
  8
udepression
 10
451294.97
 20
6468095.04333333
 50
0
  0
POINT
  8
udepression
 10
451295.006666667
 20
6468100.98
 50
0
  0
POINT
  8
udepression
 10
451296.92
 20
6467905.08333333
 50
0
  0
POINT
  8
udepression
 10
451330.803333333
 20
6468246.83666667
 50
0
  0
POINT
  8
udepression
 10
451420.963333333
 20
6468163.16333333
 50
0
  0
POINT
  8
udepression
 10
451425.518333333
 20
6468164.20333333
 50
0
  0
POINT
  8
uglyudepression
 10
451443.006666667
 20
6468159.01666667
 50
0
  0
POINT
  8
dotknoll
 10
450949.006666667
 20
6467713.08333333
 50
0
  0
POINT
  8
uglydotknoll
 10
451202.936666667
 20
6467986.93666667
 50
0
  0
POINT
  8
udepression
 10
451284.866666667
 20
6467853.15
 50
0
  0
POINT
  8
udepression
 10
451304.916666667
 20
6467871.07
 50
0
  0
POINT
  8
udepression
 10
451312.896666667
 20
6468009.16
 50
0
  0
POINT
  8
udepression
 10
451314.916666667
 20
6468010.99666667
 50
0
  0
POINT
  8
uglyudepression
 10
451317.625
 20
6468147.635
 50
0
  0
POINT
  8
udepression
 10
451324.07
 20
6468114.912
 50
0
  0
POINT
  8
udepression
 10
451326.962
 20
6468106.052
 50
0
  0
POINT
  8
dotknoll
 10
451329.073333333
 20
6468222.85
 50
0
  0
POINT
  8
udepression
 10
451331.64
 20
6467955.675
 50
0
  0
POINT
  8
uglydotknoll
 10
451334.77
 20
6468218.99
 50
0
  0
POINT
  8
dotknoll
 10
451346.28
 20
6468260.86615385
 50
0
  0
POINT
  8
udepression
 10
451353
 20
6468123.01666667
 50
0
  0
POINT
  8
uglydotknoll
 10
451356.97
 20
6468243.05333333
 50
0
  0
POINT
  8
udepression
 10
451358.933333333
 20
6468125.13
 50
0
  0
POINT
  8
udepression
 10
451358.996666667
 20
6468133.11333333
 50
0
  0
POINT
  8
uglyudepression
 10
451377.126666667
 20
6468131.07
 50
0
  0
POINT
  8
uglyudepression
 10
451419.036666667
 20
6467822.94666667
 50
0
  0
POINT
  8
udepression
 10
451425.243333333
 20
6467856.96
 50
0
  0
POINT
  8
uglyudepression
 10
451425.166666667
 20
6467874.89
 50
0
  0
POINT
  8
udepression
 10
451432.164
 20
6467848.018
 50
0
  0
POINT
  8
udepression
 10
451445.016666667
 20
6467900.97666667
 50
0
  0
POINT
  8
udepression
 10
451447.223333333
 20
6467896.91333333
 50
0
  0
POINT
  8
udepression
 10
451449.15
 20
6467898.85
 50
0
  0
POINT
  8
dotknoll
 10
450938.886666667
 20
6467601.11666667
 50
0
  0
POINT
  8
uglydotknoll
 10
450948.786666667
 20
6467576.98
 50
0
  0
POINT
  8
dotknoll
 10
450988.293333333
 20
6467657.26
 50
0
  0
POINT
  8
uglyudepression
 10
451092.172
 20
6467654.796
 50
0
  0
POINT
  8
udepression
 10
451329.994
 20
6467846.984
 50
0
  0
POINT
  8
uglyudepression
 10
451340.016
 20
6467836.61
 50
0
  0
POINT
  8
udepression
 10
451368.966666667
 20
6467955.02333333
 50
0
  0
POINT
  8
uglyudepression
 10
451389.98
 20
6468019.50333333
 50
0
  0
POINT
  8
udepression
 10
451401.033333333
 20
6468024.96333333
 50
0
  0
POINT
  8
udepression
 10
451404.593333333
 20
6467897.305
 50
0
  0
POINT
  8
udepression
 10
451403.24
 20
6467900.63666667
 50
0
  0
POINT
  8
udepression
 10
451409.1
 20
6468026.82333333
 50
0
  0
POINT
  8
udepression
 10
451411.003333333
 20
6467969.17
 50
0
  0
POINT
  8
udepression
 10
451413.243333333
 20
6468028.81
 50
0
  0
POINT
  8
udepression
 10
451415.106666667
 20
6468032.84666667
 50
0
  0
POINT
  8
udepression
 10
451421.06
 20
6468041.05666667
 50
0
  0
POINT
  8
uglyudepression
 10
451424.76
 20
6468041.14333333
 50
0
  0
POINT
  8
dotknoll
 10
451843.066153846
 20
6469030.42153846
 50
0
  0
POINT
  8
dotknoll
 10
451025.67
 20
6467706.05
 50
0
  0
POINT
  8
udepression
 10
451145.993333333
 20
6467913.61166667
 50
0
  0
POINT
  8
dotknoll
 10
451282.736923077
 20
6467524.42461538
 50
0
  0
POINT
  8
uglyudepression
 10
451369.932
 20
6467913.056
 50
0
  0
POINT
  8
dotknoll
 10
451379.09
 20
6467960.95
 50
0
  0
POINT
  8
dotknoll
 10
450925.096666667
 20
6467512.92
 50
0
  0
POINT
  8
uglyudepression
 10
451080.953333333
 20
6467817.05
 50
0
  0
POINT
  8
udepression
 10
451082.916666667
 20
6467819.07333333
 50
0
  0
POINT
  8
uglydotknoll
 10
451137.956666667
 20
6467939.765
 50
0
  0
POINT
  8
dotknoll
 10
451807.08
 20
6468738.96333333
 50
0
  0
POINT
  8
dotknoll
 10
452042.903333333
 20
6469244.92333333
 50
0
  0
POINT
  8
udepression
 10
452317.08
 20
6467658.97333333
 50
0
  0
POINT
  8
dotknoll
 10
452275.226666667
 20
6467668.7
 50
0
  0
POINT
  8
uglydotknoll
 10
451487.748333333
 20
6467637.61
 50
0
  0
POINT
  8
dotknoll
 10
451606.764615385
 20
6468028.48461538
 50
0
  0
POINT
  8
dotknoll
 10
451534.015
 20
6467705.79666667
 50
0
  0
POINT
  8
udepression
 10
452134.868333333
 20
6467696.79833333
 50
0
  0
POINT
  8
uglydotknoll
 10
451803.093333333
 20
6468412.85333333
 50
0
  0
POINT
  8
dotknoll
 10
452095.095384615
 20
6467652.13384615
 50
0
  0
POINT
  8
dotknoll
 10
451744.46
 20
6467544.70769231
 50
0
  0
POINT
  8
udepression
 10
451715.123333333
 20
6467684.92333333
 50
0
  0
POINT
  8
dotknoll
 10
452090.76
 20
6467959.22333333
 50
0
  0
POINT
  8
dotknoll
 10
451860.052
 20
6468010.08
 50
0
  0
POINT
  8
uglydotknoll
 10
453355.006666667
 20
6467902.99666667
 50
0
  0
POINT
  8
udepression
 10
454478.868
 20
6467730.048
 50
0
  0
POINT
  8
udepression
 10
454791.036666667
 20
6467842.99333333
 50
0
  0
POINT
  8
udepression
 10
454797.01
 20
6467850.99
 50
0
  0
POINT
  8
dotknoll
 10
454044.352307692
 20
6468265.21076923
 50
0
  0
POINT
  8
udepression
 10
454834.856666667
 20
6467935.01333333
 50
0
  0
POINT
  8
uglydotknoll
 10
453717.003333333
 20
6467732.99
 50
0
  0
POINT
  8
uglydotknoll
 10
453730.96
 20
6467731.02666667
 50
0
  0
POINT
  8
dotknoll
 10
453795.056666667
 20
6468692.61833333
 50
0
  0
POINT
  8
udepression
 10
453967.106666667
 20
6468832.79
 50
0
  0
POINT
  8
udepression
 10
453983.093333333
 20
6468842.89
 50
0
  0
POINT
  8
udepression
 10
453988.022
 20
6468844.896
 50
0
  0
POINT
  8
udepression
 10
454000.09
 20
6468853.012
 50
0
  0
POINT
  8
udepression
 10
454004.923333333
 20
6468854.96
 50
0
  0
POINT
  8
udepression
 10
454071.076666667
 20
6468155.23333333
 50
0
  0
POINT
  8
udepression
 10
453750.996666667
 20
6467553.13666667
 50
0
  0
POINT
  8
udepression
 10
453754.07
 20
6467529.53
 50
0
  0
POINT
  8
udepression
 10
453758.993333333
 20
6467547.03333333
 50
0
  0
POINT
  8
udepression
 10
453761
 20
6467508.98333333
 50
0
  0
POINT
  8
udepression
 10
453764.986666667
 20
6467510.99666667
 50
0
  0
POINT
  8
udepression
 10
454117.12
 20
6468788.93
 50
0
  0
POINT
  8
udepression
 10
454401.093333333
 20
6467949.06333333
 50
0
  0
POINT
  8
uglydotknoll
 10
453257.098
 20
6468551.95
 50
0
  0
POINT
  8
udepression
 10
453330.963333333
 20
6468973.01
 50
0
  0
POINT
  8
uglydotknoll
 10
453761.312
 20
6467585.734
 50
0
  0
POINT
  8
udepression
 10
453832.95
 20
6467575.06
 50
0
  0
POINT
  8
udepression
 10
453835.013333333
 20
6467621.03666667
 50
0
  0
POINT
  8
uglyudepression
 10
453835.043333333
 20
6467624.94
 50
0
  0
POINT
  8
udepression
 10
453836.706
 20
6467578.146
 50
0
  0
POINT
  8
uglyudepression
 10
453857.153333333
 20
6467576.99
 50
0
  0
POINT
  8
udepression
 10
454712.813333333
 20
6469280.90333333
 50
0
  0
POINT
  8
udepression
 10
454730.044
 20
6469284.978
 50
0
  0
POINT
  8
udepression
 10
454740.048
 20
6469284.964
 50
0
  0
POINT
  8
udepression
 10
454747.17
 20
6469281.09
 50
0
  0
POINT
  8
udepression
 10
454774.78
 20
6469269.02333333
 50
0
  0
POINT
  8
dotknoll
 10
453280.164
 20
6468260.826
 50
0
  0
POINT
  8
dotknoll
 10
453511.138461538
 20
6469050.06
 50
0
  0
POINT
  8
dotknoll
 10
454000.385
 20
6468584.32
 50
0
  0
POINT
  8
uglyudepression
 10
454177.113333333
 20
6468624.79666667
 50
0
  0
POINT
  8
dotknoll
 10
454350.008
 20
6468437.022
 50
0
  0
POINT
  8
uglydotknoll
 10
454772.943333333
 20
6468699.16333333
 50
0
  0
POINT
  8
dotknoll
 10
454999.02
 20
6467682.48166667
 50
0
  0
POINT
  8
udepression
 10
452919.256923077
 20
6467610.01846154
 50
0
  0
POINT
  8
udepression
 10
452939.976
 20
6467619.088
 50
0
  0
POINT
  8
uglyudepression
 10
452940.84
 20
6467626.99
 50
0
  0
POINT
  8
uglyudepression
 10
452953.234
 20
6467633.854
 50
0
  0
POINT
  8
uglyudepression
 10
452953.15
 20
6467639.01666667
 50
0
  0
POINT
  8
udepression
 10
453003.05
 20
6467679.00333333
 50
0
  0
POINT
  8
udepression
 10
453061.116666667
 20
6469082.72666667
 50
0
  0
POINT
  8
udepression
 10
453063.09
 20
6469084.91333333
 50
0
  0
POINT
  8
dotknoll
 10
453110.011666667
 20
6469547.69333333
 50
0
  0
POINT
  8
dotknoll
 10
453133.009230769
 20
6469510.14615385
 50
0
  0
POINT
  8
uglyudepression
 10
453208.976666667
 20
6468995.02666667
 50
0
  0
POINT
  8
dotknoll
 10
453228.111666667
 20
6468265.73166667
 50
0
  0
POINT
  8
dotknoll
 10
453300.996666667
 20
6469249.01666667
 50
0
  0
POINT
  8
dotknoll
 10
453397.256666667
 20
6469240.88
 50
0
  0
POINT
  8
uglydotknoll
 10
453419.016
 20
6469371.966
 50
0
  0
POINT
  8
dotknoll
 10
453439.976666667
 20
6469325.81333333
 50
0
  0
POINT
  8
dotknoll
 10
453557.645
 20
6469574.10666667
 50
0
  0
POINT
  8
udepression
 10
453713.123333333
 20
6469838.97666667
 50
0
  0
POINT
  8
udepression
 10
453950.923333333
 20
6469345.03
 50
0
  0
POINT
  8
udepression
 10
453985.043333333
 20
6469486.85
 50
0
  0
POINT
  8
uglydotknoll
 10
454328.963333333
 20
6468387.03333333
 50
0
  0
POINT
  8
uglydotknoll
 10
454380.98
 20
6468884.98666667
 50
0
  0
POINT
  8
uglyudepression
 10
454499.89
 20
6469011.218
 50
0
  0
POINT
  8
uglyudepression
 10
452696.976666667
 20
6467662.88
 50
0
  0
POINT
  8
udepression
 10
452734.221666667
 20
6467683.47333333
 50
0
  0
POINT
  8
udepression
 10
452738.916666667
 20
6467683.09666667
 50
0
  0
POINT
  8
udepression
 10
452752.006
 20
6467676.984
 50
0
  0
POINT
  8
udepression
 10
452756.956666667
 20
6467675.02666667
 50
0
  0
POINT
  8
udepression
 10
452759.06
 20
6467656.99333333
 50
0
  0
POINT
  8
udepression
 10
452761.03
 20
6467678.99
 50
0
  0
POINT
  8
udepression
 10
452762.926
 20
6467656.028
 50
0
  0
POINT
  8
udepression
 10
452766.54
 20
6467681.35692308
 50
0
  0
POINT
  8
udepression
 10
452770.785
 20
6467663.96333333
 50
0
  0
POINT
  8
udepression
 10
452777.006666667
 20
6467678.97333333
 50
0
  0
POINT
  8
udepression
 10
452782.26
 20
6467649.46833333
 50
0
  0
POINT
  8
uglyudepression
 10
452783.213333333
 20
6467676.97333333
 50
0
  0
POINT
  8
udepression
 10
452785.173333333
 20
6467685
 50
0
  0
POINT
  8
uglyudepression
 10
452808.993333333
 20
6467667.09
 50
0
  0
POINT
  8
udepression
 10
452814.923333333
 20
6467664.92333333
 50
0
  0
POINT
  8
uglyudepression
 10
452849.116666667
 20
6467685.05333333
 50
0
  0
POINT
  8
udepression
 10
452903.006666667
 20
6467712.98666667
 50
0
  0
POINT
  8
udepression
 10
452911.972
 20
6467689.102
 50
0
  0
POINT
  8
dotknoll
 10
452936.1
 20
6467613.69166667
 50
0
  0
POINT
  8
dotknoll
 10
452949.033333333
 20
6467638.94666667
 50
0
  0
POINT
  8
udepression
 10
452950.996666667
 20
6467698.89666667
 50
0
  0
POINT
  8
udepression
 10
452970.036
 20
6467734.91
 50
0
  0
POINT
  8
udepression
 10
452977.149230769
 20
6467743.88
 50
0
  0
POINT
  8
udepression
 10
452980.853333333
 20
6467737.23666667
 50
0
  0
POINT
  8
udepression
 10
452982.79
 20
6467739.03333333
 50
0
  0
POINT
  8
uglyudepression
 10
452983.07
 20
6467750.74666667
 50
0
  0
POINT
  8
dotknoll
 10
453128.158
 20
6469200.76
 50
0
  0
POINT
  8
dotknoll
 10
453131.12
 20
6469202.78
 50
0
  0
POINT
  8
uglydotknoll
 10
453170.97
 20
6469198.98666667
 50
0
  0
POINT
  8
uglydotknoll
 10
453233.688333333
 20
6469413.95333333
 50
0
  0
POINT
  8
uglydotknoll
 10
453510.986666667
 20
6469419.00333333
 50
0
  0
POINT
  8
dotknoll
 10
453582.113846154
 20
6468843.94307692
 50
0
  0
POINT
  8
dotknoll
 10
453667.948
 20
6469755.194
 50
0
  0
POINT
  8
uglydotknoll
 10
453718.98
 20
6469090.97666667
 50
0
  0
POINT
  8
udepression
 10
454120.896666667
 20
6469572.94666667
 50
0
  0
POINT
  8
dotknoll
 10
452616.226153846
 20
6469297.03230769
 50
0
  0
POINT
  8
udepression
 10
452702.946
 20
6467818.01
 50
0
  0
POINT
  8
udepression
 10
452745.96
 20
6467769.924
 50
0
  0
POINT
  8
udepression
 10
452747.036666667
 20
6467780.89333333
 50
0
  0
POINT
  8
udepression
 10
452750.924
 20
6467780.058
 50
0
  0
POINT
  8
udepression
 10
452758.97
 20
6467772.94333333
 50
0
  0
POINT
  8
udepression
 10
452764.689230769
 20
6467745.12153846
 50
0
  0
POINT
  8
udepression
 10
452762.916666667
 20
6467768.98333333
 50
0
  0
POINT
  8
udepression
 10
452771.032
 20
6467760.004
 50
0
  0
POINT
  8
udepression
 10
452801.12
 20
6467771.04333333
 50
0
  0
POINT
  8
udepression
 10
452803.023333333
 20
6467772.85333333
 50
0
  0
POINT
  8
udepression
 10
452859.02
 20
6467779.02666667
 50
0
  0
POINT
  8
udepression
 10
452863.34
 20
6467780.77
 50
0
  0
POINT
  8
udepression
 10
452864.943333333
 20
6467777.24666667
 50
0
  0
POINT
  8
uglyudepression
 10
452870.933333333
 20
6467783.03
 50
0
  0
POINT
  8
dotknoll
 10
452953.186666667
 20
6467766.71
 50
0
  0
POINT
  8
dotknoll
 10
452956.96
 20
6467766.93
 50
0
  0
POINT
  8
dotknoll
 10
453103.972
 20
6469127.094
 50
0
  0
POINT
  8
dotknoll
 10
453601.006666667
 20
6468817.00333333
 50
0
  0
POINT
  8
dotknoll
 10
453665.096666667
 20
6469612.88333333
 50
0
  0
POINT
  8
uglydotknoll
 10
454085.133333333
 20
6469623.08
 50
0
  0
POINT
  8
dotknoll
 10
452642.376666667
 20
6468878.33
 50
0
  0
POINT
  8
dotknoll
 10
452707.2
 20
6467880.87
 50
0
  0
POINT
  8
uglydotknoll
 10
452707.226666667
 20
6467892.81
 50
0
  0
POINT
  8
udepression
 10
452717.926
 20
6467920.924
 50
0
  0
POINT
  8
udepression
 10
452746.963333333
 20
6467931.06666667
 50
0
  0
POINT
  8
udepression
 10
454339.756
 20
6469703.322
 50
0
  0
POINT
  8
uglydotknoll
 10
454856.99
 20
6469118.90333333
 50
0
  0
POINT
  8
uglydotknoll
 10
453034.146
 20
6468292.79
 50
0
  0
POINT
  8
uglydotknoll
 10
453672.973333333
 20
6469586.83
 50
0
  0
POINT
  8
dotknoll
 10
454349.753333333
 20
6469699.70833333
 50
0
  0
POINT
  8
uglydotknoll
 10
454425.066666667
 20
6469696.99666667
 50
0
  0
POINT
  8
uglydotknoll
 10
452797.016666667
 20
6468047.01333333
 50
0
  0
POINT
  8
dotknoll
 10
452894.186153846
 20
6468220.91692308
 50
0
  0
POINT
  8
dotknoll
 10
452920.796923077
 20
6467968.34461538
 50
0
  0
POINT
  8
dotknoll
 10
452866.258461538
 20
6468102.94153846
 50
0
  0
POINT
  8
dotknoll
 10
452950.983333333
 20
6468057.00333333
 50
0
  0
POINT
  8
dotknoll
 10
454339.142
 20
6469803.982
 50
0
  0
POINT
  8
uglydotknoll
 10
454237.062
 20
6469764.028
 50
0
  0
POINT
  8
uglyudepression
 10
454600.813333333
 20
6469539.14666667
 50
0
  0
POINT
  8
dotknoll
 10
454914.835384615
 20
6469872.31846154
 50
0
  0
POINT
  8
dotknoll
 10
454546.796666667
 20
6469465.21
 50
0
  0
POINT
  8
uglydotknoll
 10
454585.294
 20
6469976.028
 50
0
  0
POINT
  8
dotknoll
 10
454218.712307692
 20
6469730.41384615
 50
0
  0
POINT
  8
uglydotknoll
 10
454660.976666667
 20
6469617.19333333
 50
0
  0
POINT
  8
uglydotknoll
 10
450435
 20
6471177.05666667
 50
0
  0
POINT
  8
uglyudepression
 10
450469.013333333
 20
6471432.98
 50
0
  0
POINT
  8
uglydotknoll
 10
450497.01
 20
6470950.99333333
 50
0
  0
POINT
  8
udepression
 10
450520.983333333
 20
6471503.01
 50
0
  0
POINT
  8
udepression
 10
450702.95
 20
6470375.02
 50
0
  0
POINT
  8
uglydotknoll
 10
450708.966666667
 20
6471053.01
 50
0
  0
POINT
  8
dotknoll
 10
451539.036923077
 20
6471881.90307692
 50
0
  0
POINT
  8
udepression
 10
451742.705
 20
6471719.01333333
 50
0
  0
POINT
  8
dotknoll
 10
450004.305
 20
6471419.89166667
 50
0
  0
POINT
  8
uglydotknoll
 10
450271.974
 20
6471609.022
 50
0
  0
POINT
  8
uglyudepression
 10
450793.686
 20
6470311.432
 50
0
  0
POINT
  8
udepression
 10
450843.143333333
 20
6470113.03333333
 50
0
  0
POINT
  8
udepression
 10
450845.825
 20
6470115.87833333
 50
0
  0
POINT
  8
udepression
 10
450847.343333333
 20
6470124.78333333
 50
0
  0
POINT
  8
udepression
 10
450850.763333333
 20
6470125.01
 50
0
  0
POINT
  8
uglyudepression
 10
451633
 20
6471208.99666667
 50
0
  0
POINT
  8
udepression
 10
452296.8
 20
6471945.10333333
 50
0
  0
POINT
  8
uglydotknoll
 10
451577.056666667
 20
6470218.88666667
 50
0
  0
POINT
  8
dotknoll
 10
451816.269230769
 20
6470556.99846154
 50
0
  0
POINT
  8
dotknoll
 10
451837.016666667
 20
6470542.81666667
 50
0
  0
POINT
  8
dotknoll
 10
452142.384615385
 20
6470630.76
 50
0
  0
POINT
  8
dotknoll
 10
452205.166153846
 20
6470545.21384616
 50
0
  0
POINT
  8
uglydotknoll
 10
452245.013333333
 20
6470097.12666667
 50
0
  0
POINT
  8
dotknoll
 10
452380.018333333
 20
6470149.725
 50
0
  0
POINT
  8
uglydotknoll
 10
452464.026666667
 20
6471235.75666667
 50
0
  0
POINT
  8
dotknoll
 10
452499.17
 20
6470048.7
 50
0
  0
POINT
  8
uglydotknoll
 10
452611.006666667
 20
6472030.96
 50
0
  0
POINT
  8
dotknoll
 10
452644.085
 20
6471991.72
 50
0
  0
POINT
  8
dotknoll
 10
452691.95
 20
6470578.024
 50
0
  0
POINT
  8
dotknoll
 10
452692.07
 20
6470585.60333333
 50
0
  0
POINT
  8
uglydotknoll
 10
452746.993333333
 20
6470759.02333333
 50
0
  0
POINT
  8
uglydotknoll
 10
452730.13
 20
6470649.71166667
 50
0
  0
POINT
  8
dotknoll
 10
452739.004
 20
6470111.996
 50
0
  0
POINT
  8
dotknoll
 10
452740.292307692
 20
6470116.84923077
 50
0
  0
POINT
  8
dotknoll
 10
452888.223076923
 20
6471365
 50
0
  0
POINT
  8
uglydotknoll
 10
452888.98
 20
6470831.02
 50
0
  0
POINT
  8
uglydotknoll
 10
452927.056
 20
6470683.966
 50
0
  0
POINT
  8
uglyudepression
 10
452986.976666667
 20
6471381.23
 50
0
  0
POINT
  8
uglyudepression
 10
453210.996666667
 20
6471994.99666667
 50
0
  0
POINT
  8
uglyudepression
 10
453030.966666667
 20
6471515.00333333
 50
0
  0
POINT
  8
uglydotknoll
 10
453081.016666667
 20
6471496.96666667
 50
0
  0
POINT
  8
dotknoll
 10
453029.025
 20
6470040.64
 50
0
  0
POINT
  8
dotknoll
 10
453482.368333333
 20
6471753.23333333
 50
0
  0
POINT
  8
dotknoll
 10
453499.058461538
 20
6470368.10769231
 50
0
  0
POINT
  8
uglyudepression
 10
453571.006666667
 20
6470729.00666667
 50
0
  0
POINT
  8
dotknoll
 10
453962.096
 20
6470390.894
 50
0
  0
POINT
  8
dotknoll
 10
453161.203076923
 20
6471457.99230769
 50
0
  0
POINT
  8
uglydotknoll
 10
453220.986666667
 20
6471653.00333333
 50
0
  0
POINT
  8
dotknoll
 10
453461.16
 20
6472021.04333333
 50
0
  0
POINT
  8
dotknoll
 10
453518.35
 20
6471594.35666667
 50
0
  0
POINT
  8
dotknoll
 10
453325.905
 20
6471069.80666667
 50
0
  0
POINT
  8
dotknoll
 10
453784
 20
6471273.08153846
 50
0
  0
POINT
  8
dotknoll
 10
453894.353846154
 20
6470894.79230769
 50
0
  0
POINT
  8
uglydotknoll
 10
453977.12
 20
6470828.99666667
 50
0
  0
POINT
  8
dotknoll
 10
453985.58
 20
6470777.61666667
 50
0
  0
POINT
  8
uglyudepression
 10
454108.018
 20
6470176.968
 50
0
  0
POINT
  8
uglydotknoll
 10
454116.983333333
 20
6470185.00333333
 50
0
  0
POINT
  8
dotknoll
 10
454121.984
 20
6470188.998
 50
0
  0
POINT
  8
udepression
 10
454332.925
 20
6470094.66166667
 50
0
  0
POINT
  8
uglydotknoll
 10
453422.92
 20
6471144.89
 50
0
  0
POINT
  8
uglydotknoll
 10
453433.033333333
 20
6470699.05333333
 50
0
  0
POINT
  8
uglydotknoll
 10
453502.04
 20
6471483.78833333
 50
0
  0
POINT
  8
dotknoll
 10
453820.567692308
 20
6471242.34
 50
0
  0
POINT
  8
uglydotknoll
 10
454329.076666667
 20
6470099.15333333
 50
0
  0
POINT
  8
dotknoll
 10
453567.055384615
 20
6472274.09692308
 50
0
  0
POINT
  8
uglydotknoll
 10
454093.213333333
 20
6470539
 50
0
  0
POINT
  8
udepression
 10
453934.051666667
 20
6471791.55166667
 50
0
  0
POINT
  8
udepression
 10
454012.846666667
 20
6471787.07333333
 50
0
  0
POINT
  8
udepression
 10
454044.963333333
 20
6471785.04
 50
0
  0
POINT
  8
uglyudepression
 10
454047.996
 20
6471176.98
 50
0
  0
POINT
  8
dotknoll
 10
454234.903333333
 20
6470353.12333333
 50
0
  0
POINT
  8
dotknoll
 10
454161.163333333
 20
6471722.75333333
 50
0
  0
POINT
  8
udepression
 10
454172.786666667
 20
6472147.09333333
 50
0
  0
POINT
  8
udepression
 10
454713.764
 20
6470029.258
 50
0
  0
POINT
  8
uglyudepression
 10
453986.986666667
 20
6472109.01
 50
0
  0
POINT
  8
dotknoll
 10
453994.006666667
 20
6472375.73833333
 50
0
  0
POINT
  8
uglydotknoll
 10
454441.02
 20
6470365.13666667
 50
0
  0
POINT
  8
uglydotknoll
 10
454502.92
 20
6470356.97666667
 50
0
  0
POINT
  8
dotknoll
 10
454249.04
 20
6471331.03
 50
0
  0
POINT
  8
dotknoll
 10
454380.996666667
 20
6471539.00333333
 50
0
  0
POINT
  8
udepression
 10
454773.01
 20
6470545.10666667
 50
0
  0
POINT
  8
uglydotknoll
 10
454614.863333333
 20
6472456.23833333
 50
0
  0
POINT
  8
uglyudepression
 10
454621.958
 20
6472463.03
 50
0
  0
POINT
  8
uglyudepression
 10
454834.81
 20
6472461.08
 50
0
  0
POINT
  8
uglyudepression
 10
454921.113333333
 20
6470196.85333333
 50
0
  0
POINT
  8
uglydotknoll
 10
454392.358333333
 20
6470804.32333333
 50
0
  0
POINT
  8
uglydotknoll
 10
454395.026666667
 20
6471246.95333333
 50
0
  0
POINT
  8
uglydotknoll
 10
454575.01
 20
6471002.97333333
 50
0
  0
POINT
  8
dotknoll
 10
454697.725
 20
6471579.60166667
 50
0
  0
POINT
  8
uglydotknoll
 10
454945.974
 20
6470623.016
 50
0
  0
POINT
  8
dotknoll
 10
454999.01
 20
6470754.38833333
 50
0
  0
POINT
  8
dotknoll
 10
454811.213333333
 20
6471087.02
 50
0
  0
POINT
  8
uglyudepression
 10
454927.016666667
 20
6470433.19666667
 50
0
  0
POINT
  8
udepression
 10
454941.03
 20
6470432.96333333
 50
0
  0
POINT
  8
uglydotknoll
 10
454340.016
 20
6470964.964
 50
0
  0
POINT
  8
dotknoll
 10
454885.013333333
 20
6471081.1
 50
0
  0
POINT
  8
uglydotknoll
 10
454886.993333333
 20
6470245.00666667
 50
0
  0
POINT
  8
dotknoll
 10
454503.98
 20
6472012.99
 50
0
  0
POINT
  8
uglydotknoll
 10
454825.018
 20
6470451.982
 50
0
  0
POINT
  8
uglydotknoll
 10
454948.754
 20
6470370.104
 50
0
  0
POINT
  8
dotknoll
 10
454994.436923077
 20
6470396.64461538
 50
0
  0
POINT
  8
dotknoll
 10
454932.230769231
 20
6471876.98307692
 50
0
  0
POINT
  8
dotknoll
 10
454999.032
 20
6471923.802
 50
0
  0
POINT
  8
dotknoll
 10
450003.845714286
 20
6474116.14285714
 50
0
  0
POINT
  8
dotknoll
 10
450003.976
 20
6474907.06
 50
0
  0
POINT
  8
uglyudepression
 10
451409.05
 20
6472593.04
 50
0
  0
POINT
  8
udepression
 10
451419.043333333
 20
6472602.90333333
 50
0
  0
POINT
  8
udepression
 10
451431
 20
6472762.90333333
 50
0
  0
POINT
  8
dotknoll
 10
450003.765454545
 20
6472600.14545454
 50
0
  0
POINT
  8
dotknoll
 10
450004.674285714
 20
6472644.98857143
 50
0
  0
POINT
  8
udepression
 10
450064.383333333
 20
6474006.26166667
 50
0
  0
POINT
  8
dotknoll
 10
451239
 20
6474999.08333333
 50
0
  0
POINT
  8
uglyudepression
 10
451634.048
 20
6473156.992
 50
0
  0
POINT
  8
uglyudepression
 10
451648.96
 20
6473166.90333333
 50
0
  0
POINT
  8
uglyudepression
 10
451652.984
 20
6473170.076
 50
0
  0
POINT
  8
uglyudepression
 10
451678.994
 20
6473225.968
 50
0
  0
POINT
  8
uglyudepression
 10
451681.034
 20
6473230.01
 50
0
  0
POINT
  8
udepression
 10
451690.986
 20
6473250.052
 50
0
  0
POINT
  8
udepression
 10
451693.016666667
 20
6473254.91666667
 50
0
  0
POINT
  8
udepression
 10
451695.136
 20
6473259.83
 50
0
  0
POINT
  8
uglyudepression
 10
451697.128
 20
6473263.884
 50
0
  0
POINT
  8
udepression
 10
451704.97
 20
6473281.04666667
 50
0
  0
POINT
  8
udepression
 10
451706.992
 20
6473285.938
 50
0
  0
POINT
  8
udepression
 10
451708.076
 20
6474773.982
 50
0
  0
POINT
  8
udepression
 10
451708.986
 20
6473290.058
 50
0
  0
POINT
  8
udepression
 10
451711
 20
6473294.95333333
 50
0
  0
POINT
  8
udepression
 10
451712.986666667
 20
6473298.87666667
 50
0
  0
POINT
  8
udepression
 10
451714.98
 20
6473303.01333333
 50
0
  0
POINT
  8
udepression
 10
451716.966666667
 20
6473307.10333333
 50
0
  0
POINT
  8
udepression
 10
451716.936666667
 20
6474829.05666667
 50
0
  0
POINT
  8
udepression
 10
451718.956666667
 20
6473311.04666667
 50
0
  0
POINT
  8
udepression
 10
451726.084
 20
6473120.93
 50
0
  0
POINT
  8
udepression
 10
451727.884
 20
6474835.018
 50
0
  0
POINT
  8
udepression
 10
451730.034
 20
6473122.884
 50
0
  0
POINT
  8
udepression
 10
451731.952
 20
6474837.002
 50
0
  0
POINT
  8
udepression
 10
451734.038
 20
6473124.948
 50
0
  0
POINT
  8
udepression
 10
451734.996666667
 20
6474838.96666667
 50
0
  0
POINT
  8
udepression
 10
451738.93
 20
6473126.92666667
 50
0
  0
POINT
  8
udepression
 10
451747.016666667
 20
6473130.95333333
 50
0
  0
POINT
  8
udepression
 10
451759.013333333
 20
6473136.97666667
 50
0
  0
POINT
  8
udepression
 10
451766.95
 20
6473140.98
 50
0
  0
POINT
  8
udepression
 10
451769.253333333
 20
6473142.83
 50
0
  0
POINT
  8
udepression
 10
451777.04
 20
6473144.97666667
 50
0
  0
POINT
  8
uglydotknoll
 10
450073.135384615
 20
6472670.04769231
 50
0
  0
POINT
  8
dotknoll
 10
450185.99
 20
6474781.066
 50
0
  0
POINT
  8
dotknoll
 10
450262.373333333
 20
6474776.43333333
 50
0
  0
POINT
  8
dotknoll
 10
450513.052307692
 20
6474854.13384615
 50
0
  0
POINT
  8
udepression
 10
450724.744
 20
6474500.146
 50
0
  0
POINT
  8
dotknoll
 10
451386.744615385
 20
6473848.35076923
 50
0
  0
POINT
  8
dotknoll
 10
451412.24
 20
6473870.92
 50
0
  0
POINT
  8
dotknoll
 10
451489.089230769
 20
6474518.07846154
 50
0
  0
POINT
  8
dotknoll
 10
451631.688333333
 20
6473168.025
 50
0
  0
POINT
  8
dotknoll
 10
451634.953333333
 20
6473171.00333333
 50
0
  0
POINT
  8
dotknoll
 10
451678.023333333
 20
6473247.65833333
 50
0
  0
POINT
  8
uglyudepression
 10
451704.313333333
 20
6474756.34833333
 50
0
  0
POINT
  8
uglydotknoll
 10
450225.876
 20
6474409.278
 50
0
  0
POINT
  8
dotknoll
 10
450348.09
 20
6474689.63333333
 50
0
  0
POINT
  8
uglyudepression
 10
450497.013333333
 20
6474544.97666667
 50
0
  0
POINT
  8
udepression
 10
450941.77
 20
6474187.174
 50
0
  0
POINT
  8
dotknoll
 10
451072.792307692
 20
6472776.38923077
 50
0
  0
POINT
  8
uglyudepression
 10
451703.003333333
 20
6473873.00666667
 50
0
  0
POINT
  8
uglyudepression
 10
451881.05
 20
6473970.94666667
 50
0
  0
POINT
  8
dotknoll
 10
451925.1
 20
6474682.94666667
 50
0
  0
POINT
  8
dotknoll
 10
451930.97
 20
6474682.93333333
 50
0
  0
POINT
  8
dotknoll
 10
451940.893333333
 20
6474681.2
 50
0
  0
POINT
  8
uglyudepression
 10
450384.963333333
 20
6473068.99333333
 50
0
  0
POINT
  8
dotknoll
 10
450848.311666667
 20
6474725.41333333
 50
0
  0
POINT
  8
dotknoll
 10
450861.978333333
 20
6474743.65666667
 50
0
  0
POINT
  8
dotknoll
 10
451211.118461538
 20
6473546.35230769
 50
0
  0
POINT
  8
uglydotknoll
 10
451268.996666667
 20
6473606.97666667
 50
0
  0
POINT
  8
dotknoll
 10
451216.64
 20
6473263.50307692
 50
0
  0
POINT
  8
dotknoll
 10
452423.958
 20
6472933.092
 50
0
  0
POINT
  8
dotknoll
 10
452427.948
 20
6472935.01
 50
0
  0
POINT
  8
udepression
 10
452430.046
 20
6473830.904
 50
0
  0
POINT
  8
udepression
 10
452474.883333333
 20
6473824.96666667
 50
0
  0
POINT
  8
uglydotknoll
 10
452302.008
 20
6473327.066
 50
0
  0
POINT
  8
dotknoll
 10
453368.01
 20
6474999.095
 50
0
  0
POINT
  8
uglyudepression
 10
452951.31
 20
6474630.70666667
 50
0
  0
POINT
  8
uglyudepression
 10
452952.9
 20
6474627.34
 50
0
  0
POINT
  8
udepression
 10
452542.97
 20
6473081.01666667
 50
0
  0
POINT
  8
dotknoll
 10
453493.214
 20
6474969.92
 50
0
  0
POINT
  8
uglyudepression
 10
453572.936666667
 20
6474806.84
 50
0
  0
POINT
  8
uglydotknoll
 10
453613.136666667
 20
6474616.94666667
 50
0
  0
POINT
  8
udepression
 10
453066.866666667
 20
6474221.09
 50
0
  0
POINT
  8
dotknoll
 10
452723.126153846
 20
6473682.08461538
 50
0
  0
POINT
  8
dotknoll
 10
452724.153333333
 20
6473327.615
 50
0
  0
POINT
  8
uglyudepression
 10
454436.993333333
 20
6474835.18333333
 50
0
  0
POINT
  8
udepression
 10
454700.846666667
 20
6474781.05
 50
0
  0
POINT
  8
udepression
 10
452869.01
 20
6473488.85
 50
0
  0
POINT
  8
uglydotknoll
 10
453021.93
 20
6474171.84
 50
0
  0
POINT
  8
uglyudepression
 10
454744.813333333
 20
6474876.98
 50
0
  0
POINT
  8
uglyudepression
 10
452914.983333333
 20
6473511
 50
0
  0
POINT
  8
dotknoll
 10
453077.053333333
 20
6472833.01333333
 50
0
  0
POINT
  8
dotknoll
 10
453079.632307692
 20
6472836.30461538
 50
0
  0
POINT
  8
dotknoll
 10
454754.656923077
 20
6474982.55230769
 50
0
  0
POINT
  8
uglydotknoll
 10
452899.236666667
 20
6473274.97666667
 50
0
  0
POINT
  8
udepression
 10
453040.943333333
 20
6473145.00666667
 50
0
  0
POINT
  8
uglydotknoll
 10
453060.953333333
 20
6473569.07666667
 50
0
  0
POINT
  8
dotknoll
 10
454806.88
 20
6474551.05333333
 50
0
  0
POINT
  8
udepression
 10
453145
 20
6472983.01
 50
0
  0
POINT
  8
uglydotknoll
 10
453560.99
 20
6474261.00666667
 50
0
  0
POINT
  8
uglydotknoll
 10
454095.02
 20
6474835.00333333
 50
0
  0
POINT
  8
uglydotknoll
 10
453181.656666667
 20
6473504.08
 50
0
  0
POINT
  8
uglydotknoll
 10
454232.993333333
 20
6474337.00666667
 50
0
  0
POINT
  8
uglydotknoll
 10
454243
 20
6473952.98
 50
0
  0
POINT
  8
uglyudepression
 10
454264.966666667
 20
6474191.01666667
 50
0
  0
POINT
  8
dotknoll
 10
454551.926666667
 20
6474159.73333333
 50
0
  0
POINT
  8
uglydotknoll
 10
454563.026666667
 20
6474159.04
 50
0
  0
POINT
  8
dotknoll
 10
454566.305
 20
6474146.41166667
 50
0
  0
POINT
  8
dotknoll
 10
453310.212307692
 20
6473394.99692308
 50
0
  0
POINT
  8
dotknoll
 10
454198.976666667
 20
6473527.00333333
 50
0
  0
POINT
  8
dotknoll
 10
453258.32
 20
6473218.89538462
 50
0
  0
POINT
  8
dotknoll
 10
453361.985
 20
6473627.645
 50
0
  0
POINT
  8
dotknoll
 10
453948.256923077
 20
6473274.83846154
 50
0
  0
POINT
  8
dotknoll
 10
454022.986666667
 20
6473233.01333333
 50
0
  0
POINT
  8
uglyudepression
 10
454407.083333333
 20
6473358.75
 50
0
  0
POINT
  8
dotknoll
 10
454951.685
 20
6473925.66
 50
0
  0
POINT
  8
dotknoll
 10
453272.098333333
 20
6473311.675
 50
0
  0
POINT
  8
dotknoll
 10
454365.064615385
 20
6473386.14923077
 50
0
  0
POINT
  8
uglydotknoll
 10
453694.336666667
 20
6472828.33166667
 50
0
  0
POINT
  8
uglydotknoll
 10
454337.113333333
 20
6472888.76666667
 50
0
  0
POINT
  8
dotknoll
 10
454742.143076923
 20
6473150.91076923
 50
0
  0
POINT
  8
dotknoll
 10
454999.15
 20
6473337.802
 50
0
  0
POINT
  8
dotknoll
 10
454618.98
 20
6472977.01
 50
0
  0
POINT
  8
dotknoll
 10
454620.976666667
 20
6472979.01
 50
0
  0
ENDSEC
  0
EOF
