  0
SECTION
  2
HEADER
  9
$EXTMIN
 10
450001
 20
6465001
  9
$EXTMAX
 10
452627
 20
6467627
  0
ENDSEC
  0
SECTION
  2
ENTITIES
  0
POLYLINE
 66
1
  8
cliff2
  0
VERTEX
  8
cliff2
 10
450045.354055706
 20
6467223.46486074
  0
VERTEX
  8
cliff2
 10
450046.445944294
 20
6467220.73513926
  0
SEQEND
  0
POLYLINE
 66
1
  8
cliff2
  0
VERTEX
  8
cliff2
 10
450043.739732713
 20
6467222.9647845
  0
VERTEX
  8
cliff2
 10
450046.560267287
 20
6467222.1352155
  0
SEQEND
  0
POLYLINE
 66
1
  8
cliff2
  0
VERTEX
  8
cliff2
 10
450150.295004857
 20
6466873.1176938
  0
VERTEX
  8
cliff2
 10
450153.104995143
 20
6466873.9823062
  0
SEQEND
  0
POLYLINE
 66
1
  8
cliff2
  0
VERTEX
  8
cliff2
 10
450168.323890525
 20
6466856.94347263
  0
VERTEX
  8
cliff2
 10
450171.176109475
 20
6466857.65652737
  0
SEQEND
  0
POLYLINE
 66
1
  8
cliff2
  0
VERTEX
  8
cliff2
 10
450173.809817613
 20
6466904.46079303
  0
VERTEX
  8
cliff2
 10
450176.290182387
 20
6466906.03920697
  0
SEQEND
  0
POLYLINE
 66
1
  8
cliff2
  0
VERTEX
  8
cliff2
 10
450181.3
 20
6466899.03
  0
VERTEX
  8
cliff2
 10
450181.3
 20
6466901.97
  0
SEQEND
  0
POLYLINE
 66
1
  8
cliff2
  0
VERTEX
  8
cliff2
 10
450184.709493508
 20
6466903.64608737
  0
VERTEX
  8
cliff2
 10
450187.290506492
 20
6466905.05391263
  0
SEQEND
  0
POLYLINE
 66
1
  8
cliff2
  0
VERTEX
  8
cliff2
 10
450190.211761278
 20
6466903.24170967
  0
VERTEX
  8
cliff2
 10
450192.888238722
 20
6466904.45829033
  0
SEQEND
  0
POLYLINE
 66
1
  8
cliff2
  0
VERTEX
  8
cliff2
 10
450192.011761278
 20
6466903.14170967
  0
VERTEX
  8
cliff2
 10
450194.688238722
 20
6466904.35829033
  0
SEQEND
  0
POLYLINE
 66
1
  8
cliff2
  0
VERTEX
  8
cliff2
 10
450193.413261332
 20
6466904.85862252
  0
VERTEX
  8
cliff2
 10
450195.086738668
 20
6466902.44137748
  0
SEQEND
  0
POLYLINE
 66
1
  8
cliff2
  0
VERTEX
  8
cliff2
 10
450236.579264983
 20
6466877.60201156
  0
VERTEX
  8
cliff2
 10
450236.120735017
 20
6466874.69798844
  0
SEQEND
  0
POLYLINE
 66
1
  8
cliff2
  0
VERTEX
  8
cliff2
 10
450239.779264984
 20
6466855.20201156
  0
VERTEX
  8
cliff2
 10
450239.320735016
 20
6466852.29798844
  0
SEQEND
  0
POLYLINE
 66
1
  8
cliff2
  0
VERTEX
  8
cliff2
 10
450242.141666511
 20
6466869.79999907
  0
VERTEX
  8
cliff2
 10
450241.658333489
 20
6466866.90000093
  0
SEQEND
  0
POLYLINE
 66
1
  8
cliff2
  0
VERTEX
  8
cliff2
 10
450244.151143194
 20
6466870.67906137
  0
VERTEX
  8
cliff2
 10
450241.448856806
 20
6466869.52093863
  0
SEQEND
  0
POLYLINE
 66
1
  8
cliff2
  0
VERTEX
  8
cliff2
 10
450242.379264983
 20
6466871.00201156
  0
VERTEX
  8
cliff2
 10
450241.920735017
 20
6466868.09798844
  0
SEQEND
  0
POLYLINE
 66
1
  8
cliff2
  0
VERTEX
  8
cliff2
 10
450267.623890525
 20
6466815.64347263
  0
VERTEX
  8
cliff2
 10
450270.476109475
 20
6466816.35652737
  0
SEQEND
  0
POLYLINE
 66
1
  8
cliff2
  0
VERTEX
  8
cliff2
 10
450302.380245016
 20
6466882.45930959
  0
VERTEX
  8
cliff2
 10
450304.919754984
 20
6466883.94069041
  0
SEQEND
  0
POLYLINE
 66
1
  8
cliff2
  0
VERTEX
  8
cliff2
 10
450359.80830392
 20
6466897.98286271
  0
VERTEX
  8
cliff2
 10
450359.99169608
 20
6466900.91713729
  0
SEQEND
  0
POLYLINE
 66
1
  8
cliff2
  0
VERTEX
  8
cliff2
 10
450393.203886633
 20
6466851.26192302
  0
VERTEX
  8
cliff2
 10
450392.896113367
 20
6466848.33807698
  0
SEQEND
  0
POLYLINE
 66
1
  8
cliff2
  0
VERTEX
  8
cliff2
 10
450395.986104891
 20
6466847.7149888
  0
VERTEX
  8
cliff2
 10
450397.413895109
 20
6466850.2850112
  0
SEQEND
  0
POLYLINE
 66
1
  8
cliff2
  0
VERTEX
  8
cliff2
 10
450407.995004857
 20
6466884.0176938
  0
VERTEX
  8
cliff2
 10
450410.804995143
 20
6466884.8823062
  0
SEQEND
  0
POLYLINE
 66
1
  8
cliff2
  0
VERTEX
  8
cliff2
 10
450409.391802318
 20
6466885.50588796
  0
VERTEX
  8
cliff2
 10
450411.208197682
 20
6466883.19411204
  0
SEQEND
  0
POLYLINE
 66
1
  8
cliff2
  0
VERTEX
  8
cliff2
 10
450412.448062274
 20
6466729.02042322
  0
VERTEX
  8
cliff2
 10
450414.951937726
 20
6466727.47957678
  0
SEQEND
  0
POLYLINE
 66
1
  8
cliff2
  0
VERTEX
  8
cliff2
 10
450411.043336681
 20
6466885.31610721
  0
VERTEX
  8
cliff2
 10
450412.956663319
 20
6466883.08389279
  0
SEQEND
  0
POLYLINE
 66
1
  8
cliff2
  0
VERTEX
  8
cliff2
 10
450409.717644942
 20
6466883.91945653
  0
VERTEX
  8
cliff2
 10
450412.582355058
 20
6466884.58054347
  0
SEQEND
  0
POLYLINE
 66
1
  8
cliff2
  0
VERTEX
  8
cliff2
 10
450411.495004857
 20
6466883.7176938
  0
VERTEX
  8
cliff2
 10
450414.304995143
 20
6466884.5823062
  0
SEQEND
  0
POLYLINE
 66
1
  8
cliff2
  0
VERTEX
  8
cliff2
 10
450412.891802319
 20
6466885.20588796
  0
VERTEX
  8
cliff2
 10
450414.708197681
 20
6466882.89411204
  0
SEQEND
  0
POLYLINE
 66
1
  8
cliff2
  0
VERTEX
  8
cliff2
 10
450420.858928933
 20
6466697.32928528
  0
VERTEX
  8
cliff2
 10
450422.741071068
 20
6466695.07071472
  0
SEQEND
  0
POLYLINE
 66
1
  8
cliff2
  0
VERTEX
  8
cliff2
 10
450458.854055705
 20
6466852.36486074
  0
VERTEX
  8
cliff2
 10
450459.945944295
 20
6466849.63513926
  0
SEQEND
  0
POLYLINE
 66
1
  8
cliff2
  0
VERTEX
  8
cliff2
 10
450468.85212285
 20
6466850.43169828
  0
VERTEX
  8
cliff2
 10
450471.14787715
 20
6466852.26830172
  0
SEQEND
  0
POLYLINE
 66
1
  8
cliff2
  0
VERTEX
  8
cliff2
 10
450469.46563939
 20
6466851.7944145
  0
VERTEX
  8
cliff2
 10
450472.23436061
 20
6466850.8055855
  0
SEQEND
  0
POLYLINE
 66
1
  8
cliff2
  0
VERTEX
  8
cliff2
 10
450467.191802319
 20
6466849.09411204
  0
VERTEX
  8
cliff2
 10
450469.008197681
 20
6466851.40588796
  0
SEQEND
  0
POLYLINE
 66
1
  8
cliff2
  0
VERTEX
  8
cliff2
 10
450479.889446968
 20
6466870.48944697
  0
VERTEX
  8
cliff2
 10
450477.810553032
 20
6466868.41055303
  0
SEQEND
  0
POLYLINE
 66
1
  8
cliff2
  0
VERTEX
  8
cliff2
 10
450483.155435552
 20
6466855.51485482
  0
VERTEX
  8
cliff2
 10
450485.944564448
 20
6466854.58514518
  0
SEQEND
  0
POLYLINE
 66
1
  8
cliff2
  0
VERTEX
  8
cliff2
 10
450484.948856806
 20
6466855.47906137
  0
VERTEX
  8
cliff2
 10
450487.651143194
 20
6466854.32093863
  0
SEQEND
  0
POLYLINE
 66
1
  8
cliff2
  0
VERTEX
  8
cliff2
 10
450488.486559797
 20
6466928.20384006
  0
VERTEX
  8
cliff2
 10
450491.313440203
 20
6466927.39615994
  0
SEQEND
  0
POLYLINE
 66
1
  8
cliff2
  0
VERTEX
  8
cliff2
 10
450495.326
 20
6466924.282
  0
VERTEX
  8
cliff2
 10
450492.974
 20
6466922.518
  0
SEQEND
  0
POLYLINE
 66
1
  8
cliff2
  0
VERTEX
  8
cliff2
 10
450501.85
 20
6466916.53
  0
VERTEX
  8
cliff2
 10
450501.85
 20
6466919.47
  0
SEQEND
  0
POLYLINE
 66
1
  8
cliff2
  0
VERTEX
  8
cliff2
 10
450517.246914432
 20
6466896.73846424
  0
VERTEX
  8
cliff2
 10
450520.053085568
 20
6466895.86153576
  0
SEQEND
  0
POLYLINE
 66
1
  8
cliff2
  0
VERTEX
  8
cliff2
 10
450553.005435552
 20
6466863.93514518
  0
VERTEX
  8
cliff2
 10
450555.794564448
 20
6466864.86485482
  0
SEQEND
  0
POLYLINE
 66
1
  8
cliff2
  0
VERTEX
  8
cliff2
 10
450568.185192029
 20
6466964.45740399
  0
VERTEX
  8
cliff2
 10
450570.814807971
 20
6466963.14259601
  0
SEQEND
  0
POLYLINE
 66
1
  8
cliff2
  0
VERTEX
  8
cliff2
 10
450567.350831763
 20
6466963.16220505
  0
VERTEX
  8
cliff2
 10
450569.949168237
 20
6466964.53779495
  0
SEQEND
  0
POLYLINE
 66
1
  8
cliff2
  0
VERTEX
  8
cliff2
 10
450588.557010354
 20
6466868.45427092
  0
VERTEX
  8
cliff2
 10
450590.242989646
 20
6466866.04572908
  0
SEQEND
  0
POLYLINE
 66
1
  8
cliff2
  0
VERTEX
  8
cliff2
 10
450593.458928932
 20
6466856.17071472
  0
VERTEX
  8
cliff2
 10
450595.341071068
 20
6466858.42928528
  0
SEQEND
  0
POLYLINE
 66
1
  8
cliff2
  0
VERTEX
  8
cliff2
 10
450593.485192029
 20
6466856.54259601
  0
VERTEX
  8
cliff2
 10
450596.114807971
 20
6466857.85740399
  0
SEQEND
  0
POLYLINE
 66
1
  8
cliff2
  0
VERTEX
  8
cliff2
 10
450594.859309592
 20
6466858.41975498
  0
VERTEX
  8
cliff2
 10
450596.340690408
 20
6466855.88024502
  0
SEQEND
  0
POLYLINE
 66
1
  8
cliff2
  0
VERTEX
  8
cliff2
 10
450594.572793567
 20
6466858.50026312
  0
VERTEX
  8
cliff2
 10
450596.727206433
 20
6466856.49973688
  0
SEQEND
  0
POLYLINE
 66
1
  8
cliff2
  0
VERTEX
  8
cliff2
 10
450596.002368168
 20
6466849.90546444
  0
VERTEX
  8
cliff2
 10
450598.897631831
 20
6466849.39453556
  0
SEQEND
  0
POLYLINE
 66
1
  8
cliff2
  0
VERTEX
  8
cliff2
 10
450601.570714719
 20
6466845.64107107
  0
VERTEX
  8
cliff2
 10
450603.829285281
 20
6466843.75892893
  0
SEQEND
  0
POLYLINE
 66
1
  8
cliff2
  0
VERTEX
  8
cliff2
 10
450602.842596014
 20
6466844.86480797
  0
VERTEX
  8
cliff2
 10
450604.157403986
 20
6466842.23519203
  0
SEQEND
  0
POLYLINE
 66
1
  8
cliff2
  0
VERTEX
  8
cliff2
 10
450603.41766894
 20
6466844.75864848
  0
VERTEX
  8
cliff2
 10
450603.78233106
 20
6466841.84135152
  0
SEQEND
  0
POLYLINE
 66
1
  8
cliff2
  0
VERTEX
  8
cliff2
 10
450602.88384854
 20
6466844.97640389
  0
VERTEX
  8
cliff2
 10
450603.91615146
 20
6466842.22359611
  0
SEQEND
  0
POLYLINE
 66
1
  8
cliff2
  0
VERTEX
  8
cliff2
 10
450600.994606541
 20
6466981.07758031
  0
VERTEX
  8
cliff2
 10
450603.005393459
 20
6466983.22241969
  0
SEQEND
  0
POLYLINE
 66
1
  8
cliff2
  0
VERTEX
  8
cliff2
 10
450601.282536671
 20
6466982.16367863
  0
VERTEX
  8
cliff2
 10
450604.217463329
 20
6466982.33632137
  0
SEQEND
  0
POLYLINE
 66
1
  8
cliff2
  0
VERTEX
  8
cliff2
 10
450600.238658371
 20
6466981.26720263
  0
VERTEX
  8
cliff2
 10
450602.661341629
 20
6466982.93279737
  0
SEQEND
  0
POLYLINE
 66
1
  8
cliff2
  0
VERTEX
  8
cliff2
 10
450604.494774244
 20
6466817.35788939
  0
VERTEX
  8
cliff2
 10
450607.405225756
 20
6466816.94211061
  0
SEQEND
  0
POLYLINE
 66
1
  8
cliff2
  0
VERTEX
  8
cliff2
 10
450606.326475939
 20
6466818.3529064
  0
VERTEX
  8
cliff2
 10
450606.773524061
 20
6466815.44709361
  0
SEQEND
  0
POLYLINE
 66
1
  8
cliff2
  0
VERTEX
  8
cliff2
 10
450604.43
 20
6466817.55
  0
VERTEX
  8
cliff2
 10
450607.37
 20
6466817.55
  0
SEQEND
  0
POLYLINE
 66
1
  8
cliff2
  0
VERTEX
  8
cliff2
 10
450604.659309592
 20
6466818.41975498
  0
VERTEX
  8
cliff2
 10
450606.140690408
 20
6466815.88024502
  0
SEQEND
  0
POLYLINE
 66
1
  8
cliff2
  0
VERTEX
  8
cliff2
 10
450603.713261331
 20
6466842.35862252
  0
VERTEX
  8
cliff2
 10
450605.386738669
 20
6466839.94137748
  0
SEQEND
  0
POLYLINE
 66
1
  8
cliff2
  0
VERTEX
  8
cliff2
 10
450603.310553032
 20
6466842.18944697
  0
VERTEX
  8
cliff2
 10
450605.389446968
 20
6466840.11055303
  0
SEQEND
  0
POLYLINE
 66
1
  8
cliff2
  0
VERTEX
  8
cliff2
 10
450604.217668941
 20
6466842.95864848
  0
VERTEX
  8
cliff2
 10
450604.582331059
 20
6466840.04135152
  0
SEQEND
  0
POLYLINE
 66
1
  8
cliff2
  0
VERTEX
  8
cliff2
 10
450604.395266837
 20
6466843.01626429
  0
VERTEX
  8
cliff2
 10
450604.604733163
 20
6466840.08373571
  0
SEQEND
  0
POLYLINE
 66
1
  8
cliff2
  0
VERTEX
  8
cliff2
 10
450604.55
 20
6466844.97
  0
VERTEX
  8
cliff2
 10
450604.55
 20
6466842.03
  0
SEQEND
  0
POLYLINE
 66
1
  8
cliff2
  0
VERTEX
  8
cliff2
 10
450602.602941177
 20
6466981.65823529
  0
VERTEX
  8
cliff2
 10
450605.197058824
 20
6466983.04176471
  0
SEQEND
  0
POLYLINE
 66
1
  8
cliff2
  0
VERTEX
  8
cliff2
 10
450603.423682581
 20
6466983.02932424
  0
VERTEX
  8
cliff2
 10
450605.976317419
 20
6466981.57067576
  0
SEQEND
  0
POLYLINE
 66
1
  8
cliff2
  0
VERTEX
  8
cliff2
 10
450606.706684796
 20
6466813.93361659
  0
VERTEX
  8
cliff2
 10
450608.693315204
 20
6466811.76638341
  0
SEQEND
  0
POLYLINE
 66
1
  8
cliff2
  0
VERTEX
  8
cliff2
 10
450610.076886068
 20
6466670.81540929
  0
VERTEX
  8
cliff2
 10
450612.523113932
 20
6466669.18459071
  0
SEQEND
  0
POLYLINE
 66
1
  8
cliff2
  0
VERTEX
  8
cliff2
 10
450609.10630876
 20
6466900.0894854
  0
VERTEX
  8
cliff2
 10
450607.59369124
 20
6466902.6105146
  0
SEQEND
  0
POLYLINE
 66
1
  8
cliff2
  0
VERTEX
  8
cliff2
 10
450609.954270923
 20
6466900.45701035
  0
VERTEX
  8
cliff2
 10
450607.545729077
 20
6466902.14298965
  0
SEQEND
  0
POLYLINE
 66
1
  8
cliff2
  0
VERTEX
  8
cliff2
 10
450612.37
 20
6466900.15
  0
VERTEX
  8
cliff2
 10
450609.43
 20
6466900.15
  0
SEQEND
  0
POLYLINE
 66
1
  8
cliff2
  0
VERTEX
  8
cliff2
 10
450611.187665656
 20
6466902.61100909
  0
VERTEX
  8
cliff2
 10
450611.512334344
 20
6466899.68899091
  0
SEQEND
  0
POLYLINE
 66
1
  8
cliff2
  0
VERTEX
  8
cliff2
 10
450612.114854816
 20
6466902.24456445
  0
VERTEX
  8
cliff2
 10
450611.185145184
 20
6466899.45543555
  0
SEQEND
  0
POLYLINE
 66
1
  8
cliff2
  0
VERTEX
  8
cliff2
 10
450611.641453593
 20
6466899.71170928
  0
VERTEX
  8
cliff2
 10
450608.758546407
 20
6466900.28829072
  0
SEQEND
  0
POLYLINE
 66
1
  8
cliff2
  0
VERTEX
  8
cliff2
 10
450610.86270467
 20
6466899.75372953
  0
VERTEX
  8
cliff2
 10
450607.93729533
 20
6466900.04627047
  0
SEQEND
  0
POLYLINE
 66
1
  8
cliff2
  0
VERTEX
  8
cliff2
 10
450611.063217414
 20
6466904.46820282
  0
VERTEX
  8
cliff2
 10
450611.836782586
 20
6466901.63179718
  0
SEQEND
  0
POLYLINE
 66
1
  8
cliff2
  0
VERTEX
  8
cliff2
 10
450610.243472631
 20
6466906.37610947
  0
VERTEX
  8
cliff2
 10
450610.956527369
 20
6466903.52389052
  0
SEQEND
  0
POLYLINE
 66
1
  8
cliff2
  0
VERTEX
  8
cliff2
 10
450616.27
 20
6466915.6
  0
VERTEX
  8
cliff2
 10
450613.33
 20
6466915.6
  0
SEQEND
  0
POLYLINE
 66
1
  8
cliff2
  0
VERTEX
  8
cliff2
 10
450615.484168131
 20
6466914.85142062
  0
VERTEX
  8
cliff2
 10
450613.015831869
 20
6466916.44857938
  0
SEQEND
  0
POLYLINE
 66
1
  8
cliff2
  0
VERTEX
  8
cliff2
 10
450614.484168131
 20
6466914.75142062
  0
VERTEX
  8
cliff2
 10
450612.015831869
 20
6466916.34857938
  0
SEQEND
  0
POLYLINE
 66
1
  8
cliff2
  0
VERTEX
  8
cliff2
 10
450613.500829787
 20
6466914.86535274
  0
VERTEX
  8
cliff2
 10
450610.899170213
 20
6466916.23464726
  0
SEQEND
  0
POLYLINE
 66
1
  8
cliff2
  0
VERTEX
  8
cliff2
 10
450614.567202631
 20
6466960.66134163
  0
VERTEX
  8
cliff2
 10
450616.232797369
 20
6466958.23865837
  0
SEQEND
  0
POLYLINE
 66
1
  8
cliff2
  0
VERTEX
  8
cliff2
 10
450614.85307326
 20
6466960.94429252
  0
VERTEX
  8
cliff2
 10
450616.24692674
 20
6466958.35570748
  0
SEQEND
  0
POLYLINE
 66
1
  8
cliff2
  0
VERTEX
  8
cliff2
 10
450613.679634639
 20
6466960.4287641
  0
VERTEX
  8
cliff2
 10
450616.520365361
 20
6466959.6712359
  0
SEQEND
  0
POLYLINE
 66
1
  8
cliff2
  0
VERTEX
  8
cliff2
 10
450614.511709281
 20
6466962.14145359
  0
VERTEX
  8
cliff2
 10
450615.088290719
 20
6466959.25854641
  0
SEQEND
  0
POLYLINE
 66
1
  8
cliff2
  0
VERTEX
  8
cliff2
 10
450616.239732713
 20
6466811.0352155
  0
VERTEX
  8
cliff2
 10
450619.060267287
 20
6466811.8647845
  0
SEQEND
  0
POLYLINE
 66
1
  8
cliff2
  0
VERTEX
  8
cliff2
 10
450616.382031791
 20
6466811.47273851
  0
VERTEX
  8
cliff2
 10
450619.317968209
 20
6466811.62726148
  0
SEQEND
  0
POLYLINE
 66
1
  8
cliff2
  0
VERTEX
  8
cliff2
 10
450615.882263281
 20
6466811.48154093
  0
VERTEX
  8
cliff2
 10
450618.817736719
 20
6466811.31845907
  0
SEQEND
  0
POLYLINE
 66
1
  8
cliff2
  0
VERTEX
  8
cliff2
 10
450615.805177885
 20
6466811.77090415
  0
VERTEX
  8
cliff2
 10
450618.694822115
 20
6466811.22909585
  0
SEQEND
  0
POLYLINE
 66
1
  8
cliff2
  0
VERTEX
  8
cliff2
 10
450616.6
 20
6466918.27
  0
VERTEX
  8
cliff2
 10
450616.6
 20
6466915.33
  0
SEQEND
  0
POLYLINE
 66
1
  8
cliff2
  0
VERTEX
  8
cliff2
 10
450616.153729532
 20
6466918.31270467
  0
VERTEX
  8
cliff2
 10
450616.446270468
 20
6466915.38729533
  0
SEQEND
  0
POLYLINE
 66
1
  8
cliff2
  0
VERTEX
  8
cliff2
 10
450614.612288092
 20
6466960.43882901
  0
VERTEX
  8
cliff2
 10
450616.787711908
 20
6466958.46117099
  0
SEQEND
  0
POLYLINE
 66
1
  8
cliff2
  0
VERTEX
  8
cliff2
 10
450619.822583806
 20
6466924.55226165
  0
VERTEX
  8
cliff2
 10
450617.877416193
 20
6466922.34773835
  0
SEQEND
  0
POLYLINE
 66
1
  8
cliff2
  0
VERTEX
  8
cliff2
 10
450619.768001774
 20
6466924.60628774
  0
VERTEX
  8
cliff2
 10
450617.831998226
 20
6466922.39371226
  0
SEQEND
  0
POLYLINE
 66
1
  8
cliff2
  0
VERTEX
  8
cliff2
 10
450617.881387447
 20
6466958.71385272
  0
VERTEX
  8
cliff2
 10
450620.818612553
 20
6466958.58614728
  0
SEQEND
  0
POLYLINE
 66
1
  8
cliff2
  0
VERTEX
  8
cliff2
 10
450618.657131312
 20
6466959.2349697
  0
VERTEX
  8
cliff2
 10
450621.142868688
 20
6466957.6650303
  0
SEQEND
  0
POLYLINE
 66
1
  8
cliff2
  0
VERTEX
  8
cliff2
 10
450617.882263281
 20
6466958.48154093
  0
VERTEX
  8
cliff2
 10
450620.817736719
 20
6466958.31845907
  0
SEQEND
  0
POLYLINE
 66
1
  8
cliff2
  0
VERTEX
  8
cliff2
 10
450618.123890525
 20
6466958.85652737
  0
VERTEX
  8
cliff2
 10
450620.976109475
 20
6466958.14347263
  0
SEQEND
  0
POLYLINE
 66
1
  8
cliff2
  0
VERTEX
  8
cliff2
 10
450617.02840043
 20
6466957.97589485
  0
VERTEX
  8
cliff2
 10
450619.87159957
 20
6466958.72410515
  0
SEQEND
  0
POLYLINE
 66
1
  8
cliff2
  0
VERTEX
  8
cliff2
 10
450622.031797183
 20
6466589.26321741
  0
VERTEX
  8
cliff2
 10
450624.868202817
 20
6466590.03678259
  0
SEQEND
  0
POLYLINE
 66
1
  8
cliff2
  0
VERTEX
  8
cliff2
 10
450624.45
 20
6466957.77
  0
VERTEX
  8
cliff2
 10
450624.45
 20
6466954.83
  0
SEQEND
  0
POLYLINE
 66
1
  8
cliff2
  0
VERTEX
  8
cliff2
 10
450626.027261484
 20
6466954.51796821
  0
VERTEX
  8
cliff2
 10
450625.872738516
 20
6466951.58203179
  0
SEQEND
  0
POLYLINE
 66
1
  8
cliff2
  0
VERTEX
  8
cliff2
 10
450623.998233482
 20
6466955.79266311
  0
VERTEX
  8
cliff2
 10
450626.801766518
 20
6466954.90733689
  0
SEQEND
  0
POLYLINE
 66
1
  8
cliff2
  0
VERTEX
  8
cliff2
 10
450629.787665656
 20
6466815.11100909
  0
VERTEX
  8
cliff2
 10
450630.112334344
 20
6466812.18899091
  0
SEQEND
  0
POLYLINE
 66
1
  8
cliff2
  0
VERTEX
  8
cliff2
 10
450630.277598607
 20
6466603.15800464
  0
VERTEX
  8
cliff2
 10
450631.122401393
 20
6466600.34199536
  0
SEQEND
  0
POLYLINE
 66
1
  8
cliff2
  0
VERTEX
  8
cliff2
 10
450635.85630876
 20
6466493.7394854
  0
VERTEX
  8
cliff2
 10
450634.34369124
 20
6466496.2605146
  0
SEQEND
  0
POLYLINE
 66
1
  8
cliff2
  0
VERTEX
  8
cliff2
 10
450632.739732713
 20
6466811.1352155
  0
VERTEX
  8
cliff2
 10
450635.560267287
 20
6466811.9647845
  0
SEQEND
  0
POLYLINE
 66
1
  8
cliff2
  0
VERTEX
  8
cliff2
 10
450633.169076763
 20
6466811.88668782
  0
VERTEX
  8
cliff2
 10
450636.030923237
 20
6466811.21331218
  0
SEQEND
  0
POLYLINE
 66
1
  8
cliff2
  0
VERTEX
  8
cliff2
 10
450634.246914432
 20
6466810.96153576
  0
VERTEX
  8
cliff2
 10
450637.053085568
 20
6466811.83846424
  0
SEQEND
  0
POLYLINE
 66
1
  8
cliff2
  0
VERTEX
  8
cliff2
 10
450634.261531816
 20
6466811.24716459
  0
VERTEX
  8
cliff2
 10
450637.138468184
 20
6466811.85283541
  0
SEQEND
  0
POLYLINE
 66
1
  8
cliff2
  0
VERTEX
  8
cliff2
 10
450637.47067576
 20
6466755.77631742
  0
VERTEX
  8
cliff2
 10
450638.92932424
 20
6466753.22368258
  0
SEQEND
  0
POLYLINE
 66
1
  8
cliff2
  0
VERTEX
  8
cliff2
 10
450637.853729532
 20
6466755.61270467
  0
VERTEX
  8
cliff2
 10
450638.146270468
 20
6466752.68729533
  0
SEQEND
  0
POLYLINE
 66
1
  8
cliff2
  0
VERTEX
  8
cliff2
 10
450635.43
 20
6466811.75
  0
VERTEX
  8
cliff2
 10
450638.37
 20
6466811.75
  0
SEQEND
  0
POLYLINE
 66
1
  8
cliff2
  0
VERTEX
  8
cliff2
 10
450636.13
 20
6466811.85
  0
VERTEX
  8
cliff2
 10
450639.07
 20
6466811.85
  0
SEQEND
  0
POLYLINE
 66
1
  8
cliff2
  0
VERTEX
  8
cliff2
 10
450640.588842044
 20
6466695.9146124
  0
VERTEX
  8
cliff2
 10
450638.211157956
 20
6466694.1853876
  0
SEQEND
  0
POLYLINE
 66
1
  8
cliff2
  0
VERTEX
  8
cliff2
 10
450639.735192029
 20
6466811.14259601
  0
VERTEX
  8
cliff2
 10
450642.364807971
 20
6466812.45740398
  0
SEQEND
  0
POLYLINE
 66
1
  8
cliff2
  0
VERTEX
  8
cliff2
 10
450640.548062274
 20
6466812.52042322
  0
VERTEX
  8
cliff2
 10
450643.051937726
 20
6466810.97957678
  0
SEQEND
  0
POLYLINE
 66
1
  8
cliff2
  0
VERTEX
  8
cliff2
 10
450639.023596109
 20
6466812.21615146
  0
VERTEX
  8
cliff2
 10
450641.776403891
 20
6466811.18384854
  0
SEQEND
  0
POLYLINE
 66
1
  8
cliff2
  0
VERTEX
  8
cliff2
 10
450637.83899091
 20
6466811.63766566
  0
VERTEX
  8
cliff2
 10
450640.76100909
 20
6466811.96233434
  0
SEQEND
  0
POLYLINE
 66
1
  8
cliff2
  0
VERTEX
  8
cliff2
 10
450640.947093604
 20
6466503.37352406
  0
VERTEX
  8
cliff2
 10
450643.852906396
 20
6466502.92647594
  0
SEQEND
  0
POLYLINE
 66
1
  8
cliff2
  0
VERTEX
  8
cliff2
 10
450644.322076856
 20
6466530.61492226
  0
VERTEX
  8
cliff2
 10
450644.077923144
 20
6466527.68507774
  0
SEQEND
  0
POLYLINE
 66
1
  8
cliff2
  0
VERTEX
  8
cliff2
 10
450644.730923237
 20
6466814.58668782
  0
VERTEX
  8
cliff2
 10
450641.869076763
 20
6466813.91331218
  0
SEQEND
  0
POLYLINE
 66
1
  8
cliff2
  0
VERTEX
  8
cliff2
 10
450642.5
 20
6466813.63
  0
VERTEX
  8
cliff2
 10
450642.5
 20
6466816.57
  0
SEQEND
  0
POLYLINE
 66
1
  8
cliff2
  0
VERTEX
  8
cliff2
 10
450642.25
 20
6466813.63
  0
VERTEX
  8
cliff2
 10
450642.25
 20
6466816.57
  0
SEQEND
  0
POLYLINE
 66
1
  8
cliff2
  0
VERTEX
  8
cliff2
 10
450646.116912454
 20
6466514.71396301
  0
VERTEX
  8
cliff2
 10
450646.383087546
 20
6466511.78603699
  0
SEQEND
  0
POLYLINE
 66
1
  8
cliff2
  0
VERTEX
  8
cliff2
 10
450643.78286271
 20
6466818.20830392
  0
VERTEX
  8
cliff2
 10
450646.71713729
 20
6466818.39169608
  0
SEQEND
  0
POLYLINE
 66
1
  8
cliff2
  0
VERTEX
  8
cliff2
 10
450650.617693802
 20
6466819.40499514
  0
VERTEX
  8
cliff2
 10
450651.482306198
 20
6466816.59500486
  0
SEQEND
  0
POLYLINE
 66
1
  8
cliff2
  0
VERTEX
  8
cliff2
 10
450647.456697024
 20
6466818.20297646
  0
VERTEX
  8
cliff2
 10
450650.143302977
 20
6466819.39702355
  0
SEQEND
  0
POLYLINE
 66
1
  8
cliff2
  0
VERTEX
  8
cliff2
 10
450649.876886067
 20
6466501.23459071
  0
VERTEX
  8
cliff2
 10
450652.323113933
 20
6466502.86540929
  0
SEQEND
  0
POLYLINE
 66
1
  8
cliff2
  0
VERTEX
  8
cliff2
 10
450650.047093604
 20
6466502.47352406
  0
VERTEX
  8
cliff2
 10
450652.952906396
 20
6466502.02647594
  0
SEQEND
  0
POLYLINE
 66
1
  8
cliff2
  0
VERTEX
  8
cliff2
 10
450655.503248718
 20
6466691.58920369
  0
VERTEX
  8
cliff2
 10
450658.196751282
 20
6466690.41079631
  0
SEQEND
  0
POLYLINE
 66
1
  8
cliff2
  0
VERTEX
  8
cliff2
 10
450660.357403986
 20
6466497.91480797
  0
VERTEX
  8
cliff2
 10
450659.042596014
 20
6466495.28519203
  0
SEQEND
  0
POLYLINE
 66
1
  8
cliff2
  0
VERTEX
  8
cliff2
 10
450659.647782946
 20
6466497.81674418
  0
VERTEX
  8
cliff2
 10
450659.452217054
 20
6466494.88325582
  0
SEQEND
  0
POLYLINE
 66
1
  8
cliff2
  0
VERTEX
  8
cliff2
 10
450655.86563939
 20
6466691.9944145
  0
VERTEX
  8
cliff2
 10
450658.63436061
 20
6466691.0055855
  0
SEQEND
  0
POLYLINE
 66
1
  8
cliff2
  0
VERTEX
  8
cliff2
 10
450656.303811797
 20
6466692.35442015
  0
VERTEX
  8
cliff2
 10
450658.696188203
 20
6466690.64557985
  0
SEQEND
  0
POLYLINE
 66
1
  8
cliff2
  0
VERTEX
  8
cliff2
 10
450656.594112042
 20
6466690.19180232
  0
VERTEX
  8
cliff2
 10
450658.905887958
 20
6466692.00819768
  0
SEQEND
  0
POLYLINE
 66
1
  8
cliff2
  0
VERTEX
  8
cliff2
 10
450657.223596109
 20
6466691.71615146
  0
VERTEX
  8
cliff2
 10
450659.976403891
 20
6466690.68384854
  0
SEQEND
  0
POLYLINE
 66
1
  8
cliff2
  0
VERTEX
  8
cliff2
 10
450659.468783961
 20
6466494.77931598
  0
VERTEX
  8
cliff2
 10
450662.031216039
 20
6466496.22068402
  0
SEQEND
  0
POLYLINE
 66
1
  8
cliff2
  0
VERTEX
  8
cliff2
 10
450662.179576784
 20
6466600.95193772
  0
VERTEX
  8
cliff2
 10
450663.720423216
 20
6466598.44806227
  0
SEQEND
  0
POLYLINE
 66
1
  8
cliff2
  0
VERTEX
  8
cliff2
 10
450660.819974864
 20
6466690.30951783
  0
VERTEX
  8
cliff2
 10
450663.680025136
 20
6466690.99048218
  0
SEQEND
  0
POLYLINE
 66
1
  8
cliff2
  0
VERTEX
  8
cliff2
 10
450663.935145184
 20
6466495.10543555
  0
VERTEX
  8
cliff2
 10
450664.864854816
 20
6466497.89456445
  0
SEQEND
  0
POLYLINE
 66
1
  8
cliff2
  0
VERTEX
  8
cliff2
 10
450663.323682581
 20
6466496.27067576
  0
VERTEX
  8
cliff2
 10
450665.876317419
 20
6466497.72932424
  0
SEQEND
  0
POLYLINE
 66
1
  8
cliff2
  0
VERTEX
  8
cliff2
 10
450664.510553032
 20
6466496.51055303
  0
VERTEX
  8
cliff2
 10
450666.589446968
 20
6466498.58944697
  0
SEQEND
  0
POLYLINE
 66
1
  8
cliff2
  0
VERTEX
  8
cliff2
 10
450665.45
 20
6466496.73
  0
VERTEX
  8
cliff2
 10
450665.45
 20
6466499.67
  0
SEQEND
  0
POLYLINE
 66
1
  8
cliff2
  0
VERTEX
  8
cliff2
 10
450664.704055706
 20
6466497.13513926
  0
VERTEX
  8
cliff2
 10
450665.795944294
 20
6466499.86486074
  0
SEQEND
  0
POLYLINE
 66
1
  8
cliff2
  0
VERTEX
  8
cliff2
 10
450667.482263281
 20
6466498.18154093
  0
VERTEX
  8
cliff2
 10
450670.417736719
 20
6466498.01845907
  0
SEQEND
  0
POLYLINE
 66
1
  8
cliff2
  0
VERTEX
  8
cliff2
 10
450666.506684796
 20
6466500.33361659
  0
VERTEX
  8
cliff2
 10
450668.493315204
 20
6466498.16638341
  0
SEQEND
  0
POLYLINE
 66
1
  8
cliff2
  0
VERTEX
  8
cliff2
 10
450665.317644942
 20
6466499.01945652
  0
VERTEX
  8
cliff2
 10
450668.182355058
 20
6466499.68054347
  0
SEQEND
  0
POLYLINE
 66
1
  8
cliff2
  0
VERTEX
  8
cliff2
 10
450665.297988441
 20
6466499.42073502
  0
VERTEX
  8
cliff2
 10
450668.202011559
 20
6466499.87926498
  0
SEQEND
  0
POLYLINE
 66
1
  8
cliff2
  0
VERTEX
  8
cliff2
 10
450665.15212285
 20
6466498.83169828
  0
VERTEX
  8
cliff2
 10
450667.44787715
 20
6466500.66830172
  0
SEQEND
  0
POLYLINE
 66
1
  8
cliff2
  0
VERTEX
  8
cliff2
 10
450666.766015521
 20
6466711.2652997
  0
VERTEX
  8
cliff2
 10
450665.533984479
 20
6466713.93470029
  0
SEQEND
  0
POLYLINE
 66
1
  8
cliff2
  0
VERTEX
  8
cliff2
 10
450668.308648479
 20
6466712.68233106
  0
VERTEX
  8
cliff2
 10
450665.391351521
 20
6466712.31766894
  0
SEQEND
  0
POLYLINE
 66
1
  8
cliff2
  0
VERTEX
  8
cliff2
 10
450667.814807971
 20
6466711.64259602
  0
VERTEX
  8
cliff2
 10
450665.185192029
 20
6466712.95740399
  0
SEQEND
  0
POLYLINE
 66
1
  8
cliff2
  0
VERTEX
  8
cliff2
 10
450668.226475939
 20
6466826.8529064
  0
VERTEX
  8
cliff2
 10
450668.673524061
 20
6466823.94709361
  0
SEQEND
  0
POLYLINE
 66
1
  8
cliff2
  0
VERTEX
  8
cliff2
 10
450667.341377478
 20
6466497.71326133
  0
VERTEX
  8
cliff2
 10
450669.758622522
 20
6466499.38673867
  0
SEQEND
  0
POLYLINE
 66
1
  8
cliff2
  0
VERTEX
  8
cliff2
 10
450669.600000932
 20
6466497.75833349
  0
VERTEX
  8
cliff2
 10
450672.499999068
 20
6466498.24166651
  0
SEQEND
  0
POLYLINE
 66
1
  8
cliff2
  0
VERTEX
  8
cliff2
 10
450670.591995361
 20
6466654.52240139
  0
VERTEX
  8
cliff2
 10
450673.408004639
 20
6466653.67759861
  0
SEQEND
  0
POLYLINE
 66
1
  8
cliff2
  0
VERTEX
  8
cliff2
 10
450672.462743853
 20
6466695.01567009
  0
VERTEX
  8
cliff2
 10
450672.237256147
 20
6466692.08432991
  0
SEQEND
  0
POLYLINE
 66
1
  8
cliff2
  0
VERTEX
  8
cliff2
 10
450672.326475939
 20
6466698.55290639
  0
VERTEX
  8
cliff2
 10
450672.773524061
 20
6466695.6470936
  0
SEQEND
  0
POLYLINE
 66
1
  8
cliff2
  0
VERTEX
  8
cliff2
 10
450669.385145184
 20
6466825.24456445
  0
VERTEX
  8
cliff2
 10
450670.314854816
 20
6466822.45543555
  0
SEQEND
  0
POLYLINE
 66
1
  8
cliff2
  0
VERTEX
  8
cliff2
 10
450671.097988441
 20
6466497.62073502
  0
VERTEX
  8
cliff2
 10
450674.002011559
 20
6466498.07926498
  0
SEQEND
  0
POLYLINE
 66
1
  8
cliff2
  0
VERTEX
  8
cliff2
 10
450672.546087368
 20
6466498.49050649
  0
VERTEX
  8
cliff2
 10
450673.953912632
 20
6466495.90949351
  0
SEQEND
  0
POLYLINE
 66
1
  8
cliff2
  0
VERTEX
  8
cliff2
 10
450672.569916508
 20
6466654.47592164
  0
VERTEX
  8
cliff2
 10
450675.230083492
 20
6466653.22407836
  0
SEQEND
  0
POLYLINE
 66
1
  8
cliff2
  0
VERTEX
  8
cliff2
 10
450671.061531816
 20
6466653.84716459
  0
VERTEX
  8
cliff2
 10
450673.938468184
 20
6466654.45283541
  0
SEQEND
  0
POLYLINE
 66
1
  8
cliff2
  0
VERTEX
  8
cliff2
 10
450672.866383414
 20
6466691.5933152
  0
VERTEX
  8
cliff2
 10
450675.033616586
 20
6466689.6066848
  0
SEQEND
  0
POLYLINE
 66
1
  8
cliff2
  0
VERTEX
  8
cliff2
 10
450672.517693803
 20
6466693.30499514
  0
VERTEX
  8
cliff2
 10
450673.382306197
 20
6466690.49500486
  0
SEQEND
  0
POLYLINE
 66
1
  8
cliff2
  0
VERTEX
  8
cliff2
 10
450673.045944295
 20
6466695.06486074
  0
VERTEX
  8
cliff2
 10
450671.954055705
 20
6466692.33513926
  0
SEQEND
  0
POLYLINE
 66
1
  8
cliff2
  0
VERTEX
  8
cliff2
 10
450677.580543475
 20
6466674.28235506
  0
VERTEX
  8
cliff2
 10
450676.919456525
 20
6466671.41764494
  0
SEQEND
  0
POLYLINE
 66
1
  8
cliff2
  0
VERTEX
  8
cliff2
 10
450678.882306198
 20
6466672.20499514
  0
VERTEX
  8
cliff2
 10
450678.017693802
 20
6466669.39500486
  0
SEQEND
  0
POLYLINE
 66
1
  8
cliff2
  0
VERTEX
  8
cliff2
 10
450674.017644942
 20
6466674.51945652
  0
VERTEX
  8
cliff2
 10
450676.882355058
 20
6466675.18054347
  0
SEQEND
  0
POLYLINE
 66
1
  8
cliff2
  0
VERTEX
  8
cliff2
 10
450676.835011196
 20
6466675.23610489
  0
VERTEX
  8
cliff2
 10
450674.264988804
 20
6466676.66389511
  0
SEQEND
  0
POLYLINE
 66
1
  8
cliff2
  0
VERTEX
  8
cliff2
 10
450675.245195999
 20
6466822.42044379
  0
VERTEX
  8
cliff2
 10
450677.954804001
 20
6466821.27955621
  0
SEQEND
  0
POLYLINE
 66
1
  8
cliff2
  0
VERTEX
  8
cliff2
 10
450677.446992172
 20
6466653.22534876
  0
VERTEX
  8
cliff2
 10
450679.453007828
 20
6466655.37465124
  0
SEQEND
  0
POLYLINE
 66
1
  8
cliff2
  0
VERTEX
  8
cliff2
 10
450677.584329906
 20
6466670.06274385
  0
VERTEX
  8
cliff2
 10
450680.515670094
 20
6466669.83725615
  0
SEQEND
  0
POLYLINE
 66
1
  8
cliff2
  0
VERTEX
  8
cliff2
 10
450677.755435552
 20
6466821.48514518
  0
VERTEX
  8
cliff2
 10
450680.544564448
 20
6466822.41485482
  0
SEQEND
  0
POLYLINE
 66
1
  8
cliff2
  0
VERTEX
  8
cliff2
 10
450678.136036986
 20
6466822.13308755
  0
VERTEX
  8
cliff2
 10
450681.063963013
 20
6466821.86691245
  0
SEQEND
  0
POLYLINE
 66
1
  8
cliff2
  0
VERTEX
  8
cliff2
 10
450679.291995361
 20
6466822.42240139
  0
VERTEX
  8
cliff2
 10
450682.108004639
 20
6466821.57759861
  0
SEQEND
  0
POLYLINE
 66
1
  8
cliff2
  0
VERTEX
  8
cliff2
 10
450676.232956704
 20
6466821.20468041
  0
VERTEX
  8
cliff2
 10
450678.767043296
 20
6466822.69531959
  0
SEQEND
  0
POLYLINE
 66
1
  8
cliff2
  0
VERTEX
  8
cliff2
 10
450682.239485399
 20
6466493.64369124
  0
VERTEX
  8
cliff2
 10
450684.760514601
 20
6466495.15630876
  0
SEQEND
  0
POLYLINE
 66
1
  8
cliff2
  0
VERTEX
  8
cliff2
 10
450683.410553032
 20
6466495.58944697
  0
VERTEX
  8
cliff2
 10
450685.489446968
 20
6466493.51055303
  0
SEQEND
  0
POLYLINE
 66
1
  8
cliff2
  0
VERTEX
  8
cliff2
 10
450681.596263561
 20
6466494.11806047
  0
VERTEX
  8
cliff2
 10
450684.503736439
 20
6466493.68193953
  0
SEQEND
  0
POLYLINE
 66
1
  8
cliff2
  0
VERTEX
  8
cliff2
 10
450683.927206433
 20
6466821.50026312
  0
VERTEX
  8
cliff2
 10
450681.772793567
 20
6466819.49973688
  0
SEQEND
  0
POLYLINE
 66
1
  8
cliff2
  0
VERTEX
  8
cliff2
 10
450680.376886067
 20
6466821.28459071
  0
VERTEX
  8
cliff2
 10
450682.823113933
 20
6466822.91540929
  0
SEQEND
  0
POLYLINE
 66
1
  8
cliff2
  0
VERTEX
  8
cliff2
 10
450686.58384854
 20
6466495.12640389
  0
VERTEX
  8
cliff2
 10
450687.61615146
 20
6466492.37359611
  0
SEQEND
  0
POLYLINE
 66
1
  8
cliff2
  0
VERTEX
  8
cliff2
 10
450685.495579855
 20
6466492.6538118
  0
VERTEX
  8
cliff2
 10
450687.204420145
 20
6466495.0461882
  0
SEQEND
  0
POLYLINE
 66
1
  8
cliff2
  0
VERTEX
  8
cliff2
 10
450685.699057241
 20
6466493.8977243
  0
VERTEX
  8
cliff2
 10
450688.100942759
 20
6466492.2022757
  0
SEQEND
  0
POLYLINE
 66
1
  8
cliff2
  0
VERTEX
  8
cliff2
 10
450684.697988441
 20
6466492.92073502
  0
VERTEX
  8
cliff2
 10
450687.602011559
 20
6466493.37926498
  0
SEQEND
  0
POLYLINE
 66
1
  8
cliff2
  0
VERTEX
  8
cliff2
 10
450687.420735017
 20
6466494.60201156
  0
VERTEX
  8
cliff2
 10
450687.879264983
 20
6466491.69798844
  0
SEQEND
  0
POLYLINE
 66
1
  8
cliff2
  0
VERTEX
  8
cliff2
 10
450683.945195999
 20
6466493.27955621
  0
VERTEX
  8
cliff2
 10
450686.654804001
 20
6466494.42044379
  0
SEQEND
  0
POLYLINE
 66
1
  8
cliff2
  0
VERTEX
  8
cliff2
 10
450684.310553032
 20
6466494.48944697
  0
VERTEX
  8
cliff2
 10
450686.389446968
 20
6466492.41055303
  0
SEQEND
  0
POLYLINE
 66
1
  8
cliff2
  0
VERTEX
  8
cliff2
 10
450687.217644942
 20
6466655.91945653
  0
VERTEX
  8
cliff2
 10
450690.082355058
 20
6466656.58054347
  0
SEQEND
  0
POLYLINE
 66
1
  8
cliff2
  0
VERTEX
  8
cliff2
 10
450688.653725182
 20
6466655.76515726
  0
VERTEX
  8
cliff2
 10
450690.446274819
 20
6466653.43484274
  0
SEQEND
  0
POLYLINE
 66
1
  8
cliff2
  0
VERTEX
  8
cliff2
 10
450688.596263561
 20
6466654.31806047
  0
VERTEX
  8
cliff2
 10
450691.503736439
 20
6466653.88193953
  0
SEQEND
  0
POLYLINE
 66
1
  8
cliff2
  0
VERTEX
  8
cliff2
 10
450686.296263561
 20
6466655.58193953
  0
VERTEX
  8
cliff2
 10
450689.203736439
 20
6466656.01806047
  0
SEQEND
  0
POLYLINE
 66
1
  8
cliff2
  0
VERTEX
  8
cliff2
 10
450689.95173872
 20
6466653.79812847
  0
VERTEX
  8
cliff2
 10
450692.84826128
 20
6466654.30187153
  0
SEQEND
  0
POLYLINE
 66
1
  8
cliff2
  0
VERTEX
  8
cliff2
 10
450689.548062275
 20
6466655.32042322
  0
VERTEX
  8
cliff2
 10
450692.051937726
 20
6466653.77957678
  0
SEQEND
  0
POLYLINE
 66
1
  8
cliff2
  0
VERTEX
  8
cliff2
 10
450690.693076923
 20
6466654.96538462
  0
VERTEX
  8
cliff2
 10
450693.406923077
 20
6466653.83461539
  0
SEQEND
  0
POLYLINE
 66
1
  8
cliff2
  0
VERTEX
  8
cliff2
 10
450690.148856806
 20
6466653.92093863
  0
VERTEX
  8
cliff2
 10
450692.851143194
 20
6466655.07906137
  0
SEQEND
  0
POLYLINE
 66
1
  8
cliff2
  0
VERTEX
  8
cliff2
 10
450691.460553032
 20
6466655.53944697
  0
VERTEX
  8
cliff2
 10
450693.539446968
 20
6466653.46055303
  0
SEQEND
  0
POLYLINE
 66
1
  8
cliff2
  0
VERTEX
  8
cliff2
 10
450691.061531816
 20
6466653.74716459
  0
VERTEX
  8
cliff2
 10
450693.938468184
 20
6466654.35283541
  0
SEQEND
  0
POLYLINE
 66
1
  8
cliff2
  0
VERTEX
  8
cliff2
 10
450695.735215504
 20
6466491.56026729
  0
VERTEX
  8
cliff2
 10
450696.564784496
 20
6466488.73973271
  0
SEQEND
  0
POLYLINE
 66
1
  8
cliff2
  0
VERTEX
  8
cliff2
 10
450693.83
 20
6466490.5
  0
VERTEX
  8
cliff2
 10
450696.77
 20
6466490.5
  0
SEQEND
  0
POLYLINE
 66
1
  8
cliff2
  0
VERTEX
  8
cliff2
 10
450695.342596015
 20
6466491.91480797
  0
VERTEX
  8
cliff2
 10
450696.657403985
 20
6466489.28519203
  0
SEQEND
  0
POLYLINE
 66
1
  8
cliff2
  0
VERTEX
  8
cliff2
 10
450693.869916508
 20
6466653.52407836
  0
VERTEX
  8
cliff2
 10
450696.530083492
 20
6466654.77592164
  0
SEQEND
  0
POLYLINE
 66
1
  8
cliff2
  0
VERTEX
  8
cliff2
 10
450692.994774244
 20
6466654.04211061
  0
VERTEX
  8
cliff2
 10
450695.905225756
 20
6466654.45788939
  0
SEQEND
  0
POLYLINE
 66
1
  8
cliff2
  0
VERTEX
  8
cliff2
 10
450694.139732713
 20
6466654.1352155
  0
VERTEX
  8
cliff2
 10
450696.960267287
 20
6466654.9647845
  0
SEQEND
  0
POLYLINE
 66
1
  8
cliff2
  0
VERTEX
  8
cliff2
 10
450693.979953133
 20
6466767.632796
  0
VERTEX
  8
cliff2
 10
450696.720046867
 20
6466766.567204
  0
SEQEND
  0
POLYLINE
 66
1
  8
cliff2
  0
VERTEX
  8
cliff2
 10
450696.665299705
 20
6466132.63398448
  0
VERTEX
  8
cliff2
 10
450699.334700295
 20
6466133.86601552
  0
SEQEND
  0
POLYLINE
 66
1
  8
cliff2
  0
VERTEX
  8
cliff2
 10
450695.374
 20
6466490.682
  0
VERTEX
  8
cliff2
 10
450697.726
 20
6466488.918
  0
SEQEND
  0
POLYLINE
 66
1
  8
cliff2
  0
VERTEX
  8
cliff2
 10
450696.505435552
 20
6466490.36485482
  0
VERTEX
  8
cliff2
 10
450699.294564448
 20
6466489.43514518
  0
SEQEND
  0
POLYLINE
 66
1
  8
cliff2
  0
VERTEX
  8
cliff2
 10
450695.994606541
 20
6466490.52241969
  0
VERTEX
  8
cliff2
 10
450698.005393459
 20
6466488.37758031
  0
SEQEND
  0
POLYLINE
 66
1
  8
cliff2
  0
VERTEX
  8
cliff2
 10
450696.716554702
 20
6466489.52578302
  0
VERTEX
  8
cliff2
 10
450699.583445298
 20
6466488.87421698
  0
SEQEND
  0
POLYLINE
 66
1
  8
cliff2
  0
VERTEX
  8
cliff2
 10
450697.133628673
 20
6466489.79343648
  0
VERTEX
  8
cliff2
 10
450699.966371327
 20
6466489.00656352
  0
SEQEND
  0
POLYLINE
 66
1
  8
cliff2
  0
VERTEX
  8
cliff2
 10
450697.81766894
 20
6466511.35864848
  0
VERTEX
  8
cliff2
 10
450698.18233106
 20
6466508.44135152
  0
SEQEND
  0
POLYLINE
 66
1
  8
cliff2
  0
VERTEX
  8
cliff2
 10
450697.482031791
 20
6466654.22726149
  0
VERTEX
  8
cliff2
 10
450700.417968209
 20
6466654.07273852
  0
SEQEND
  0
POLYLINE
 66
1
  8
cliff2
  0
VERTEX
  8
cliff2
 10
450694.961531816
 20
6466654.14716459
  0
VERTEX
  8
cliff2
 10
450697.838468184
 20
6466654.75283541
  0
SEQEND
  0
POLYLINE
 66
1
  8
cliff2
  0
VERTEX
  8
cliff2
 10
450695.123596109
 20
6466654.08384854
  0
VERTEX
  8
cliff2
 10
450697.876403891
 20
6466655.11615146
  0
SEQEND
  0
POLYLINE
 66
1
  8
cliff2
  0
VERTEX
  8
cliff2
 10
450697.160553032
 20
6466653.66055303
  0
VERTEX
  8
cliff2
 10
450699.239446968
 20
6466655.73944697
  0
SEQEND
  0
POLYLINE
 66
1
  8
cliff2
  0
VERTEX
  8
cliff2
 10
450697.458546407
 20
6466654.88829072
  0
VERTEX
  8
cliff2
 10
450700.341453593
 20
6466654.31170928
  0
SEQEND
  0
POLYLINE
 66
1
  8
cliff2
  0
VERTEX
  8
cliff2
 10
450694.577981959
 20
6466766.82230075
  0
VERTEX
  8
cliff2
 10
450697.322018041
 20
6466767.87769925
  0
SEQEND
  0
POLYLINE
 66
1
  8
cliff2
  0
VERTEX
  8
cliff2
 10
450699.769076763
 20
6466487.98668782
  0
VERTEX
  8
cliff2
 10
450702.630923237
 20
6466487.31331218
  0
SEQEND
  0
POLYLINE
 66
1
  8
cliff2
  0
VERTEX
  8
cliff2
 10
450700.244774244
 20
6466510.59211061
  0
VERTEX
  8
cliff2
 10
450703.155225756
 20
6466511.00788939
  0
SEQEND
  0
POLYLINE
 66
1
  8
cliff2
  0
VERTEX
  8
cliff2
 10
450698.934590712
 20
6466508.77688607
  0
VERTEX
  8
cliff2
 10
450700.565409288
 20
6466511.22311393
  0
SEQEND
  0
POLYLINE
 66
1
  8
cliff2
  0
VERTEX
  8
cliff2
 10
450698.881834062
 20
6466654.0734083
  0
VERTEX
  8
cliff2
 10
450701.818165938
 20
6466653.9265917
  0
SEQEND
  0
POLYLINE
 66
1
  8
cliff2
  0
VERTEX
  8
cliff2
 10
450699.084590712
 20
6466653.27688607
  0
VERTEX
  8
cliff2
 10
450700.715409288
 20
6466655.72311393
  0
SEQEND
  0
POLYLINE
 66
1
  8
cliff2
  0
VERTEX
  8
cliff2
 10
450699.218503668
 20
6466653.9476377
  0
VERTEX
  8
cliff2
 10
450701.981496332
 20
6466654.9523623
  0
SEQEND
  0
POLYLINE
 66
1
  8
cliff2
  0
VERTEX
  8
cliff2
 10
450703.742596015
 20
6466488.51480797
  0
VERTEX
  8
cliff2
 10
450705.057403985
 20
6466485.88519203
  0
SEQEND
  0
POLYLINE
 66
1
  8
cliff2
  0
VERTEX
  8
cliff2
 10
450701.782293985
 20
6466486.75704834
  0
VERTEX
  8
cliff2
 10
450704.117706014
 20
6466488.54295166
  0
SEQEND
  0
POLYLINE
 66
1
  8
cliff2
  0
VERTEX
  8
cliff2
 10
450702.183255818
 20
6466487.64778295
  0
VERTEX
  8
cliff2
 10
450705.116744182
 20
6466487.45221705
  0
SEQEND
  0
POLYLINE
 66
1
  8
cliff2
  0
VERTEX
  8
cliff2
 10
450700.417910784
 20
6466487.12835837
  0
VERTEX
  8
cliff2
 10
450703.082089216
 20
6466488.37164163
  0
SEQEND
  0
POLYLINE
 66
1
  8
cliff2
  0
VERTEX
  8
cliff2
 10
450702.770714719
 20
6466511.64107107
  0
VERTEX
  8
cliff2
 10
450705.029285281
 20
6466509.75892893
  0
SEQEND
  0
POLYLINE
 66
1
  8
cliff2
  0
VERTEX
  8
cliff2
 10
450701.795004857
 20
6466510.3176938
  0
VERTEX
  8
cliff2
 10
450704.604995143
 20
6466511.1823062
  0
SEQEND
  0
POLYLINE
 66
1
  8
cliff2
  0
VERTEX
  8
cliff2
 10
450703.656697023
 20
6466654.09702354
  0
VERTEX
  8
cliff2
 10
450706.343302977
 20
6466652.90297646
  0
SEQEND
  0
POLYLINE
 66
1
  8
cliff2
  0
VERTEX
  8
cliff2
 10
450705.352362302
 20
6466655.98149633
  0
VERTEX
  8
cliff2
 10
450704.347637698
 20
6466653.21850367
  0
SEQEND
  0
POLYLINE
 66
1
  8
cliff2
  0
VERTEX
  8
cliff2
 10
450700.683848541
 20
6466653.32359611
  0
VERTEX
  8
cliff2
 10
450701.716151459
 20
6466656.07640389
  0
SEQEND
  0
POLYLINE
 66
1
  8
cliff2
  0
VERTEX
  8
cliff2
 10
450705.981834062
 20
6466653.3734083
  0
VERTEX
  8
cliff2
 10
450708.918165938
 20
6466653.2265917
  0
SEQEND
  0
POLYLINE
 66
1
  8
cliff2
  0
VERTEX
  8
cliff2
 10
450704.744774244
 20
6466652.99211061
  0
VERTEX
  8
cliff2
 10
450707.655225756
 20
6466653.40788939
  0
SEQEND
  0
POLYLINE
 66
1
  8
cliff2
  0
VERTEX
  8
cliff2
 10
450704.881834062
 20
6466653.5734083
  0
VERTEX
  8
cliff2
 10
450707.818165938
 20
6466653.4265917
  0
SEQEND
  0
POLYLINE
 66
1
  8
cliff2
  0
VERTEX
  8
cliff2
 10
450703.881834062
 20
6466653.4734083
  0
VERTEX
  8
cliff2
 10
450706.818165938
 20
6466653.3265917
  0
SEQEND
  0
POLYLINE
 66
1
  8
cliff2
  0
VERTEX
  8
cliff2
 10
450710.414807971
 20
6466652.25740398
  0
VERTEX
  8
cliff2
 10
450707.785192029
 20
6466650.94259601
  0
SEQEND
  0
POLYLINE
 66
1
  8
cliff2
  0
VERTEX
  8
cliff2
 10
450708.584590712
 20
6466653.82311393
  0
VERTEX
  8
cliff2
 10
450710.215409288
 20
6466651.37688607
  0
SEQEND
  0
POLYLINE
 66
1
  8
cliff2
  0
VERTEX
  8
cliff2
 10
450708.767202631
 20
6466653.96134163
  0
VERTEX
  8
cliff2
 10
450710.432797369
 20
6466651.53865837
  0
SEQEND
  0
POLYLINE
 66
1
  8
cliff2
  0
VERTEX
  8
cliff2
 10
450709.457403985
 20
6466652.61480797
  0
VERTEX
  8
cliff2
 10
450708.142596015
 20
6466649.98519203
  0
SEQEND
  0
POLYLINE
 66
1
  8
cliff2
  0
VERTEX
  8
cliff2
 10
450706.668783961
 20
6466652.77931598
  0
VERTEX
  8
cliff2
 10
450709.23121604
 20
6466654.22068402
  0
SEQEND
  0
POLYLINE
 66
1
  8
cliff2
  0
VERTEX
  8
cliff2
 10
450707.805435552
 20
6466654.46485482
  0
VERTEX
  8
cliff2
 10
450710.594564448
 20
6466653.53514518
  0
SEQEND
  0
POLYLINE
 66
1
  8
cliff2
  0
VERTEX
  8
cliff2
 10
450711.96563939
 20
6466484.6944145
  0
VERTEX
  8
cliff2
 10
450714.73436061
 20
6466483.7055855
  0
SEQEND
  0
POLYLINE
 66
1
  8
cliff2
  0
VERTEX
  8
cliff2
 10
450713.305585496
 20
6466485.13436061
  0
VERTEX
  8
cliff2
 10
450714.294414504
 20
6466482.36563939
  0
SEQEND
  0
POLYLINE
 66
1
  8
cliff2
  0
VERTEX
  8
cliff2
 10
450711.302368169
 20
6466484.39453556
  0
VERTEX
  8
cliff2
 10
450714.197631831
 20
6466484.90546444
  0
SEQEND
  0
POLYLINE
 66
1
  8
cliff2
  0
VERTEX
  8
cliff2
 10
450713.277997414
 20
6466648.48343208
  0
VERTEX
  8
cliff2
 10
450715.022002586
 20
6466646.11656792
  0
SEQEND
  0
POLYLINE
 66
1
  8
cliff2
  0
VERTEX
  8
cliff2
 10
450714.332956704
 20
6466646.40468041
  0
VERTEX
  8
cliff2
 10
450716.867043296
 20
6466647.89531959
  0
SEQEND
  0
POLYLINE
 66
1
  8
cliff2
  0
VERTEX
  8
cliff2
 10
450713.45173872
 20
6466647.10187153
  0
VERTEX
  8
cliff2
 10
450716.34826128
 20
6466646.59812847
  0
SEQEND
  0
POLYLINE
 66
1
  8
cliff2
  0
VERTEX
  8
cliff2
 10
450716.745195998
 20
6466481.47955621
  0
VERTEX
  8
cliff2
 10
450719.454804001
 20
6466482.62044379
  0
SEQEND
  0
POLYLINE
 66
1
  8
cliff2
  0
VERTEX
  8
cliff2
 10
450717.465299705
 20
6466482.36601552
  0
VERTEX
  8
cliff2
 10
450720.134700295
 20
6466481.13398448
  0
SEQEND
  0
POLYLINE
 66
1
  8
cliff2
  0
VERTEX
  8
cliff2
 10
450718.223682581
 20
6466480.97067576
  0
VERTEX
  8
cliff2
 10
450720.776317419
 20
6466482.42932424
  0
SEQEND
  0
POLYLINE
 66
1
  8
cliff2
  0
VERTEX
  8
cliff2
 10
450717.738076984
 20
6466481.29611337
  0
VERTEX
  8
cliff2
 10
450720.661923016
 20
6466481.60388663
  0
SEQEND
  0
POLYLINE
 66
1
  8
cliff2
  0
VERTEX
  8
cliff2
 10
450718.82410515
 20
6466647.87159957
  0
VERTEX
  8
cliff2
 10
450718.07589485
 20
6466645.02840043
  0
SEQEND
  0
POLYLINE
 66
1
  8
cliff2
  0
VERTEX
  8
cliff2
 10
450717.842894986
 20
6466645.24428067
  0
VERTEX
  8
cliff2
 10
450720.757105014
 20
6466644.85571933
  0
SEQEND
  0
POLYLINE
 66
1
  8
cliff2
  0
VERTEX
  8
cliff2
 10
450720.353442493
 20
6466645.57909844
  0
VERTEX
  8
cliff2
 10
450722.846557507
 20
6466644.02090156
  0
SEQEND
  0
POLYLINE
 66
1
  8
cliff2
  0
VERTEX
  8
cliff2
 10
450719.469076763
 20
6466644.51331218
  0
VERTEX
  8
cliff2
 10
450722.330923237
 20
6466645.18668782
  0
SEQEND
  0
POLYLINE
 66
1
  8
cliff2
  0
VERTEX
  8
cliff2
 10
450720.735192029
 20
6466644.94259601
  0
VERTEX
  8
cliff2
 10
450723.364807971
 20
6466646.25740398
  0
SEQEND
  0
POLYLINE
 66
1
  8
cliff2
  0
VERTEX
  8
cliff2
 10
450720.457048342
 20
6466644.48229399
  0
VERTEX
  8
cliff2
 10
450722.242951658
 20
6466646.81770601
  0
SEQEND
  0
POLYLINE
 66
1
  8
cliff2
  0
VERTEX
  8
cliff2
 10
450721.834590711
 20
6466644.67688607
  0
VERTEX
  8
cliff2
 10
450723.465409289
 20
6466647.12311393
  0
SEQEND
  0
POLYLINE
 66
1
  8
cliff2
  0
VERTEX
  8
cliff2
 10
450722.158235294
 20
6466643.90294118
  0
VERTEX
  8
cliff2
 10
450723.541764706
 20
6466646.49705882
  0
SEQEND
  0
POLYLINE
 66
1
  8
cliff2
  0
VERTEX
  8
cliff2
 10
450724.496263561
 20
6466479.08193953
  0
VERTEX
  8
cliff2
 10
450727.403736439
 20
6466479.51806047
  0
SEQEND
  0
POLYLINE
 66
1
  8
cliff2
  0
VERTEX
  8
cliff2
 10
450725.457357605
 20
6466479.78337815
  0
VERTEX
  8
cliff2
 10
450727.642642395
 20
6466477.81662184
  0
SEQEND
  0
POLYLINE
 66
1
  8
cliff2
  0
VERTEX
  8
cliff2
 10
450725.279953133
 20
6466478.932796
  0
VERTEX
  8
cliff2
 10
450728.020046867
 20
6466477.867204
  0
SEQEND
  0
POLYLINE
 66
1
  8
cliff2
  0
VERTEX
  8
cliff2
 10
450729.403811797
 20
6466473.84557986
  0
VERTEX
  8
cliff2
 10
450731.796188203
 20
6466475.55442015
  0
SEQEND
  0
POLYLINE
 66
1
  8
cliff2
  0
VERTEX
  8
cliff2
 10
450730.313467641
 20
6466500.39491366
  0
VERTEX
  8
cliff2
 10
450732.786532359
 20
6466498.80508634
  0
SEQEND
  0
POLYLINE
 66
1
  8
cliff2
  0
VERTEX
  8
cliff2
 10
450730.939245573
 20
6466503.98619579
  0
VERTEX
  8
cliff2
 10
450729.960754426
 20
6466501.21380421
  0
SEQEND
  0
POLYLINE
 66
1
  8
cliff2
  0
VERTEX
  8
cliff2
 10
450729.343336681
 20
6466504.61610721
  0
VERTEX
  8
cliff2
 10
450731.256663319
 20
6466502.38389279
  0
SEQEND
  0
POLYLINE
 66
1
  8
cliff2
  0
VERTEX
  8
cliff2
 10
450734.73899091
 20
6466476.13766566
  0
VERTEX
  8
cliff2
 10
450737.66100909
 20
6466476.46233434
  0
SEQEND
  0
POLYLINE
 66
1
  8
cliff2
  0
VERTEX
  8
cliff2
 10
450735.105435552
 20
6466476.46485482
  0
VERTEX
  8
cliff2
 10
450737.894564448
 20
6466475.53514518
  0
SEQEND
  0
POLYLINE
 66
1
  8
cliff2
  0
VERTEX
  8
cliff2
 10
450736.242894986
 20
6466476.24428067
  0
VERTEX
  8
cliff2
 10
450739.157105014
 20
6466475.85571933
  0
SEQEND
  0
POLYLINE
 66
1
  8
cliff2
  0
VERTEX
  8
cliff2
 10
450733.802368169
 20
6466476.10546444
  0
VERTEX
  8
cliff2
 10
450736.697631831
 20
6466475.59453556
  0
SEQEND
  0
POLYLINE
 66
1
  8
cliff2
  0
VERTEX
  8
cliff2
 10
450735.782031791
 20
6466475.42726148
  0
VERTEX
  8
cliff2
 10
450738.717968209
 20
6466475.27273851
  0
SEQEND
  0
POLYLINE
 66
1
  8
cliff2
  0
VERTEX
  8
cliff2
 10
450737.802368169
 20
6466475.70546444
  0
VERTEX
  8
cliff2
 10
450740.697631831
 20
6466475.19453556
  0
SEQEND
  0
POLYLINE
 66
1
  8
cliff2
  0
VERTEX
  8
cliff2
 10
450740.479953133
 20
6466474.332796
  0
VERTEX
  8
cliff2
 10
450743.220046867
 20
6466473.267204
  0
SEQEND
  0
POLYLINE
 66
1
  8
cliff2
  0
VERTEX
  8
cliff2
 10
450739.813550745
 20
6466473.73772842
  0
VERTEX
  8
cliff2
 10
450742.686449255
 20
6466474.36227158
  0
SEQEND
  0
POLYLINE
 66
1
  8
cliff2
  0
VERTEX
  8
cliff2
 10
450741.162528216
 20
6466473.21438488
  0
VERTEX
  8
cliff2
 10
450743.937471784
 20
6466474.18561512
  0
SEQEND
  0
POLYLINE
 66
1
  8
cliff2
  0
VERTEX
  8
cliff2
 10
450742.939137048
 20
6466473.91274789
  0
VERTEX
  8
cliff2
 10
450745.160862952
 20
6466471.98725211
  0
SEQEND
  0
POLYLINE
 66
1
  8
cliff2
  0
VERTEX
  8
cliff2
 10
450743.336621655
 20
6466472.51063063
  0
VERTEX
  8
cliff2
 10
450746.263378345
 20
6466472.78936937
  0
SEQEND
  0
POLYLINE
 66
1
  8
cliff2
  0
VERTEX
  8
cliff2
 10
450750.637665657
 20
6466635.16100909
  0
VERTEX
  8
cliff2
 10
450750.962334344
 20
6466632.23899091
  0
SEQEND
  0
POLYLINE
 66
1
  8
cliff2
  0
VERTEX
  8
cliff2
 10
450750.124078356
 20
6466637.83008349
  0
VERTEX
  8
cliff2
 10
450751.375921644
 20
6466635.16991651
  0
SEQEND
  0
POLYLINE
 66
1
  8
cliff2
  0
VERTEX
  8
cliff2
 10
450746.379634639
 20
6466643.2287641
  0
VERTEX
  8
cliff2
 10
450749.220365361
 20
6466642.4712359
  0
SEQEND
  0
POLYLINE
 66
1
  8
cliff2
  0
VERTEX
  8
cliff2
 10
450747.693076923
 20
6466643.46538462
  0
VERTEX
  8
cliff2
 10
450750.406923077
 20
6466642.33461539
  0
SEQEND
  0
POLYLINE
 66
1
  8
cliff2
  0
VERTEX
  8
cliff2
 10
450753.596113367
 20
6466436.86192302
  0
VERTEX
  8
cliff2
 10
450753.903886633
 20
6466433.93807698
  0
SEQEND
  0
POLYLINE
 66
1
  8
cliff2
  0
VERTEX
  8
cliff2
 10
450750.986559797
 20
6466467.40384006
  0
VERTEX
  8
cliff2
 10
450753.813440203
 20
6466466.59615994
  0
SEQEND
  0
POLYLINE
 66
1
  8
cliff2
  0
VERTEX
  8
cliff2
 10
450751.269076763
 20
6466627.88668782
  0
VERTEX
  8
cliff2
 10
450754.130923237
 20
6466627.21331218
  0
SEQEND
  0
POLYLINE
 66
1
  8
cliff2
  0
VERTEX
  8
cliff2
 10
450752.324
 20
6466628.582
  0
VERTEX
  8
cliff2
 10
450754.676
 20
6466626.818
  0
SEQEND
  0
POLYLINE
 66
1
  8
cliff2
  0
VERTEX
  8
cliff2
 10
450751.138658371
 20
6466628.43279737
  0
VERTEX
  8
cliff2
 10
450753.561341629
 20
6466626.76720263
  0
SEQEND
  0
POLYLINE
 66
1
  8
cliff2
  0
VERTEX
  8
cliff2
 10
450754.284329906
 20
6466427.26274385
  0
VERTEX
  8
cliff2
 10
450757.215670094
 20
6466427.03725615
  0
SEQEND
  0
POLYLINE
 66
1
  8
cliff2
  0
VERTEX
  8
cliff2
 10
450755.37217784
 20
6466436.69953509
  0
VERTEX
  8
cliff2
 10
450753.12782216
 20
6466434.80046491
  0
SEQEND
  0
POLYLINE
 66
1
  8
cliff2
  0
VERTEX
  8
cliff2
 10
450756.17
 20
6466436.2
  0
VERTEX
  8
cliff2
 10
450753.23
 20
6466436.2
  0
SEQEND
  0
POLYLINE
 66
1
  8
cliff2
  0
VERTEX
  8
cliff2
 10
450752.936104891
 20
6466641.5649888
  0
VERTEX
  8
cliff2
 10
450754.363895109
 20
6466644.1350112
  0
SEQEND
  0
POLYLINE
 66
1
  8
cliff2
  0
VERTEX
  8
cliff2
 10
450752.421756634
 20
6466639.44006861
  0
VERTEX
  8
cliff2
 10
450752.078243366
 20
6466642.35993139
  0
SEQEND
  0
POLYLINE
 66
1
  8
cliff2
  0
VERTEX
  8
cliff2
 10
450755.465005022
 20
6466427.11888777
  0
VERTEX
  8
cliff2
 10
450758.334994979
 20
6466426.48111223
  0
SEQEND
  0
POLYLINE
 66
1
  8
cliff2
  0
VERTEX
  8
cliff2
 10
450756.800464905
 20
6466426.02782216
  0
VERTEX
  8
cliff2
 10
450758.699535095
 20
6466428.27217784
  0
SEQEND
  0
POLYLINE
 66
1
  8
cliff2
  0
VERTEX
  8
cliff2
 10
450758.926475939
 20
6466460.55290639
  0
VERTEX
  8
cliff2
 10
450759.373524061
 20
6466457.6470936
  0
SEQEND
  0
POLYLINE
 66
1
  8
cliff2
  0
VERTEX
  8
cliff2
 10
450759.217693802
 20
6466387.90499514
  0
VERTEX
  8
cliff2
 10
450760.082306198
 20
6466385.09500486
  0
SEQEND
  0
POLYLINE
 66
1
  8
cliff2
  0
VERTEX
  8
cliff2
 10
450760.114854816
 20
6466645.55543555
  0
VERTEX
  8
cliff2
 10
450759.185145184
 20
6466648.34456445
  0
SEQEND
  0
POLYLINE
 66
1
  8
cliff2
  0
VERTEX
  8
cliff2
 10
450759.585145184
 20
6466647.65543555
  0
VERTEX
  8
cliff2
 10
450760.514854816
 20
6466650.44456445
  0
SEQEND
  0
POLYLINE
 66
1
  8
cliff2
  0
VERTEX
  8
cliff2
 10
450759.58233106
 20
6466647.64135152
  0
VERTEX
  8
cliff2
 10
450759.21766894
 20
6466650.55864848
  0
SEQEND
  0
POLYLINE
 66
1
  8
cliff2
  0
VERTEX
  8
cliff2
 10
450768.381112227
 20
6466522.13499498
  0
VERTEX
  8
cliff2
 10
450769.018887773
 20
6466519.26500502
  0
SEQEND
  0
POLYLINE
 66
1
  8
cliff2
  0
VERTEX
  8
cliff2
 10
450766.684329906
 20
6466420.66274385
  0
VERTEX
  8
cliff2
 10
450769.615670094
 20
6466420.43725615
  0
SEQEND
  0
POLYLINE
 66
1
  8
cliff2
  0
VERTEX
  8
cliff2
 10
450768.941995361
 20
6466502.12240139
  0
VERTEX
  8
cliff2
 10
450771.758004639
 20
6466501.27759861
  0
SEQEND
  0
POLYLINE
 66
1
  8
cliff2
  0
VERTEX
  8
cliff2
 10
450769.852928249
 20
6466502.88016106
  0
VERTEX
  8
cliff2
 10
450771.847071751
 20
6466500.71983894
  0
SEQEND
  0
POLYLINE
 66
1
  8
cliff2
  0
VERTEX
  8
cliff2
 10
450771.305464441
 20
6466502.49763183
  0
VERTEX
  8
cliff2
 10
450770.794535559
 20
6466499.60236817
  0
SEQEND
  0
POLYLINE
 66
1
  8
cliff2
  0
VERTEX
  8
cliff2
 10
450770.362205051
 20
6466501.74916824
  0
VERTEX
  8
cliff2
 10
450771.737794949
 20
6466499.15083176
  0
SEQEND
  0
POLYLINE
 66
1
  8
cliff2
  0
VERTEX
  8
cliff2
 10
450768.93899091
 20
6466501.46233434
  0
VERTEX
  8
cliff2
 10
450771.86100909
 20
6466501.13766566
  0
SEQEND
  0
POLYLINE
 66
1
  8
cliff2
  0
VERTEX
  8
cliff2
 10
450768.483255818
 20
6466519.75221705
  0
VERTEX
  8
cliff2
 10
450771.416744182
 20
6466519.94778294
  0
SEQEND
  0
POLYLINE
 66
1
  8
cliff2
  0
VERTEX
  8
cliff2
 10
450771.084329906
 20
6466419.76274385
  0
VERTEX
  8
cliff2
 10
450774.015670094
 20
6466419.53725615
  0
SEQEND
  0
POLYLINE
 66
1
  8
cliff2
  0
VERTEX
  8
cliff2
 10
450772.610553031
 20
6466618.78944697
  0
VERTEX
  8
cliff2
 10
450774.689446969
 20
6466616.71055303
  0
SEQEND
  0
POLYLINE
 66
1
  8
cliff2
  0
VERTEX
  8
cliff2
 10
450772.643712259
 20
6466623.86800177
  0
VERTEX
  8
cliff2
 10
450774.856287741
 20
6466621.93199823
  0
SEQEND
  0
POLYLINE
 66
1
  8
cliff2
  0
VERTEX
  8
cliff2
 10
450774.757403986
 20
6466621.71480797
  0
VERTEX
  8
cliff2
 10
450773.442596014
 20
6466619.08519203
  0
SEQEND
  0
POLYLINE
 66
1
  8
cliff2
  0
VERTEX
  8
cliff2
 10
450774.14347263
 20
6466621.67610948
  0
VERTEX
  8
cliff2
 10
450774.85652737
 20
6466618.82389052
  0
SEQEND
  0
POLYLINE
 66
1
  8
cliff2
  0
VERTEX
  8
cliff2
 10
450772.177981959
 20
6466624.37769925
  0
VERTEX
  8
cliff2
 10
450774.922018041
 20
6466623.32230075
  0
SEQEND
  0
POLYLINE
 66
1
  8
cliff2
  0
VERTEX
  8
cliff2
 10
450774.586687821
 20
6467064.23092324
  0
VERTEX
  8
cliff2
 10
450773.913312179
 20
6467061.36907676
  0
SEQEND
  0
POLYLINE
 66
1
  8
cliff2
  0
VERTEX
  8
cliff2
 10
450777.026475939
 20
6466405.8529064
  0
VERTEX
  8
cliff2
 10
450777.473524061
 20
6466402.94709361
  0
SEQEND
  0
POLYLINE
 66
1
  8
cliff2
  0
VERTEX
  8
cliff2
 10
450779.055719331
 20
6466573.85710501
  0
VERTEX
  8
cliff2
 10
450779.444280669
 20
6466570.94289499
  0
SEQEND
  0
POLYLINE
 66
1
  8
cliff2
  0
VERTEX
  8
cliff2
 10
450779.795266837
 20
6466573.91626429
  0
VERTEX
  8
cliff2
 10
450780.004733163
 20
6466570.98373571
  0
SEQEND
  0
POLYLINE
 66
1
  8
cliff2
  0
VERTEX
  8
cliff2
 10
450779.145579855
 20
6466580.4961882
  0
VERTEX
  8
cliff2
 10
450780.854420145
 20
6466578.1038118
  0
SEQEND
  0
POLYLINE
 66
1
  8
cliff2
  0
VERTEX
  8
cliff2
 10
450780.183378156
 20
6466583.0426424
  0
VERTEX
  8
cliff2
 10
450778.216621844
 20
6466580.85735761
  0
SEQEND
  0
POLYLINE
 66
1
  8
cliff2
  0
VERTEX
  8
cliff2
 10
450780.647637698
 20
6466576.28149633
  0
VERTEX
  8
cliff2
 10
450781.652362302
 20
6466573.51850367
  0
SEQEND
  0
POLYLINE
 66
1
  8
cliff2
  0
VERTEX
  8
cliff2
 10
450786.003840057
 20
6466542.0134402
  0
VERTEX
  8
cliff2
 10
450785.196159942
 20
6466539.1865598
  0
SEQEND
  0
POLYLINE
 66
1
  8
cliff2
  0
VERTEX
  8
cliff2
 10
450784.50800776
 20
6466550.48736955
  0
VERTEX
  8
cliff2
 10
450783.89199224
 20
6466547.61263045
  0
SEQEND
  0
POLYLINE
 66
1
  8
cliff2
  0
VERTEX
  8
cliff2
 10
450789.90800776
 20
6466511.78736955
  0
VERTEX
  8
cliff2
 10
450789.29199224
 20
6466508.91263045
  0
SEQEND
  0
POLYLINE
 66
1
  8
cliff2
  0
VERTEX
  8
cliff2
 10
450788.833984479
 20
6466513.6347003
  0
VERTEX
  8
cliff2
 10
450790.066015521
 20
6466510.9652997
  0
SEQEND
  0
POLYLINE
 66
1
  8
cliff2
  0
VERTEX
  8
cliff2
 10
450788.320938631
 20
6466515.45114319
  0
VERTEX
  8
cliff2
 10
450789.479061369
 20
6466512.74885681
  0
SEQEND
  0
POLYLINE
 66
1
  8
cliff2
  0
VERTEX
  8
cliff2
 10
450788.646270467
 20
6467022.51270467
  0
VERTEX
  8
cliff2
 10
450788.353729533
 20
6467019.58729533
  0
SEQEND
  0
POLYLINE
 66
1
  8
cliff2
  0
VERTEX
  8
cliff2
 10
450789.433459392
 20
6467021.74924984
  0
VERTEX
  8
cliff2
 10
450788.266540608
 20
6467019.05075016
  0
SEQEND
  0
POLYLINE
 66
1
  8
cliff2
  0
VERTEX
  8
cliff2
 10
450788.187665657
 20
6467022.81100909
  0
VERTEX
  8
cliff2
 10
450788.512334343
 20
6467019.88899091
  0
SEQEND
  0
POLYLINE
 66
1
  8
cliff2
  0
VERTEX
  8
cliff2
 10
450788.481112227
 20
6467023.03499498
  0
VERTEX
  8
cliff2
 10
450789.118887773
 20
6467020.16500502
  0
SEQEND
  0
POLYLINE
 66
1
  8
cliff2
  0
VERTEX
  8
cliff2
 10
450787.33034672
 20
6467023.55887071
  0
VERTEX
  8
cliff2
 10
450789.36965328
 20
6467021.44112929
  0
SEQEND
  0
POLYLINE
 66
1
  8
cliff2
  0
VERTEX
  8
cliff2
 10
450788.2
 20
6467022.97
  0
VERTEX
  8
cliff2
 10
450788.2
 20
6467020.03
  0
SEQEND
  0
POLYLINE
 66
1
  8
cliff2
  0
VERTEX
  8
cliff2
 10
450792.562743853
 20
6466496.51567009
  0
VERTEX
  8
cliff2
 10
450792.337256147
 20
6466493.58432991
  0
SEQEND
  0
POLYLINE
 66
1
  8
cliff2
  0
VERTEX
  8
cliff2
 10
450790.959309592
 20
6466497.91975498
  0
VERTEX
  8
cliff2
 10
450792.440690408
 20
6466495.38024502
  0
SEQEND
  0
POLYLINE
 66
1
  8
cliff2
  0
VERTEX
  8
cliff2
 10
450791.10800776
 20
6466500.48736955
  0
VERTEX
  8
cliff2
 10
450790.49199224
 20
6466497.61263045
  0
SEQEND
  0
POLYLINE
 66
1
  8
cliff2
  0
VERTEX
  8
cliff2
 10
450791.615409288
 20
6466503.92311393
  0
VERTEX
  8
cliff2
 10
450789.984590712
 20
6466501.47688607
  0
SEQEND
  0
POLYLINE
 66
1
  8
cliff2
  0
VERTEX
  8
cliff2
 10
450790.277923145
 20
6466506.21492226
  0
VERTEX
  8
cliff2
 10
450790.522076855
 20
6466503.28507774
  0
SEQEND
  0
POLYLINE
 66
1
  8
cliff2
  0
VERTEX
  8
cliff2
 10
450794.170904146
 20
6466488.49482212
  0
VERTEX
  8
cliff2
 10
450793.629095854
 20
6466485.60517789
  0
SEQEND
  0
POLYLINE
 66
1
  8
cliff2
  0
VERTEX
  8
cliff2
 10
450792.202941176
 20
6466488.64176471
  0
VERTEX
  8
cliff2
 10
450794.797058824
 20
6466487.25823529
  0
SEQEND
  0
POLYLINE
 66
1
  8
cliff2
  0
VERTEX
  8
cliff2
 10
450798.355435552
 20
6466640.78514518
  0
VERTEX
  8
cliff2
 10
450801.144564448
 20
6466641.71485482
  0
SEQEND
  0
POLYLINE
 66
1
  8
cliff2
  0
VERTEX
  8
cliff2
 10
450804.439137048
 20
6466639.51274789
  0
VERTEX
  8
cliff2
 10
450806.660862952
 20
6466637.58725211
  0
SEQEND
  0
POLYLINE
 66
1
  8
cliff2
  0
VERTEX
  8
cliff2
 10
450804.17782336
 20
6466639.48652332
  0
VERTEX
  8
cliff2
 10
450806.72217664
 20
6466638.01347668
  0
SEQEND
  0
POLYLINE
 66
1
  8
cliff2
  0
VERTEX
  8
cliff2
 10
450804.52840043
 20
6466638.72410515
  0
VERTEX
  8
cliff2
 10
450807.37159957
 20
6466637.97589485
  0
SEQEND
  0
POLYLINE
 66
1
  8
cliff2
  0
VERTEX
  8
cliff2
 10
450806.700263116
 20
6466641.52720643
  0
VERTEX
  8
cliff2
 10
450804.699736884
 20
6466639.37279357
  0
SEQEND
  0
POLYLINE
 66
1
  8
cliff2
  0
VERTEX
  8
cliff2
 10
450809.194564448
 20
6466538.06485482
  0
VERTEX
  8
cliff2
 10
450806.405435552
 20
6466537.13514518
  0
SEQEND
  0
POLYLINE
 66
1
  8
cliff2
  0
VERTEX
  8
cliff2
 10
450807.146087368
 20
6466639.09050649
  0
VERTEX
  8
cliff2
 10
450808.553912632
 20
6466636.50949351
  0
SEQEND
  0
POLYLINE
 66
1
  8
cliff2
  0
VERTEX
  8
cliff2
 10
450806.755962307
 20
6466637.3250548
  0
VERTEX
  8
cliff2
 10
450809.644037693
 20
6466636.7749452
  0
SEQEND
  0
POLYLINE
 66
1
  8
cliff2
  0
VERTEX
  8
cliff2
 10
450815.769916508
 20
6466631.67592164
  0
VERTEX
  8
cliff2
 10
450818.430083492
 20
6466630.42407836
  0
SEQEND
  0
POLYLINE
 66
1
  8
cliff2
  0
VERTEX
  8
cliff2
 10
450814.979634639
 20
6466631.7287641
  0
VERTEX
  8
cliff2
 10
450817.820365361
 20
6466630.9712359
  0
SEQEND
  0
POLYLINE
 66
1
  8
cliff2
  0
VERTEX
  8
cliff2
 10
450820.083848541
 20
6466631.07640389
  0
VERTEX
  8
cliff2
 10
450821.116151459
 20
6466628.32359611
  0
SEQEND
  0
POLYLINE
 66
1
  8
cliff2
  0
VERTEX
  8
cliff2
 10
450836.487252109
 20
6466615.76086295
  0
VERTEX
  8
cliff2
 10
450838.412747891
 20
6466613.53913705
  0
SEQEND
  0
POLYLINE
 66
1
  8
cliff2
  0
VERTEX
  8
cliff2
 10
450836.502941177
 20
6466615.24176471
  0
VERTEX
  8
cliff2
 10
450839.097058824
 20
6466613.85823529
  0
SEQEND
  0
POLYLINE
 66
1
  8
cliff2
  0
VERTEX
  8
cliff2
 10
450837.865030303
 20
6466616.14286869
  0
VERTEX
  8
cliff2
 10
450839.434969697
 20
6466613.65713131
  0
SEQEND
  0
POLYLINE
 66
1
  8
cliff2
  0
VERTEX
  8
cliff2
 10
450856.87758031
 20
6466609.60539346
  0
VERTEX
  8
cliff2
 10
450859.02241969
 20
6466607.59460654
  0
SEQEND
  0
POLYLINE
 66
1
  8
cliff2
  0
VERTEX
  8
cliff2
 10
450857.87758031
 20
6466609.50539346
  0
VERTEX
  8
cliff2
 10
450860.02241969
 20
6466607.49460654
  0
SEQEND
  0
POLYLINE
 66
1
  8
cliff2
  0
VERTEX
  8
cliff2
 10
450872.56830172
 20
6466567.74787715
  0
VERTEX
  8
cliff2
 10
450870.73169828
 20
6466565.45212285
  0
SEQEND
  0
POLYLINE
 66
1
  8
cliff2
  0
VERTEX
  8
cliff2
 10
450873.835139264
 20
6466609.34594429
  0
VERTEX
  8
cliff2
 10
450876.564860736
 20
6466608.25405571
  0
SEQEND
  0
POLYLINE
 66
1
  8
cliff2
  0
VERTEX
  8
cliff2
 10
450875.839206974
 20
6466611.39018239
  0
VERTEX
  8
cliff2
 10
450874.260793026
 20
6466608.90981761
  0
SEQEND
  0
POLYLINE
 66
1
  8
cliff2
  0
VERTEX
  8
cliff2
 10
450874.182536671
 20
6466608.86367863
  0
VERTEX
  8
cliff2
 10
450877.117463329
 20
6466609.03632137
  0
SEQEND
  0
POLYLINE
 66
1
  8
cliff2
  0
VERTEX
  8
cliff2
 10
450882.55
 20
6466583.47
  0
VERTEX
  8
cliff2
 10
450882.55
 20
6466580.53
  0
SEQEND
  0
POLYLINE
 66
1
  8
cliff2
  0
VERTEX
  8
cliff2
 10
450884.58233106
 20
6466545.75864848
  0
VERTEX
  8
cliff2
 10
450884.21766894
 20
6466542.84135152
  0
SEQEND
  0
POLYLINE
 66
1
  8
cliff2
  0
VERTEX
  8
cliff2
 10
450884.964854816
 20
6466545.49456445
  0
VERTEX
  8
cliff2
 10
450884.035145184
 20
6466542.70543555
  0
SEQEND
  0
POLYLINE
 66
1
  8
cliff2
  0
VERTEX
  8
cliff2
 10
450885.47159957
 20
6466543.52410515
  0
VERTEX
  8
cliff2
 10
450882.62840043
 20
6466542.77589485
  0
SEQEND
  0
POLYLINE
 66
1
  8
cliff2
  0
VERTEX
  8
cliff2
 10
450884.013476682
 20
6466545.92217664
  0
VERTEX
  8
cliff2
 10
450885.486523318
 20
6466543.37782336
  0
SEQEND
  0
POLYLINE
 66
1
  8
cliff2
  0
VERTEX
  8
cliff2
 10
450884.486532359
 20
6466542.59491366
  0
VERTEX
  8
cliff2
 10
450882.013467641
 20
6466541.00508634
  0
SEQEND
  0
POLYLINE
 66
1
  8
cliff2
  0
VERTEX
  8
cliff2
 10
450883.838290718
 20
6466543.79145359
  0
VERTEX
  8
cliff2
 10
450883.261709282
 20
6466540.90854641
  0
SEQEND
  0
POLYLINE
 66
1
  8
cliff2
  0
VERTEX
  8
cliff2
 10
450885.344280669
 20
6466547.75710501
  0
VERTEX
  8
cliff2
 10
450884.955719331
 20
6466544.84289499
  0
SEQEND
  0
POLYLINE
 66
1
  8
cliff2
  0
VERTEX
  8
cliff2
 10
450884.019140449
 20
6466547.98771723
  0
VERTEX
  8
cliff2
 10
450885.880859551
 20
6466545.71228277
  0
SEQEND
  0
POLYLINE
 66
1
  8
cliff2
  0
VERTEX
  8
cliff2
 10
450884.867203996
 20
6466548.92004687
  0
VERTEX
  8
cliff2
 10
450885.932796004
 20
6466546.17995313
  0
SEQEND
  0
POLYLINE
 66
1
  8
cliff2
  0
VERTEX
  8
cliff2
 10
450883.381516246
 20
6466580.46674926
  0
VERTEX
  8
cliff2
 10
450886.318483754
 20
6466580.33325074
  0
SEQEND
  0
POLYLINE
 66
1
  8
cliff2
  0
VERTEX
  8
cliff2
 10
450886.409702213
 20
6466551.60927681
  0
VERTEX
  8
cliff2
 10
450885.290297787
 20
6466548.89072319
  0
SEQEND
  0
POLYLINE
 66
1
  8
cliff2
  0
VERTEX
  8
cliff2
 10
450884.760793026
 20
6466552.19018239
  0
VERTEX
  8
cliff2
 10
450886.339206974
 20
6466549.70981761
  0
SEQEND
  0
POLYLINE
 66
1
  8
cliff2
  0
VERTEX
  8
cliff2
 10
450886.692663111
 20
6466549.60176652
  0
VERTEX
  8
cliff2
 10
450885.807336889
 20
6466546.79823348
  0
SEQEND
  0
POLYLINE
 66
1
  8
cliff2
  0
VERTEX
  8
cliff2
 10
450884.960553032
 20
6466550.23944697
  0
VERTEX
  8
cliff2
 10
450887.039446968
 20
6466548.16055303
  0
SEQEND
  0
POLYLINE
 66
1
  8
cliff2
  0
VERTEX
  8
cliff2
 10
450886.735415344
 20
6466552.91930459
  0
VERTEX
  8
cliff2
 10
450884.364584656
 20
6466551.18069541
  0
SEQEND
  0
POLYLINE
 66
1
  8
cliff2
  0
VERTEX
  8
cliff2
 10
450886.970904146
 20
6466553.99482212
  0
VERTEX
  8
cliff2
 10
450886.429095854
 20
6466551.10517789
  0
SEQEND
  0
POLYLINE
 66
1
  8
cliff2
  0
VERTEX
  8
cliff2
 10
450887.358186878
 20
6466553.72936438
  0
VERTEX
  8
cliff2
 10
450886.341813122
 20
6466550.97063562
  0
SEQEND
  0
POLYLINE
 66
1
  8
cliff2
  0
VERTEX
  8
cliff2
 10
450888.641071067
 20
6466553.92928528
  0
VERTEX
  8
cliff2
 10
450886.758928932
 20
6466551.67071472
  0
SEQEND
  0
POLYLINE
 66
1
  8
cliff2
  0
VERTEX
  8
cliff2
 10
450887.142596014
 20
6466554.96480797
  0
VERTEX
  8
cliff2
 10
450888.457403985
 20
6466552.33519203
  0
SEQEND
  0
POLYLINE
 66
1
  8
cliff2
  0
VERTEX
  8
cliff2
 10
450887.83846424
 20
6466555.05308557
  0
VERTEX
  8
cliff2
 10
450886.96153576
 20
6466552.24691443
  0
SEQEND
  0
POLYLINE
 66
1
  8
cliff2
  0
VERTEX
  8
cliff2
 10
450892.653085568
 20
6466560.13846424
  0
VERTEX
  8
cliff2
 10
450889.846914432
 20
6466559.26153576
  0
SEQEND
  0
POLYLINE
 66
1
  8
cliff2
  0
VERTEX
  8
cliff2
 10
450891.537256147
 20
6466562.01567009
  0
VERTEX
  8
cliff2
 10
450891.762743853
 20
6466559.08432991
  0
SEQEND
  0
POLYLINE
 66
1
  8
cliff2
  0
VERTEX
  8
cliff2
 10
450891.98233106
 20
6466561.85864848
  0
VERTEX
  8
cliff2
 10
450891.61766894
 20
6466558.94135152
  0
SEQEND
  0
POLYLINE
 66
1
  8
cliff2
  0
VERTEX
  8
cliff2
 10
450893.491453593
 20
6466564.53829072
  0
VERTEX
  8
cliff2
 10
450890.608546407
 20
6466563.96170928
  0
SEQEND
  0
POLYLINE
 66
1
  8
cliff2
  0
VERTEX
  8
cliff2
 10
450892.516151459
 20
6466564.07640389
  0
VERTEX
  8
cliff2
 10
450891.483848541
 20
6466561.32359611
  0
SEQEND
  0
POLYLINE
 66
1
  8
cliff2
  0
VERTEX
  8
cliff2
 10
450893.000942759
 20
6466562.9977243
  0
VERTEX
  8
cliff2
 10
450890.599057241
 20
6466561.3022757
  0
SEQEND
  0
POLYLINE
 66
1
  8
cliff2
  0
VERTEX
  8
cliff2
 10
450900.723682581
 20
6466618.32932424
  0
VERTEX
  8
cliff2
 10
450903.276317419
 20
6466616.87067576
  0
SEQEND
  0
POLYLINE
 66
1
  8
cliff2
  0
VERTEX
  8
cliff2
 10
450900.650831763
 20
6466618.13779495
  0
VERTEX
  8
cliff2
 10
450903.249168237
 20
6466616.76220505
  0
SEQEND
  0
POLYLINE
 66
1
  8
cliff2
  0
VERTEX
  8
cliff2
 10
450903.91766894
 20
6466618.25864848
  0
VERTEX
  8
cliff2
 10
450904.28233106
 20
6466615.34135152
  0
SEQEND
  0
POLYLINE
 66
1
  8
cliff2
  0
VERTEX
  8
cliff2
 10
450901.56878396
 20
6466616.77931598
  0
VERTEX
  8
cliff2
 10
450904.131216039
 20
6466618.22068402
  0
SEQEND
  0
POLYLINE
 66
1
  8
cliff2
  0
VERTEX
  8
cliff2
 10
450902.205435552
 20
6466618.06485482
  0
VERTEX
  8
cliff2
 10
450904.994564448
 20
6466617.13514518
  0
SEQEND
  0
POLYLINE
 66
1
  8
cliff2
  0
VERTEX
  8
cliff2
 10
450901.370635618
 20
6466616.84181312
  0
VERTEX
  8
cliff2
 10
450904.129364382
 20
6466617.85818688
  0
SEQEND
  0
POLYLINE
 66
1
  8
cliff2
  0
VERTEX
  8
cliff2
 10
451240.129095853
 20
6467325.19482211
  0
VERTEX
  8
cliff2
 10
451240.670904147
 20
6467322.30517789
  0
SEQEND
  0
POLYLINE
 66
1
  8
cliff2
  0
VERTEX
  8
cliff2
 10
451266.719838937
 20
6467337.14707175
  0
VERTEX
  8
cliff2
 10
451268.880161064
 20
6467335.15292825
  0
SEQEND
  0
POLYLINE
 66
1
  8
cliff2
  0
VERTEX
  8
cliff2
 10
451267.378243366
 20
6467338.15993139
  0
VERTEX
  8
cliff2
 10
451267.721756634
 20
6467335.24006861
  0
SEQEND
  0
POLYLINE
 66
1
  8
cliff2
  0
VERTEX
  8
cliff2
 10
451272.629095853
 20
6467359.19482211
  0
VERTEX
  8
cliff2
 10
451273.170904147
 20
6467356.30517789
  0
SEQEND
  0
POLYLINE
 66
1
  8
cliff2
  0
VERTEX
  8
cliff2
 10
451404.560553032
 20
6466926.66055303
  0
VERTEX
  8
cliff2
 10
451406.639446968
 20
6466928.73944697
  0
SEQEND
  0
POLYLINE
 66
1
  8
cliff2
  0
VERTEX
  8
cliff2
 10
451469.89305824
 20
6467336.12940933
  0
VERTEX
  8
cliff2
 10
451469.20694176
 20
6467333.27059067
  0
SEQEND
  0
POLYLINE
 66
1
  8
cliff2
  0
VERTEX
  8
cliff2
 10
451479.482031791
 20
6467278.32726148
  0
VERTEX
  8
cliff2
 10
451482.417968209
 20
6467278.17273852
  0
SEQEND
  0
POLYLINE
 66
1
  8
cliff2
  0
VERTEX
  8
cliff2
 10
451666.977699247
 20
6466080.02201804
  0
VERTEX
  8
cliff2
 10
451665.922300753
 20
6466077.27798196
  0
SEQEND
  0
POLYLINE
 66
1
  8
cliff2
  0
VERTEX
  8
cliff2
 10
451670.320735017
 20
6466141.50201156
  0
VERTEX
  8
cliff2
 10
451670.779264983
 20
6466138.59798844
  0
SEQEND
  0
POLYLINE
 66
1
  8
cliff2
  0
VERTEX
  8
cliff2
 10
451672.242894986
 20
6465996.75571933
  0
VERTEX
  8
cliff2
 10
451675.157105014
 20
6465997.14428067
  0
SEQEND
  0
POLYLINE
 66
1
  8
cliff2
  0
VERTEX
  8
cliff2
 10
451753.03
 20
6466024.3
  0
VERTEX
  8
cliff2
 10
451755.97
 20
6466024.3
  0
SEQEND
  0
POLYLINE
 66
1
  8
cliff2
  0
VERTEX
  8
cliff2
 10
451752.984329906
 20
6466024.13725615
  0
VERTEX
  8
cliff2
 10
451755.915670094
 20
6466024.36274385
  0
SEQEND
  0
POLYLINE
 66
1
  8
cliff2
  0
VERTEX
  8
cliff2
 10
451761.582536671
 20
6466026.73632137
  0
VERTEX
  8
cliff2
 10
451764.517463329
 20
6466026.56367863
  0
SEQEND
  0
POLYLINE
 66
1
  8
cliff2
  0
VERTEX
  8
cliff2
 10
451942.000464905
 20
6467125.07217784
  0
VERTEX
  8
cliff2
 10
451943.899535095
 20
6467122.82782216
  0
SEQEND
  0
POLYLINE
 66
1
  8
cliff2
  0
VERTEX
  8
cliff2
 10
451957.539485399
 20
6467119.94369124
  0
VERTEX
  8
cliff2
 10
451960.060514601
 20
6467121.45630876
  0
SEQEND
  0
POLYLINE
 66
1
  8
cliff2
  0
VERTEX
  8
cliff2
 10
452004.420713074
 20
6466305.52150538
  0
VERTEX
  8
cliff2
 10
452005.679286926
 20
6466308.17849462
  0
SEQEND
  0
POLYLINE
 66
1
  8
cliff2
  0
VERTEX
  8
cliff2
 10
452042.284329906
 20
6466045.56274385
  0
VERTEX
  8
cliff2
 10
452045.215670094
 20
6466045.33725615
  0
SEQEND
  0
POLYLINE
 66
1
  8
cliff2
  0
VERTEX
  8
cliff2
 10
452054.241666512
 20
6466928.64999907
  0
VERTEX
  8
cliff2
 10
452053.758333488
 20
6466925.75000093
  0
SEQEND
  0
POLYLINE
 66
1
  8
cliff2
  0
VERTEX
  8
cliff2
 10
452053.412961594
 20
6466930.34628877
  0
VERTEX
  8
cliff2
 10
452052.887038406
 20
6466927.45371123
  0
SEQEND
  0
POLYLINE
 66
1
  8
cliff2
  0
VERTEX
  8
cliff2
 10
452524.539122896
 20
6467100.40377767
  0
VERTEX
  8
cliff2
 10
452526.360877104
 20
6467098.09622233
  0
SEQEND
  0
POLYLINE
 66
1
  8
cliff2
  0
VERTEX
  8
cliff2
 10
452586.518887773
 20
6465986.63499498
  0
VERTEX
  8
cliff2
 10
452585.881112227
 20
6465983.76500502
  0
SEQEND
  0
POLYLINE
 66
1
  8
cliff2
  0
VERTEX
  8
cliff2
 10
452985.297637697
 20
6466812.38149633
  0
VERTEX
  8
cliff2
 10
452986.302362303
 20
6466809.61850367
  0
SEQEND
  0
POLYLINE
 66
1
  8
cliff2
  0
VERTEX
  8
cliff2
 10
452985.17955621
 20
6466814.154804
  0
VERTEX
  8
cliff2
 10
452986.32044379
 20
6466811.445196
  0
SEQEND
  0
POLYLINE
 66
1
  8
cliff2
  0
VERTEX
  8
cliff2
 10
453141.823682581
 20
6467187.22932424
  0
VERTEX
  8
cliff2
 10
453144.376317419
 20
6467185.77067576
  0
SEQEND
  0
POLYLINE
 66
1
  8
cliff2
  0
VERTEX
  8
cliff2
 10
453142.202368169
 20
6467186.09453556
  0
VERTEX
  8
cliff2
 10
453145.097631831
 20
6467186.60546444
  0
SEQEND
  0
POLYLINE
 66
1
  8
cliff2
  0
VERTEX
  8
cliff2
 10
453146.631998227
 20
6467188.70628774
  0
VERTEX
  8
cliff2
 10
453148.568001773
 20
6467186.49371226
  0
SEQEND
  0
POLYLINE
 66
1
  8
cliff2
  0
VERTEX
  8
cliff2
 10
453144.13729533
 20
6467188.24627047
  0
VERTEX
  8
cliff2
 10
453147.06270467
 20
6467187.95372953
  0
SEQEND
  0
POLYLINE
 66
1
  8
cliff2
  0
VERTEX
  8
cliff2
 10
453143.695675704
 20
6467187.23346849
  0
VERTEX
  8
cliff2
 10
453146.204324296
 20
6467188.76653151
  0
SEQEND
  0
POLYLINE
 66
1
  8
cliff2
  0
VERTEX
  8
cliff2
 10
453144.764784496
 20
6467186.03973271
  0
VERTEX
  8
cliff2
 10
453143.935215504
 20
6467188.86026729
  0
SEQEND
  0
POLYLINE
 66
1
  8
cliff2
  0
VERTEX
  8
cliff2
 10
453278.065262554
 20
6466965.41551034
  0
VERTEX
  8
cliff2
 10
453280.334737446
 20
6466967.28448966
  0
SEQEND
  0
POLYLINE
 66
1
  8
cliff2
  0
VERTEX
  8
cliff2
 10
453279.580543475
 20
6466963.91764494
  0
VERTEX
  8
cliff2
 10
453278.919456525
 20
6466966.78235506
  0
SEQEND
  0
POLYLINE
 66
1
  8
cliff2
  0
VERTEX
  8
cliff2
 10
453278.145195999
 20
6466965.87955621
  0
VERTEX
  8
cliff2
 10
453280.854804001
 20
6466967.02044379
  0
SEQEND
  0
POLYLINE
 66
1
  8
cliff2
  0
VERTEX
  8
cliff2
 10
453279.818060466
 20
6466963.89626356
  0
VERTEX
  8
cliff2
 10
453279.381939534
 20
6466966.80373644
  0
SEQEND
  0
POLYLINE
 66
1
  8
cliff2
  0
VERTEX
  8
cliff2
 10
453279.452928249
 20
6466965.61983894
  0
VERTEX
  8
cliff2
 10
453281.447071751
 20
6466967.78016106
  0
SEQEND
  0
POLYLINE
 66
1
  8
cliff2
  0
VERTEX
  8
cliff2
 10
453319.417644942
 20
6467193.41945653
  0
VERTEX
  8
cliff2
 10
453322.282355058
 20
6467194.08054347
  0
SEQEND
  0
POLYLINE
 66
1
  8
cliff2
  0
VERTEX
  8
cliff2
 10
453328.408546407
 20
6467218.73829072
  0
VERTEX
  8
cliff2
 10
453331.291453593
 20
6467218.16170928
  0
SEQEND
  0
POLYLINE
 66
1
  8
cliff2
  0
VERTEX
  8
cliff2
 10
453327.531998226
 20
6467216.94371226
  0
VERTEX
  8
cliff2
 10
453329.468001774
 20
6467219.15628774
  0
SEQEND
  0
POLYLINE
 66
1
  8
cliff2
  0
VERTEX
  8
cliff2
 10
453330.882263281
 20
6467218.21845907
  0
VERTEX
  8
cliff2
 10
453333.817736719
 20
6467218.38154093
  0
SEQEND
  0
POLYLINE
 66
1
  8
cliff2
  0
VERTEX
  8
cliff2
 10
453329.66563939
 20
6467218.6944145
  0
VERTEX
  8
cliff2
 10
453332.43436061
 20
6467217.7055855
  0
SEQEND
  0
POLYLINE
 66
1
  8
cliff2
  0
VERTEX
  8
cliff2
 10
453349.239732713
 20
6467221.2647845
  0
VERTEX
  8
cliff2
 10
453352.060267287
 20
6467220.4352155
  0
SEQEND
  0
POLYLINE
 66
1
  8
cliff2
  0
VERTEX
  8
cliff2
 10
453367.369076763
 20
6467223.78668782
  0
VERTEX
  8
cliff2
 10
453370.230923237
 20
6467223.11331218
  0
SEQEND
  0
POLYLINE
 66
1
  8
cliff2
  0
VERTEX
  8
cliff2
 10
453379.653725182
 20
6467225.83484274
  0
VERTEX
  8
cliff2
 10
453381.446274819
 20
6467228.16515726
  0
SEQEND
  0
POLYLINE
 66
1
  8
cliff2
  0
VERTEX
  8
cliff2
 10
453397.90911242
 20
6467230.67302884
  0
VERTEX
  8
cliff2
 10
453400.19088758
 20
6467232.52697116
  0
SEQEND
  0
POLYLINE
 66
1
  8
cliff2
  0
VERTEX
  8
cliff2
 10
453398.461531816
 20
6467232.05283541
  0
VERTEX
  8
cliff2
 10
453401.338468184
 20
6467231.44716459
  0
SEQEND
  0
POLYLINE
 66
1
  8
cliff2
  0
VERTEX
  8
cliff2
 10
453399.60911242
 20
6467230.97302884
  0
VERTEX
  8
cliff2
 10
453401.89088758
 20
6467232.82697116
  0
SEQEND
  0
POLYLINE
 66
1
  8
cliff2
  0
VERTEX
  8
cliff2
 10
453400.165005021
 20
6467232.31888777
  0
VERTEX
  8
cliff2
 10
453403.034994978
 20
6467231.68111223
  0
SEQEND
  0
POLYLINE
 66
1
  8
cliff2
  0
VERTEX
  8
cliff2
 10
453397.61380421
 20
6467232.16075443
  0
VERTEX
  8
cliff2
 10
453400.38619579
 20
6467233.13924557
  0
SEQEND
  0
POLYLINE
 66
1
  8
cliff2
  0
VERTEX
  8
cliff2
 10
453402.469076763
 20
6467231.98668782
  0
VERTEX
  8
cliff2
 10
453405.330923237
 20
6467231.31331218
  0
SEQEND
  0
POLYLINE
 66
1
  8
cliff2
  0
VERTEX
  8
cliff2
 10
453403.672793567
 20
6467230.79973688
  0
VERTEX
  8
cliff2
 10
453405.827206433
 20
6467232.80026312
  0
SEQEND
  0
POLYLINE
 66
1
  8
cliff2
  0
VERTEX
  8
cliff2
 10
453465.26563939
 20
6465375.8944145
  0
VERTEX
  8
cliff2
 10
453468.03436061
 20
6465374.9055855
  0
SEQEND
  0
POLYLINE
 66
1
  8
cliff2
  0
VERTEX
  8
cliff2
 10
453645.258546407
 20
6467452.91170928
  0
VERTEX
  8
cliff2
 10
453648.141453593
 20
6467453.48829072
  0
SEQEND
  0
POLYLINE
 66
1
  8
cliff2
  0
VERTEX
  8
cliff2
 10
453646.693076923
 20
6467454.43461538
  0
VERTEX
  8
cliff2
 10
453649.406923077
 20
6467455.56538462
  0
SEQEND
  0
POLYLINE
 66
1
  8
cliff2
  0
VERTEX
  8
cliff2
 10
453663.941453593
 20
6465416.28829072
  0
VERTEX
  8
cliff2
 10
453661.058546407
 20
6465415.71170928
  0
SEQEND
  0
POLYLINE
 66
1
  8
cliff2
  0
VERTEX
  8
cliff2
 10
453664.194564448
 20
6467430.43514518
  0
VERTEX
  8
cliff2
 10
453661.405435552
 20
6467431.36485482
  0
SEQEND
  0
POLYLINE
 66
1
  8
cliff2
  0
VERTEX
  8
cliff2
 10
453680.482
 20
6467442.426
  0
VERTEX
  8
cliff2
 10
453678.718
 20
6467440.074
  0
SEQEND
  0
POLYLINE
 66
1
  8
cliff2
  0
VERTEX
  8
cliff2
 10
453679.919754984
 20
6467440.35930959
  0
VERTEX
  8
cliff2
 10
453677.380245016
 20
6467441.84069041
  0
SEQEND
  0
POLYLINE
 66
1
  8
cliff2
  0
VERTEX
  8
cliff2
 10
453679.081516246
 20
6467471.83325074
  0
VERTEX
  8
cliff2
 10
453682.018483754
 20
6467471.96674926
  0
SEQEND
  0
POLYLINE
 66
1
  8
cliff2
  0
VERTEX
  8
cliff2
 10
453927.93
 20
6465366.25
  0
VERTEX
  8
cliff2
 10
453930.87
 20
6465366.25
  0
SEQEND
  0
POLYLINE
 66
1
  8
cliff2
  0
VERTEX
  8
cliff2
 10
453927.93
 20
6465366.65
  0
VERTEX
  8
cliff2
 10
453930.87
 20
6465366.65
  0
SEQEND
  0
POLYLINE
 66
1
  8
cliff2
  0
VERTEX
  8
cliff2
 10
453974.431797183
 20
6465286.36321741
  0
VERTEX
  8
cliff2
 10
453977.268202817
 20
6465287.13678259
  0
SEQEND
  0
POLYLINE
 66
1
  8
cliff2
  0
VERTEX
  8
cliff2
 10
453986.544564448
 20
6465315.78514518
  0
VERTEX
  8
cliff2
 10
453983.755435552
 20
6465316.71485482
  0
SEQEND
  0
POLYLINE
 66
1
  8
cliff2
  0
VERTEX
  8
cliff2
 10
453988.445579855
 20
6465338.3961882
  0
VERTEX
  8
cliff2
 10
453990.154420145
 20
6465336.0038118
  0
SEQEND
  0
POLYLINE
 66
1
  8
cliff2
  0
VERTEX
  8
cliff2
 10
453987.606684796
 20
6465339.03361659
  0
VERTEX
  8
cliff2
 10
453989.593315204
 20
6465336.86638341
  0
SEQEND
  0
POLYLINE
 66
1
  8
cliff2
  0
VERTEX
  8
cliff2
 10
453990.746914432
 20
6465328.13846424
  0
VERTEX
  8
cliff2
 10
453993.553085568
 20
6465327.26153576
  0
SEQEND
  0
POLYLINE
 66
1
  8
cliff2
  0
VERTEX
  8
cliff2
 10
453995.278494623
 20
6465368.67928693
  0
VERTEX
  8
cliff2
 10
453992.621505377
 20
6465367.42071307
  0
SEQEND
  0
POLYLINE
 66
1
  8
cliff2
  0
VERTEX
  8
cliff2
 10
453994.199736884
 20
6465371.52720643
  0
VERTEX
  8
cliff2
 10
453996.200263116
 20
6465369.37279357
  0
SEQEND
  0
POLYLINE
 66
1
  8
cliff2
  0
VERTEX
  8
cliff2
 10
453995.342110606
 20
6465371.40522575
  0
VERTEX
  8
cliff2
 10
453995.757889394
 20
6465368.49477424
  0
SEQEND
  0
POLYLINE
 66
1
  8
cliff2
  0
VERTEX
  8
cliff2
 10
453994.681939534
 20
6465372.40373644
  0
VERTEX
  8
cliff2
 10
453995.118060466
 20
6465369.49626356
  0
SEQEND
  0
POLYLINE
 66
1
  8
cliff2
  0
VERTEX
  8
cliff2
 10
453992.481663838
 20
6465371.91992077
  0
VERTEX
  8
cliff2
 10
453995.418336162
 20
6465371.78007923
  0
SEQEND
  0
POLYLINE
 66
1
  8
cliff2
  0
VERTEX
  8
cliff2
 10
454077.441351521
 20
6465349.01766894
  0
VERTEX
  8
cliff2
 10
454080.358648479
 20
6465349.38233106
  0
SEQEND
  0
POLYLINE
 66
1
  8
cliff2
  0
VERTEX
  8
cliff2
 10
454085.104733164
 20
6465347.68373571
  0
VERTEX
  8
cliff2
 10
454084.895266836
 20
6465350.61626429
  0
SEQEND
  0
POLYLINE
 66
1
  8
cliff2
  0
VERTEX
  8
cliff2
 10
454088.944774244
 20
6465352.20788939
  0
VERTEX
  8
cliff2
 10
454091.855225756
 20
6465351.79211061
  0
SEQEND
  0
POLYLINE
 66
1
  8
cliff2
  0
VERTEX
  8
cliff2
 10
454092.312630451
 20
6465352.70800776
  0
VERTEX
  8
cliff2
 10
454095.187369549
 20
6465352.09199224
  0
SEQEND
  0
POLYLINE
 66
1
  8
cliff2
  0
VERTEX
  8
cliff2
 10
454113.420901558
 20
6465357.14655751
  0
VERTEX
  8
cliff2
 10
454114.979098442
 20
6465354.65344249
  0
SEQEND
  0
POLYLINE
 66
1
  8
cliff2
  0
VERTEX
  8
cliff2
 10
454123.924
 20
6465345.982
  0
VERTEX
  8
cliff2
 10
454126.276
 20
6465344.218
  0
SEQEND
  0
POLYLINE
 66
1
  8
cliff2
  0
VERTEX
  8
cliff2
 10
454121.73729533
 20
6465348.74627047
  0
VERTEX
  8
cliff2
 10
454124.66270467
 20
6465348.45372953
  0
SEQEND
  0
POLYLINE
 66
1
  8
cliff2
  0
VERTEX
  8
cliff2
 10
454125.307336889
 20
6465347.80176652
  0
VERTEX
  8
cliff2
 10
454126.192663111
 20
6465344.99823348
  0
SEQEND
  0
POLYLINE
 66
1
  8
cliff2
  0
VERTEX
  8
cliff2
 10
454123.989485399
 20
6465347.60630876
  0
VERTEX
  8
cliff2
 10
454126.510514601
 20
6465346.09369124
  0
SEQEND
  0
POLYLINE
 66
1
  8
cliff2
  0
VERTEX
  8
cliff2
 10
454125.756527369
 20
6465347.37610947
  0
VERTEX
  8
cliff2
 10
454125.043472631
 20
6465344.52389052
  0
SEQEND
  0
POLYLINE
 66
1
  8
cliff2
  0
VERTEX
  8
cliff2
 10
454124.605464441
 20
6465347.49763183
  0
VERTEX
  8
cliff2
 10
454124.094535559
 20
6465344.60236817
  0
SEQEND
  0
POLYLINE
 66
1
  8
cliff2
  0
VERTEX
  8
cliff2
 10
454122.448856806
 20
6465349.57906137
  0
VERTEX
  8
cliff2
 10
454125.151143194
 20
6465348.42093863
  0
SEQEND
  0
POLYLINE
 66
1
  8
cliff2
  0
VERTEX
  8
cliff2
 10
454127.597631831
 20
6465315.30546444
  0
VERTEX
  8
cliff2
 10
454124.702368169
 20
6465314.79453556
  0
SEQEND
  0
POLYLINE
 66
1
  8
cliff2
  0
VERTEX
  8
cliff2
 10
454125.786104891
 20
6465346.3850112
  0
VERTEX
  8
cliff2
 10
454127.213895109
 20
6465343.8149888
  0
SEQEND
  0
POLYLINE
 66
1
  8
cliff2
  0
VERTEX
  8
cliff2
 10
454125.480695414
 20
6465346.33541534
  0
VERTEX
  8
cliff2
 10
454127.219304586
 20
6465343.96458466
  0
SEQEND
  0
POLYLINE
 66
1
  8
cliff2
  0
VERTEX
  8
cliff2
 10
454128.207889394
 20
6465345.25522576
  0
VERTEX
  8
cliff2
 10
454127.792110606
 20
6465342.34477425
  0
SEQEND
  0
POLYLINE
 66
1
  8
cliff2
  0
VERTEX
  8
cliff2
 10
454126.069076763
 20
6465345.08668782
  0
VERTEX
  8
cliff2
 10
454128.930923237
 20
6465344.41331218
  0
SEQEND
  0
POLYLINE
 66
1
  8
cliff2
  0
VERTEX
  8
cliff2
 10
454130.034700295
 20
6465319.16601552
  0
VERTEX
  8
cliff2
 10
454127.365299705
 20
6465317.93398448
  0
SEQEND
  0
POLYLINE
 66
1
  8
cliff2
  0
VERTEX
  8
cliff2
 10
454128.35307326
 20
6465320.84429252
  0
VERTEX
  8
cliff2
 10
454129.74692674
 20
6465318.25570748
  0
SEQEND
  0
POLYLINE
 66
1
  8
cliff2
  0
VERTEX
  8
cliff2
 10
454129.814922265
 20
6465318.47792314
  0
VERTEX
  8
cliff2
 10
454126.885077735
 20
6465318.72207685
  0
SEQEND
  0
POLYLINE
 66
1
  8
cliff2
  0
VERTEX
  8
cliff2
 10
454129.888290719
 20
6465321.44145359
  0
VERTEX
  8
cliff2
 10
454129.311709281
 20
6465318.55854641
  0
SEQEND
  0
POLYLINE
 66
1
  8
cliff2
  0
VERTEX
  8
cliff2
 10
454131.37159957
 20
6465320.47589485
  0
VERTEX
  8
cliff2
 10
454128.52840043
 20
6465321.22410515
  0
SEQEND
  0
POLYLINE
 66
1
  8
cliff2
  0
VERTEX
  8
cliff2
 10
454131.38668782
 20
6465323.03092324
  0
VERTEX
  8
cliff2
 10
454130.71331218
 20
6465320.16907676
  0
SEQEND
  0
POLYLINE
 66
1
  8
cliff2
  0
VERTEX
  8
cliff2
 10
454130.750800897
 20
6465321.44570938
  0
VERTEX
  8
cliff2
 10
454127.949199103
 20
6465320.55429062
  0
SEQEND
  0
POLYLINE
 66
1
  8
cliff2
  0
VERTEX
  8
cliff2
 10
454131.526591703
 20
6465324.71816594
  0
VERTEX
  8
cliff2
 10
454131.673408297
 20
6465321.78183406
  0
SEQEND
  0
POLYLINE
 66
1
  8
cliff2
  0
VERTEX
  8
cliff2
 10
454130.058301534
 20
6465324.96067111
  0
VERTEX
  8
cliff2
 10
454132.441698466
 20
6465323.23932889
  0
SEQEND
  0
POLYLINE
 66
1
  8
cliff2
  0
VERTEX
  8
cliff2
 10
454130.815510338
 20
6465325.43473745
  0
VERTEX
  8
cliff2
 10
454132.684489662
 20
6465323.16526255
  0
SEQEND
  0
POLYLINE
 66
1
  8
cliff2
  0
VERTEX
  8
cliff2
 10
454132.07
 20
6465320.7
  0
VERTEX
  8
cliff2
 10
454129.13
 20
6465320.7
  0
SEQEND
  0
POLYLINE
 66
1
  8
cliff2
  0
VERTEX
  8
cliff2
 10
454131.27589485
 20
6465326.17159957
  0
VERTEX
  8
cliff2
 10
454132.02410515
 20
6465323.32840043
  0
SEQEND
  0
POLYLINE
 66
1
  8
cliff2
  0
VERTEX
  8
cliff2
 10
454130.985145184
 20
6465326.14456445
  0
VERTEX
  8
cliff2
 10
454131.914854816
 20
6465323.35543555
  0
SEQEND
  0
POLYLINE
 66
1
  8
cliff2
  0
VERTEX
  8
cliff2
 10
454130.217668941
 20
6465326.45864848
  0
VERTEX
  8
cliff2
 10
454130.582331059
 20
6465323.54135152
  0
SEQEND
  0
POLYLINE
 66
1
  8
cliff2
  0
VERTEX
  8
cliff2
 10
454129.306684796
 20
6465331.33361659
  0
VERTEX
  8
cliff2
 10
454131.293315204
 20
6465329.16638341
  0
SEQEND
  0
POLYLINE
 66
1
  8
cliff2
  0
VERTEX
  8
cliff2
 10
454130.243409717
 20
6465331.51055403
  0
VERTEX
  8
cliff2
 10
454131.356590283
 20
6465328.78944597
  0
SEQEND
  0
POLYLINE
 66
1
  8
cliff2
  0
VERTEX
  8
cliff2
 10
454131.808007761
 20
6465330.18736955
  0
VERTEX
  8
cliff2
 10
454131.191992239
 20
6465327.31263045
  0
SEQEND
  0
POLYLINE
 66
1
  8
cliff2
  0
VERTEX
  8
cliff2
 10
454131.736782587
 20
6465330.16820282
  0
VERTEX
  8
cliff2
 10
454130.963217413
 20
6465327.33179718
  0
SEQEND
  0
POLYLINE
 66
1
  8
cliff2
  0
VERTEX
  8
cliff2
 10
454129.477598608
 20
6465331.90800464
  0
VERTEX
  8
cliff2
 10
454130.322401392
 20
6465329.09199536
  0
SEQEND
  0
POLYLINE
 66
1
  8
cliff2
  0
VERTEX
  8
cliff2
 10
454129.678243367
 20
6465333.95993139
  0
VERTEX
  8
cliff2
 10
454130.021756633
 20
6465331.04006861
  0
SEQEND
  0
POLYLINE
 66
1
  8
cliff2
  0
VERTEX
  8
cliff2
 10
454129.9
 20
6465333.87
  0
VERTEX
  8
cliff2
 10
454129.9
 20
6465330.93
  0
SEQEND
  0
POLYLINE
 66
1
  8
cliff2
  0
VERTEX
  8
cliff2
 10
454129.618060466
 20
6465334.20373644
  0
VERTEX
  8
cliff2
 10
454129.181939534
 20
6465331.29626356
  0
SEQEND
  0
POLYLINE
 66
1
  8
cliff2
  0
VERTEX
  8
cliff2
 10
454129.340068612
 20
6465331.57824337
  0
VERTEX
  8
cliff2
 10
454132.259931388
 20
6465331.92175663
  0
SEQEND
  0
POLYLINE
 66
1
  8
cliff2
  0
VERTEX
  8
cliff2
 10
454132.37
 20
6465330.85
  0
VERTEX
  8
cliff2
 10
454129.43
 20
6465330.85
  0
SEQEND
  0
POLYLINE
 66
1
  8
cliff2
  0
VERTEX
  8
cliff2
 10
454130.934615385
 20
6465332.50692308
  0
VERTEX
  8
cliff2
 10
454132.065384615
 20
6465329.79307692
  0
SEQEND
  0
POLYLINE
 66
1
  8
cliff2
  0
VERTEX
  8
cliff2
 10
454130.560553032
 20
6465332.63944697
  0
VERTEX
  8
cliff2
 10
454132.639446968
 20
6465330.56055303
  0
SEQEND
  0
POLYLINE
 66
1
  8
cliff2
  0
VERTEX
  8
cliff2
 10
454130.1
 20
6465335.87
  0
VERTEX
  8
cliff2
 10
454130.1
 20
6465332.93
  0
SEQEND
  0
POLYLINE
 66
1
  8
cliff2
  0
VERTEX
  8
cliff2
 10
454128.299170213
 20
6465336.03464726
  0
VERTEX
  8
cliff2
 10
454130.900829787
 20
6465334.66535274
  0
SEQEND
  0
POLYLINE
 66
1
  8
cliff2
  0
VERTEX
  8
cliff2
 10
454130.143336681
 20
6465336.3161072
  0
VERTEX
  8
cliff2
 10
454132.056663319
 20
6465334.08389279
  0
SEQEND
  0
POLYLINE
 66
1
  8
cliff2
  0
VERTEX
  8
cliff2
 10
454131.618060466
 20
6465335.90373644
  0
VERTEX
  8
cliff2
 10
454131.181939534
 20
6465332.99626356
  0
SEQEND
  0
POLYLINE
 66
1
  8
cliff2
  0
VERTEX
  8
cliff2
 10
454128.505177885
 20
6465335.77090415
  0
VERTEX
  8
cliff2
 10
454131.394822115
 20
6465335.22909585
  0
SEQEND
  0
POLYLINE
 66
1
  8
cliff2
  0
VERTEX
  8
cliff2
 10
454128.203811797
 20
6465336.35442015
  0
VERTEX
  8
cliff2
 10
454130.596188203
 20
6465334.64557985
  0
SEQEND
  0
POLYLINE
 66
1
  8
cliff2
  0
VERTEX
  8
cliff2
 10
454129.752976454
 20
6465339.14330298
  0
VERTEX
  8
cliff2
 10
454130.947023546
 20
6465336.45669702
  0
SEQEND
  0
POLYLINE
 66
1
  8
cliff2
  0
VERTEX
  8
cliff2
 10
454131.452906396
 20
6465337.17352406
  0
VERTEX
  8
cliff2
 10
454128.547093604
 20
6465336.72647594
  0
SEQEND
  0
POLYLINE
 66
1
  8
cliff2
  0
VERTEX
  8
cliff2
 10
454131.580161064
 20
6465337.94707175
  0
VERTEX
  8
cliff2
 10
454129.419838936
 20
6465335.95292825
  0
SEQEND
  0
POLYLINE
 66
1
  8
cliff2
  0
VERTEX
  8
cliff2
 10
454130.219456524
 20
6465339.18235506
  0
VERTEX
  8
cliff2
 10
454130.880543476
 20
6465336.31764494
  0
SEQEND
  0
POLYLINE
 66
1
  8
cliff2
  0
VERTEX
  8
cliff2
 10
454129.897724301
 20
6465338.00094276
  0
VERTEX
  8
cliff2
 10
454128.202275699
 20
6465335.59905724
  0
SEQEND
  0
POLYLINE
 66
1
  8
cliff2
  0
VERTEX
  8
cliff2
 10
454129.794112042
 20
6465339.80819768
  0
VERTEX
  8
cliff2
 10
454132.105887958
 20
6465337.99180232
  0
SEQEND
  0
POLYLINE
 66
1
  8
cliff2
  0
VERTEX
  8
cliff2
 10
454130.919304585
 20
6465339.73541534
  0
VERTEX
  8
cliff2
 10
454129.180695415
 20
6465337.36458466
  0
SEQEND
  0
POLYLINE
 66
1
  8
cliff2
  0
VERTEX
  8
cliff2
 10
454128.96563939
 20
6465340.6055855
  0
VERTEX
  8
cliff2
 10
454131.73436061
 20
6465341.5944145
  0
SEQEND
  0
POLYLINE
 66
1
  8
cliff2
  0
VERTEX
  8
cliff2
 10
454130.252928249
 20
6465342.08016106
  0
VERTEX
  8
cliff2
 10
454132.247071751
 20
6465339.91983894
  0
SEQEND
  0
POLYLINE
 66
1
  8
cliff2
  0
VERTEX
  8
cliff2
 10
454132.041764706
 20
6465341.29705882
  0
VERTEX
  8
cliff2
 10
454130.658235294
 20
6465338.70294118
  0
SEQEND
  0
POLYLINE
 66
1
  8
cliff2
  0
VERTEX
  8
cliff2
 10
454129.447782946
 20
6465343.31674418
  0
VERTEX
  8
cliff2
 10
454129.252217054
 20
6465340.38325582
  0
SEQEND
  0
POLYLINE
 66
1
  8
cliff2
  0
VERTEX
  8
cliff2
 10
454129.882331061
 20
6465343.30864848
  0
VERTEX
  8
cliff2
 10
454129.517668939
 20
6465340.39135152
  0
SEQEND
  0
POLYLINE
 66
1
  8
cliff2
  0
VERTEX
  8
cliff2
 10
454128.290723195
 20
6465343.30970221
  0
VERTEX
  8
cliff2
 10
454131.009276805
 20
6465342.19029779
  0
SEQEND
  0
POLYLINE
 66
1
  8
cliff2
  0
VERTEX
  8
cliff2
 10
454127.702368169
 20
6465342.49453556
  0
VERTEX
  8
cliff2
 10
454130.597631831
 20
6465343.00546444
  0
SEQEND
  0
POLYLINE
 66
1
  8
cliff2
  0
VERTEX
  8
cliff2
 10
454128.238658371
 20
6465341.73279737
  0
VERTEX
  8
cliff2
 10
454130.661341629
 20
6465340.06720263
  0
SEQEND
  0
POLYLINE
 66
1
  8
cliff2
  0
VERTEX
  8
cliff2
 10
454132.405585496
 20
6465325.03436061
  0
VERTEX
  8
cliff2
 10
454133.394414504
 20
6465322.26563939
  0
SEQEND
  0
POLYLINE
 66
1
  8
cliff2
  0
VERTEX
  8
cliff2
 10
454133.238290719
 20
6465324.69145359
  0
VERTEX
  8
cliff2
 10
454132.661709281
 20
6465321.80854641
  0
SEQEND
  0
POLYLINE
 66
1
  8
cliff2
  0
VERTEX
  8
cliff2
 10
454131.134615385
 20
6465342.60692308
  0
VERTEX
  8
cliff2
 10
454132.265384615
 20
6465339.89307692
  0
SEQEND
  0
POLYLINE
 66
1
  8
cliff2
  0
VERTEX
  8
cliff2
 10
454132.796188203
 20
6465341.15442014
  0
VERTEX
  8
cliff2
 10
454130.403811797
 20
6465339.44557985
  0
SEQEND
  0
POLYLINE
 66
1
  8
cliff2
  0
VERTEX
  8
cliff2
 10
454129.455435552
 20
6465341.28514518
  0
VERTEX
  8
cliff2
 10
454132.244564448
 20
6465342.21485482
  0
SEQEND
  0
POLYLINE
 66
1
  8
cliff2
  0
VERTEX
  8
cliff2
 10
454342.236104891
 20
6465247.9649888
  0
VERTEX
  8
cliff2
 10
454343.663895109
 20
6465250.5350112
  0
SEQEND
  0
POLYLINE
 66
1
  8
cliff2
  0
VERTEX
  8
cliff2
 10
454454.347637697
 20
6465142.31850367
  0
VERTEX
  8
cliff2
 10
454455.352362303
 20
6465145.08149633
  0
SEQEND
  0
POLYLINE
 66
1
  8
cliff2
  0
VERTEX
  8
cliff2
 10
454460.512334343
 20
6465140.51100909
  0
VERTEX
  8
cliff2
 10
454460.187665657
 20
6465137.58899091
  0
SEQEND
  0
POLYLINE
 66
1
  8
cliff2
  0
VERTEX
  8
cliff2
 10
454459.58169828
 20
6465143.14787715
  0
VERTEX
  8
cliff2
 10
454461.41830172
 20
6465140.85212285
  0
SEQEND
  0
POLYLINE
 66
1
  8
cliff2
  0
VERTEX
  8
cliff2
 10
454461.253912632
 20
6465142.59050649
  0
VERTEX
  8
cliff2
 10
454459.846087368
 20
6465140.00949351
  0
SEQEND
  0
POLYLINE
 66
1
  8
cliff2
  0
VERTEX
  8
cliff2
 10
454460.156527369
 20
6465144.77610947
  0
VERTEX
  8
cliff2
 10
454459.443472631
 20
6465141.92389052
  0
SEQEND
  0
POLYLINE
 66
1
  8
cliff2
  0
VERTEX
  8
cliff2
 10
454475.793076923
 20
6465196.03461538
  0
VERTEX
  8
cliff2
 10
454478.506923077
 20
6465197.16538461
  0
SEQEND
  0
POLYLINE
 66
1
  8
cliff2
  0
VERTEX
  8
cliff2
 10
454481.993076923
 20
6465195.23461539
  0
VERTEX
  8
cliff2
 10
454484.706923077
 20
6465196.36538462
  0
SEQEND
  0
POLYLINE
 66
1
  8
cliff2
  0
VERTEX
  8
cliff2
 10
454487.360793027
 20
6465191.49018239
  0
VERTEX
  8
cliff2
 10
454488.939206973
 20
6465189.00981761
  0
SEQEND
  0
POLYLINE
 66
1
  8
cliff2
  0
VERTEX
  8
cliff2
 10
454992.4
 20
6465920.43
  0
VERTEX
  8
cliff2
 10
454992.4
 20
6465923.37
  0
SEQEND
  0
POLYLINE
 66
1
  8
cliff2
  0
VERTEX
  8
cliff2
 10
454992.925348756
 20
6465923.65300783
  0
VERTEX
  8
cliff2
 10
454995.074651244
 20
6465921.64699217
  0
SEQEND
  0
POLYLINE
 66
1
  8
cliff2
  0
VERTEX
  8
cliff2
 10
454991.669076763
 20
6465922.41331218
  0
VERTEX
  8
cliff2
 10
454994.530923237
 20
6465923.08668782
  0
SEQEND
  0
POLYLINE
 66
1
  8
cliff2
  0
VERTEX
  8
cliff2
 10
454991.741995361
 20
6465921.97759861
  0
VERTEX
  8
cliff2
 10
454994.558004639
 20
6465922.82240139
  0
SEQEND
  0
POLYLINE
 66
1
  8
cliff2
  0
VERTEX
  8
cliff2
 10
454992.631698281
 20
6465923.24787715
  0
VERTEX
  8
cliff2
 10
454994.468301719
 20
6465920.95212285
  0
SEQEND
  0
POLYLINE
 66
1
  8
cliff2
  0
VERTEX
  8
cliff2
 10
454992.218459071
 20
6465919.88226328
  0
VERTEX
  8
cliff2
 10
454992.381540929
 20
6465922.81773672
  0
SEQEND
  0
POLYLINE
 66
1
  8
cliff2
  0
VERTEX
  8
cliff2
 10
454996.146914432
 20
6465923.23846424
  0
VERTEX
  8
cliff2
 10
454998.953085568
 20
6465922.36153576
  0
SEQEND
  0
POLYLINE
 66
1
  8
cliff2
  0
VERTEX
  8
cliff2
 10
454995.676886067
 20
6465921.78459071
  0
VERTEX
  8
cliff2
 10
454998.123113933
 20
6465923.41540929
  0
SEQEND
  0
POLYLINE
 66
1
  8
cliff2
  0
VERTEX
  8
cliff2
 10
454993.974
 20
6465921.918
  0
VERTEX
  8
cliff2
 10
454996.326
 20
6465923.682
  0
SEQEND
  0
POLYLINE
 66
1
  8
cliff2
  0
VERTEX
  8
cliff2
 10
454994.420901558
 20
6465921.20344249
  0
VERTEX
  8
cliff2
 10
454995.979098442
 20
6465923.69655751
  0
SEQEND
  0
POLYLINE
 66
1
  8
cliff2
  0
VERTEX
  8
cliff2
 10
454994.373890525
 20
6465923.35652737
  0
VERTEX
  8
cliff2
 10
454997.226109475
 20
6465922.64347263
  0
SEQEND
  0
POLYLINE
 66
1
  8
cliff2
  0
VERTEX
  8
cliff2
 10
454998.113261331
 20
6465924.05862252
  0
VERTEX
  8
cliff2
 10
454999.786738669
 20
6465921.64137748
  0
SEQEND
  0
POLYLINE
 66
1
  8
cliff2
  0
VERTEX
  8
cliff2
 10
450690.681007194
 20
6468123.99559286
  0
VERTEX
  8
cliff2
 10
450693.618992806
 20
6468124.10440714
  0
SEQEND
  0
POLYLINE
 66
1
  8
cliff2
  0
VERTEX
  8
cliff2
 10
450708.858546407
 20
6468126.88829072
  0
VERTEX
  8
cliff2
 10
450711.741453593
 20
6468126.31170928
  0
SEQEND
  0
POLYLINE
 66
1
  8
cliff2
  0
VERTEX
  8
cliff2
 10
450720.997988441
 20
6468128.32073502
  0
VERTEX
  8
cliff2
 10
450723.902011559
 20
6468128.77926498
  0
SEQEND
  0
POLYLINE
 66
1
  8
cliff2
  0
VERTEX
  8
cliff2
 10
450781.384438004
 20
6468509.04783209
  0
VERTEX
  8
cliff2
 10
450783.915561997
 20
6468507.55216791
  0
SEQEND
  0
POLYLINE
 66
1
  8
cliff2
  0
VERTEX
  8
cliff2
 10
450783.017753964
 20
6468508.85153773
  0
VERTEX
  8
cliff2
 10
450783.482246036
 20
6468505.94846227
  0
SEQEND
  0
POLYLINE
 66
1
  8
cliff2
  0
VERTEX
  8
cliff2
 10
450783.821756634
 20
6468509.15993139
  0
VERTEX
  8
cliff2
 10
450783.478243366
 20
6468506.24006861
  0
SEQEND
  0
POLYLINE
 66
1
  8
cliff2
  0
VERTEX
  8
cliff2
 10
450813.121756634
 20
6467761.34006861
  0
VERTEX
  8
cliff2
 10
450812.778243366
 20
6467764.25993139
  0
SEQEND
  0
POLYLINE
 66
1
  8
cliff2
  0
VERTEX
  8
cliff2
 10
450829.07
 20
6467757.75
  0
VERTEX
  8
cliff2
 10
450826.13
 20
6467757.75
  0
SEQEND
  0
POLYLINE
 66
1
  8
cliff2
  0
VERTEX
  8
cliff2
 10
450829.164473665
 20
6467757.57734554
  0
VERTEX
  8
cliff2
 10
450826.235526335
 20
6467757.32265446
  0
SEQEND
  0
POLYLINE
 66
1
  8
cliff2
  0
VERTEX
  8
cliff2
 10
450828.501143194
 20
6467756.97093863
  0
VERTEX
  8
cliff2
 10
450825.798856806
 20
6467758.12906137
  0
SEQEND
  0
POLYLINE
 66
1
  8
cliff2
  0
VERTEX
  8
cliff2
 10
450828.455836809
 20
6467756.37043875
  0
VERTEX
  8
cliff2
 10
450825.644163191
 20
6467757.22956125
  0
SEQEND
  0
POLYLINE
 66
1
  8
cliff2
  0
VERTEX
  8
cliff2
 10
450827.106520347
 20
6467757.60138359
  0
VERTEX
  8
cliff2
 10
450824.193479653
 20
6467757.99861641
  0
SEQEND
  0
POLYLINE
 66
1
  8
cliff2
  0
VERTEX
  8
cliff2
 10
450830.042596015
 20
6467832.81480797
  0
VERTEX
  8
cliff2
 10
450831.357403985
 20
6467830.18519203
  0
SEQEND
  0
POLYLINE
 66
1
  8
cliff2
  0
VERTEX
  8
cliff2
 10
450830.052928249
 20
6467832.48016106
  0
VERTEX
  8
cliff2
 10
450832.047071751
 20
6467830.31983894
  0
SEQEND
  0
POLYLINE
 66
1
  8
cliff2
  0
VERTEX
  8
cliff2
 10
450850.25173872
 20
6467614.80187153
  0
VERTEX
  8
cliff2
 10
450853.14826128
 20
6467614.29812847
  0
SEQEND
  0
POLYLINE
 66
1
  8
cliff2
  0
VERTEX
  8
cliff2
 10
450849.773890525
 20
6467614.24347263
  0
VERTEX
  8
cliff2
 10
450852.626109475
 20
6467614.95652737
  0
SEQEND
  0
POLYLINE
 66
1
  8
cliff2
  0
VERTEX
  8
cliff2
 10
450854.041377478
 20
6467614.28673867
  0
VERTEX
  8
cliff2
 10
450856.458622522
 20
6467612.61326133
  0
SEQEND
  0
POLYLINE
 66
1
  8
cliff2
  0
VERTEX
  8
cliff2
 10
450852.050000932
 20
6467614.84166651
  0
VERTEX
  8
cliff2
 10
450854.949999068
 20
6467614.35833349
  0
SEQEND
  0
POLYLINE
 66
1
  8
cliff2
  0
VERTEX
  8
cliff2
 10
450852.345195999
 20
6467614.92044379
  0
VERTEX
  8
cliff2
 10
450855.054804001
 20
6467613.77955621
  0
SEQEND
  0
POLYLINE
 66
1
  8
cliff2
  0
VERTEX
  8
cliff2
 10
450853.370635618
 20
6467614.65818688
  0
VERTEX
  8
cliff2
 10
450856.129364382
 20
6467613.64181312
  0
SEQEND
  0
POLYLINE
 66
1
  8
cliff2
  0
VERTEX
  8
cliff2
 10
450852.153811797
 20
6467615.10442015
  0
VERTEX
  8
cliff2
 10
450854.546188203
 20
6467613.39557985
  0
SEQEND
  0
POLYLINE
 66
1
  8
cliff2
  0
VERTEX
  8
cliff2
 10
450889.309493508
 20
6467760.79608737
  0
VERTEX
  8
cliff2
 10
450891.890506492
 20
6467762.20391263
  0
SEQEND
  0
POLYLINE
 66
1
  8
cliff2
  0
VERTEX
  8
cliff2
 10
450912.407889393
 20
6469637.95522576
  0
VERTEX
  8
cliff2
 10
450911.992110607
 20
6469635.04477424
  0
SEQEND
  0
POLYLINE
 66
1
  8
cliff2
  0
VERTEX
  8
cliff2
 10
450911.707889394
 20
6469646.15522575
  0
VERTEX
  8
cliff2
 10
450911.292110606
 20
6469643.24477424
  0
SEQEND
  0
POLYLINE
 66
1
  8
cliff2
  0
VERTEX
  8
cliff2
 10
450911.67352406
 20
6469649.4529064
  0
VERTEX
  8
cliff2
 10
450911.22647594
 20
6469646.5470936
  0
SEQEND
  0
POLYLINE
 66
1
  8
cliff2
  0
VERTEX
  8
cliff2
 10
450912.891696081
 20
6469632.11713729
  0
VERTEX
  8
cliff2
 10
450912.708303919
 20
6469629.18286271
  0
SEQEND
  0
POLYLINE
 66
1
  8
cliff2
  0
VERTEX
  8
cliff2
 10
450914.107889393
 20
6469634.95522576
  0
VERTEX
  8
cliff2
 10
450913.692110607
 20
6469632.04477424
  0
SEQEND
  0
POLYLINE
 66
1
  8
cliff2
  0
VERTEX
  8
cliff2
 10
450934.560553032
 20
6467998.83944697
  0
VERTEX
  8
cliff2
 10
450936.639446968
 20
6467996.76055303
  0
SEQEND
  0
POLYLINE
 66
1
  8
cliff2
  0
VERTEX
  8
cliff2
 10
450935.028764096
 20
6468512.67963464
  0
VERTEX
  8
cliff2
 10
450934.271235904
 20
6468515.52036536
  0
SEQEND
  0
POLYLINE
 66
1
  8
cliff2
  0
VERTEX
  8
cliff2
 10
450936.896557507
 20
6468514.67909844
  0
VERTEX
  8
cliff2
 10
450934.403442493
 20
6468513.12090156
  0
SEQEND
  0
POLYLINE
 66
1
  8
cliff2
  0
VERTEX
  8
cliff2
 10
450934.546270467
 20
6468512.73729533
  0
VERTEX
  8
cliff2
 10
450934.253729533
 20
6468515.66270467
  0
SEQEND
  0
POLYLINE
 66
1
  8
cliff2
  0
VERTEX
  8
cliff2
 10
450940.38965224
 20
6467853.3475073
  0
VERTEX
  8
cliff2
 10
450942.71034776
 20
6467855.1524927
  0
SEQEND
  0
POLYLINE
 66
1
  8
cliff2
  0
VERTEX
  8
cliff2
 10
450941.277923145
 20
6467849.28507774
  0
VERTEX
  8
cliff2
 10
450941.522076855
 20
6467852.21492226
  0
SEQEND
  0
POLYLINE
 66
1
  8
cliff2
  0
VERTEX
  8
cliff2
 10
450987.641377478
 20
6467875.21326133
  0
VERTEX
  8
cliff2
 10
450990.058622522
 20
6467876.88673867
  0
SEQEND
  0
POLYLINE
 66
1
  8
cliff2
  0
VERTEX
  8
cliff2
 10
450988.211761278
 20
6467876.55829033
  0
VERTEX
  8
cliff2
 10
450990.888238722
 20
6467875.34170967
  0
SEQEND
  0
POLYLINE
 66
1
  8
cliff2
  0
VERTEX
  8
cliff2
 10
450988.180543476
 20
6468493.18235506
  0
VERTEX
  8
cliff2
 10
450987.519456524
 20
6468490.31764494
  0
SEQEND
  0
POLYLINE
 66
1
  8
cliff2
  0
VERTEX
  8
cliff2
 10
451074.946270467
 20
6468434.63729533
  0
VERTEX
  8
cliff2
 10
451074.653729533
 20
6468437.56270467
  0
SEQEND
  0
POLYLINE
 66
1
  8
cliff2
  0
VERTEX
  8
cliff2
 10
451113.780345333
 20
6467506.50445656
  0
VERTEX
  8
cliff2
 10
451111.319654668
 20
6467504.89554344
  0
SEQEND
  0
POLYLINE
 66
1
  8
cliff2
  0
VERTEX
  8
cliff2
 10
451113.999277362
 20
6467507.73261423
  0
VERTEX
  8
cliff2
 10
451113.000722638
 20
6467504.96738577
  0
SEQEND
  0
POLYLINE
 66
1
  8
cliff2
  0
VERTEX
  8
cliff2
 10
451113.279286927
 20
6467507.87849462
  0
VERTEX
  8
cliff2
 10
451112.020713073
 20
6467505.22150538
  0
SEQEND
  0
POLYLINE
 66
1
  8
cliff2
  0
VERTEX
  8
cliff2
 10
451113.623524061
 20
6467509.1529064
  0
VERTEX
  8
cliff2
 10
451113.176475939
 20
6467506.2470936
  0
SEQEND
  0
POLYLINE
 66
1
  8
cliff2
  0
VERTEX
  8
cliff2
 10
451114.660877104
 20
6467509.40377767
  0
VERTEX
  8
cliff2
 10
451112.839122896
 20
6467507.09622233
  0
SEQEND
  0
POLYLINE
 66
1
  8
cliff2
  0
VERTEX
  8
cliff2
 10
451114.4116
 20
6467510.0612
  0
VERTEX
  8
cliff2
 10
451113.5884
 20
6467507.2388
  0
SEQEND
  0
POLYLINE
 66
1
  8
cliff2
  0
VERTEX
  8
cliff2
 10
451113.569027549
 20
6467508.40324569
  0
VERTEX
  8
cliff2
 10
451111.330972451
 20
6467506.49675431
  0
SEQEND
  0
POLYLINE
 66
1
  8
cliff2
  0
VERTEX
  8
cliff2
 10
451113.436931545
 20
6467510.00806605
  0
VERTEX
  8
cliff2
 10
451113.063068455
 20
6467507.09193395
  0
SEQEND
  0
POLYLINE
 66
1
  8
cliff2
  0
VERTEX
  8
cliff2
 10
451114.437284413
 20
6467511.53688641
  0
VERTEX
  8
cliff2
 10
451113.462715587
 20
6467508.76311359
  0
SEQEND
  0
POLYLINE
 66
1
  8
cliff2
  0
VERTEX
  8
cliff2
 10
451113.405719331
 20
6467512.45710501
  0
VERTEX
  8
cliff2
 10
451113.794280669
 20
6467509.54289499
  0
SEQEND
  0
POLYLINE
 66
1
  8
cliff2
  0
VERTEX
  8
cliff2
 10
451151.135192029
 20
6467996.25740399
  0
VERTEX
  8
cliff2
 10
451153.764807971
 20
6467994.94259601
  0
SEQEND
  0
POLYLINE
 66
1
  8
cliff2
  0
VERTEX
  8
cliff2
 10
451164.434016401
 20
6467524.84140862
  0
VERTEX
  8
cliff2
 10
451167.365983599
 20
6467525.05859138
  0
SEQEND
  0
POLYLINE
 66
1
  8
cliff2
  0
VERTEX
  8
cliff2
 10
451164.955719331
 20
6467914.05710501
  0
VERTEX
  8
cliff2
 10
451165.344280669
 20
6467911.14289499
  0
SEQEND
  0
POLYLINE
 66
1
  8
cliff2
  0
VERTEX
  8
cliff2
 10
451173.661709281
 20
6467933.19145359
  0
VERTEX
  8
cliff2
 10
451174.238290719
 20
6467930.30854641
  0
SEQEND
  0
POLYLINE
 66
1
  8
cliff2
  0
VERTEX
  8
cliff2
 10
451188.986036987
 20
6467900.91691245
  0
VERTEX
  8
cliff2
 10
451191.913963014
 20
6467901.18308755
  0
SEQEND
  0
POLYLINE
 66
1
  8
cliff2
  0
VERTEX
  8
cliff2
 10
451188.447507298
 20
6468162.78965224
  0
VERTEX
  8
cliff2
 10
451190.252492702
 20
6468165.11034776
  0
SEQEND
  0
POLYLINE
 66
1
  8
cliff2
  0
VERTEX
  8
cliff2
 10
451206.999889766
 20
6467569.87625872
  0
VERTEX
  8
cliff2
 10
451204.500110234
 20
6467571.42374128
  0
SEQEND
  0
POLYLINE
 66
1
  8
cliff2
  0
VERTEX
  8
cliff2
 10
451205.660123694
 20
6467569.6129008
  0
VERTEX
  8
cliff2
 10
451204.239876306
 20
6467572.1870992
  0
SEQEND
  0
POLYLINE
 66
1
  8
cliff2
  0
VERTEX
  8
cliff2
 10
451205.546270467
 20
6467570.13729533
  0
VERTEX
  8
cliff2
 10
451205.253729533
 20
6467573.06270467
  0
SEQEND
  0
POLYLINE
 66
1
  8
cliff2
  0
VERTEX
  8
cliff2
 10
451205.646270467
 20
6467570.93729533
  0
VERTEX
  8
cliff2
 10
451205.353729533
 20
6467573.86270467
  0
SEQEND
  0
POLYLINE
 66
1
  8
cliff2
  0
VERTEX
  8
cliff2
 10
451206.389206974
 20
6467571.75981761
  0
VERTEX
  8
cliff2
 10
451204.810793026
 20
6467574.24018239
  0
SEQEND
  0
POLYLINE
 66
1
  8
cliff2
  0
VERTEX
  8
cliff2
 10
451225.660267287
 20
6467970.5647845
  0
VERTEX
  8
cliff2
 10
451222.839732713
 20
6467969.7352155
  0
SEQEND
  0
POLYLINE
 66
1
  8
cliff2
  0
VERTEX
  8
cliff2
 10
451229.709493508
 20
6469363.10391263
  0
VERTEX
  8
cliff2
 10
451232.290506492
 20
6469361.69608737
  0
SEQEND
  0
POLYLINE
 66
1
  8
cliff2
  0
VERTEX
  8
cliff2
 10
451241.539732713
 20
6468111.4352155
  0
VERTEX
  8
cliff2
 10
451244.360267287
 20
6468112.2647845
  0
SEQEND
  0
POLYLINE
 66
1
  8
cliff2
  0
VERTEX
  8
cliff2
 10
451245.11380421
 20
6468111.86075443
  0
VERTEX
  8
cliff2
 10
451247.88619579
 20
6468112.83924557
  0
SEQEND
  0
POLYLINE
 66
1
  8
cliff2
  0
VERTEX
  8
cliff2
 10
451252.834590712
 20
6467898.37688607
  0
VERTEX
  8
cliff2
 10
451254.465409288
 20
6467900.82311393
  0
SEQEND
  0
POLYLINE
 66
1
  8
cliff2
  0
VERTEX
  8
cliff2
 10
451252.747956822
 20
6468100.8299492
  0
VERTEX
  8
cliff2
 10
451254.652043178
 20
6468103.0700508
  0
SEQEND
  0
POLYLINE
 66
1
  8
cliff2
  0
VERTEX
  8
cliff2
 10
451259.01380421
 20
6468105.06075443
  0
VERTEX
  8
cliff2
 10
451261.78619579
 20
6468106.03924557
  0
SEQEND
  0
POLYLINE
 66
1
  8
cliff2
  0
VERTEX
  8
cliff2
 10
451265.582002363
 20
6467982.37279504
  0
VERTEX
  8
cliff2
 10
451264.317997637
 20
6467985.02720496
  0
SEQEND
  0
POLYLINE
 66
1
  8
cliff2
  0
VERTEX
  8
cliff2
 10
451272.693691239
 20
6468106.2894854
  0
VERTEX
  8
cliff2
 10
451274.206308761
 20
6468108.8105146
  0
SEQEND
  0
POLYLINE
 66
1
  8
cliff2
  0
VERTEX
  8
cliff2
 10
451272.445195999
 20
6468107.47955621
  0
VERTEX
  8
cliff2
 10
451275.154804002
 20
6468108.62044379
  0
SEQEND
  0
POLYLINE
 66
1
  8
cliff2
  0
VERTEX
  8
cliff2
 10
451289.176
 20
6467821.482
  0
VERTEX
  8
cliff2
 10
451286.824
 20
6467819.718
  0
SEQEND
  0
POLYLINE
 66
1
  8
cliff2
  0
VERTEX
  8
cliff2
 10
451287.384590712
 20
6468276.47688607
  0
VERTEX
  8
cliff2
 10
451289.015409288
 20
6468278.92311393
  0
SEQEND
  0
POLYLINE
 66
1
  8
cliff2
  0
VERTEX
  8
cliff2
 10
451289.850000932
 20
6468279.34166651
  0
VERTEX
  8
cliff2
 10
451292.749999068
 20
6468278.85833349
  0
SEQEND
  0
POLYLINE
 66
1
  8
cliff2
  0
VERTEX
  8
cliff2
 10
451303.31766894
 20
6468122.79135152
  0
VERTEX
  8
cliff2
 10
451303.68233106
 20
6468125.70864848
  0
SEQEND
  0
POLYLINE
 66
1
  8
cliff2
  0
VERTEX
  8
cliff2
 10
451302.889445974
 20
6468124.64340972
  0
VERTEX
  8
cliff2
 10
451305.610554026
 20
6468125.75659028
  0
SEQEND
  0
POLYLINE
 66
1
  8
cliff2
  0
VERTEX
  8
cliff2
 10
451319.494535559
 20
6468191.29763183
  0
VERTEX
  8
cliff2
 10
451320.005464441
 20
6468188.40236817
  0
SEQEND
  0
POLYLINE
 66
1
  8
cliff2
  0
VERTEX
  8
cliff2
 10
451323.062334343
 20
6468217.63899091
  0
VERTEX
  8
cliff2
 10
451322.737665657
 20
6468220.56100909
  0
SEQEND
  0
POLYLINE
 66
1
  8
cliff2
  0
VERTEX
  8
cliff2
 10
451322.279315978
 20
6468218.36878396
  0
VERTEX
  8
cliff2
 10
451323.720684022
 20
6468220.93121604
  0
SEQEND
  0
POLYLINE
 66
1
  8
cliff2
  0
VERTEX
  8
cliff2
 10
451322.384590712
 20
6468220.37688607
  0
VERTEX
  8
cliff2
 10
451324.015409288
 20
6468222.82311393
  0
SEQEND
  0
POLYLINE
 66
1
  8
cliff2
  0
VERTEX
  8
cliff2
 10
451326.63
 20
6468223.65
  0
VERTEX
  8
cliff2
 10
451329.57
 20
6468223.65
  0
SEQEND
  0
POLYLINE
 66
1
  8
cliff2
  0
VERTEX
  8
cliff2
 10
451343.403886633
 20
6468282.13807698
  0
VERTEX
  8
cliff2
 10
451343.096113367
 20
6468285.06192302
  0
SEQEND
  0
POLYLINE
 66
1
  8
cliff2
  0
VERTEX
  8
cliff2
 10
451349.480695414
 20
6468277.53541534
  0
VERTEX
  8
cliff2
 10
451351.219304586
 20
6468275.16458466
  0
SEQEND
  0
POLYLINE
 66
1
  8
cliff2
  0
VERTEX
  8
cliff2
 10
451349.391995361
 20
6468276.32240139
  0
VERTEX
  8
cliff2
 10
451352.208004639
 20
6468275.47759861
  0
SEQEND
  0
POLYLINE
 66
1
  8
cliff2
  0
VERTEX
  8
cliff2
 10
451350.558301534
 20
6468275.13932889
  0
VERTEX
  8
cliff2
 10
451352.941698466
 20
6468276.86067111
  0
SEQEND
  0
POLYLINE
 66
1
  8
cliff2
  0
VERTEX
  8
cliff2
 10
451357.071811477
 20
6469544.6542087
  0
VERTEX
  8
cliff2
 10
451358.428188523
 20
6469542.0457913
  0
SEQEND
  0
POLYLINE
 66
1
  8
cliff2
  0
VERTEX
  8
cliff2
 10
451358.51228277
 20
6469540.68085955
  0
VERTEX
  8
cliff2
 10
451360.78771723
 20
6469538.81914045
  0
SEQEND
  0
POLYLINE
 66
1
  8
cliff2
  0
VERTEX
  8
cliff2
 10
451365.250831763
 20
6467974.26220505
  0
VERTEX
  8
cliff2
 10
451367.849168237
 20
6467975.63779495
  0
SEQEND
  0
POLYLINE
 66
1
  8
cliff2
  0
VERTEX
  8
cliff2
 10
451364.321505377
 20
6467975.47928693
  0
VERTEX
  8
cliff2
 10
451366.978494623
 20
6467974.22071307
  0
SEQEND
  0
POLYLINE
 66
1
  8
cliff2
  0
VERTEX
  8
cliff2
 10
451378.55307326
 20
6468296.15570748
  0
VERTEX
  8
cliff2
 10
451379.94692674
 20
6468298.74429252
  0
SEQEND
  0
POLYLINE
 66
1
  8
cliff2
  0
VERTEX
  8
cliff2
 10
451395.070635618
 20
6468297.84181312
  0
VERTEX
  8
cliff2
 10
451397.829364382
 20
6468298.85818688
  0
SEQEND
  0
POLYLINE
 66
1
  8
cliff2
  0
VERTEX
  8
cliff2
 10
451398.809817613
 20
6467870.33920697
  0
VERTEX
  8
cliff2
 10
451401.290182387
 20
6467868.76079303
  0
SEQEND
  0
POLYLINE
 66
1
  8
cliff2
  0
VERTEX
  8
cliff2
 10
451402.569916508
 20
6468275.62407836
  0
VERTEX
  8
cliff2
 10
451405.230083492
 20
6468276.87592164
  0
SEQEND
  0
POLYLINE
 66
1
  8
cliff2
  0
VERTEX
  8
cliff2
 10
451405.537665656
 20
6468296.16100909
  0
VERTEX
  8
cliff2
 10
451405.862334343
 20
6468293.23899091
  0
SEQEND
  0
POLYLINE
 66
1
  8
cliff2
  0
VERTEX
  8
cliff2
 10
451409.264807971
 20
6468270.75740398
  0
VERTEX
  8
cliff2
 10
451406.635192029
 20
6468269.44259601
  0
SEQEND
  0
POLYLINE
 66
1
  8
cliff2
  0
VERTEX
  8
cliff2
 10
451409.611157956
 20
6468252.8146124
  0
VERTEX
  8
cliff2
 10
451411.988842044
 20
6468251.0853876
  0
SEQEND
  0
POLYLINE
 66
1
  8
cliff2
  0
VERTEX
  8
cliff2
 10
451422.358333489
 20
6467867.59999907
  0
VERTEX
  8
cliff2
 10
451422.841666511
 20
6467864.70000093
  0
SEQEND
  0
POLYLINE
 66
1
  8
cliff2
  0
VERTEX
  8
cliff2
 10
451417.96878396
 20
6468160.17931598
  0
VERTEX
  8
cliff2
 10
451420.53121604
 20
6468161.62068402
  0
SEQEND
  0
POLYLINE
 66
1
  8
cliff2
  0
VERTEX
  8
cliff2
 10
451428.637665657
 20
6468218.06100909
  0
VERTEX
  8
cliff2
 10
451428.962334344
 20
6468215.13899091
  0
SEQEND
  0
POLYLINE
 66
1
  8
cliff2
  0
VERTEX
  8
cliff2
 10
451429.858333489
 20
6468213.89999907
  0
VERTEX
  8
cliff2
 10
451430.341666511
 20
6468211.00000093
  0
SEQEND
  0
POLYLINE
 66
1
  8
cliff2
  0
VERTEX
  8
cliff2
 10
451430.486687821
 20
6468214.23092324
  0
VERTEX
  8
cliff2
 10
451429.813312179
 20
6468211.36907676
  0
SEQEND
  0
POLYLINE
 66
1
  8
cliff2
  0
VERTEX
  8
cliff2
 10
451429.358333489
 20
6468216.39999907
  0
VERTEX
  8
cliff2
 10
451429.841666511
 20
6468213.50000093
  0
SEQEND
  0
POLYLINE
 66
1
  8
cliff2
  0
VERTEX
  8
cliff2
 10
451432.641453593
 20
6467833.58829072
  0
VERTEX
  8
cliff2
 10
451429.758546407
 20
6467833.01170928
  0
SEQEND
  0
POLYLINE
 66
1
  8
cliff2
  0
VERTEX
  8
cliff2
 10
451432.817968209
 20
6467833.67273851
  0
VERTEX
  8
cliff2
 10
451429.882031791
 20
6467833.82726149
  0
SEQEND
  0
POLYLINE
 66
1
  8
cliff2
  0
VERTEX
  8
cliff2
 10
451437.860553032
 20
6468163.13944697
  0
VERTEX
  8
cliff2
 10
451439.939446968
 20
6468161.06055303
  0
SEQEND
  0
POLYLINE
 66
1
  8
cliff2
  0
VERTEX
  8
cliff2
 10
451437.658333489
 20
6468200.49999907
  0
VERTEX
  8
cliff2
 10
451438.141666511
 20
6468197.60000093
  0
SEQEND
  0
POLYLINE
 66
1
  8
cliff2
  0
VERTEX
  8
cliff2
 10
451442.189203686
 20
6468160.19675128
  0
VERTEX
  8
cliff2
 10
451441.010796314
 20
6468157.50324872
  0
SEQEND
  0
POLYLINE
 66
1
  8
cliff2
  0
VERTEX
  8
cliff2
 10
451453.886738669
 20
6467901.65862252
  0
VERTEX
  8
cliff2
 10
451452.213261331
 20
6467899.24137748
  0
SEQEND
  0
POLYLINE
 66
1
  8
cliff2
  0
VERTEX
  8
cliff2
 10
451458.058333489
 20
6468101.79999907
  0
VERTEX
  8
cliff2
 10
451458.541666511
 20
6468098.90000093
  0
SEQEND
  0
POLYLINE
 66
1
  8
cliff2
  0
VERTEX
  8
cliff2
 10
451457.153725182
 20
6468101.86515726
  0
VERTEX
  8
cliff2
 10
451458.946274819
 20
6468099.53484274
  0
SEQEND
  0
POLYLINE
 66
1
  8
cliff2
  0
VERTEX
  8
cliff2
 10
451457.120735016
 20
6468103.70201156
  0
VERTEX
  8
cliff2
 10
451457.579264984
 20
6468100.79798844
  0
SEQEND
  0
POLYLINE
 66
1
  8
cliff2
  0
VERTEX
  8
cliff2
 10
451456.643691239
 20
6468103.9605146
  0
VERTEX
  8
cliff2
 10
451458.156308761
 20
6468101.4394854
  0
SEQEND
  0
POLYLINE
 66
1
  8
cliff2
  0
VERTEX
  8
cliff2
 10
451456.858333489
 20
6468109.29999907
  0
VERTEX
  8
cliff2
 10
451457.341666511
 20
6468106.40000093
  0
SEQEND
  0
POLYLINE
 66
1
  8
cliff2
  0
VERTEX
  8
cliff2
 10
451456.458333488
 20
6468111.19999907
  0
VERTEX
  8
cliff2
 10
451456.941666512
 20
6468108.30000093
  0
SEQEND
  0
POLYLINE
 66
1
  8
cliff2
  0
VERTEX
  8
cliff2
 10
451456.337665657
 20
6468112.06100909
  0
VERTEX
  8
cliff2
 10
451456.662334343
 20
6468109.13899091
  0
SEQEND
  0
POLYLINE
 66
1
  8
cliff2
  0
VERTEX
  8
cliff2
 10
451458.353007828
 20
6468120.97465124
  0
VERTEX
  8
cliff2
 10
451456.346992172
 20
6468118.82534876
  0
SEQEND
  0
POLYLINE
 66
1
  8
cliff2
  0
VERTEX
  8
cliff2
 10
451457.337665657
 20
6468122.16100909
  0
VERTEX
  8
cliff2
 10
451457.662334343
 20
6468119.23899091
  0
SEQEND
  0
POLYLINE
 66
1
  8
cliff2
  0
VERTEX
  8
cliff2
 10
451457.720735016
 20
6468123.20201156
  0
VERTEX
  8
cliff2
 10
451458.179264984
 20
6468120.29798844
  0
SEQEND
  0
POLYLINE
 66
1
  8
cliff2
  0
VERTEX
  8
cliff2
 10
451457.420735017
 20
6468124.10201156
  0
VERTEX
  8
cliff2
 10
451457.879264983
 20
6468121.19798844
  0
SEQEND
  0
POLYLINE
 66
1
  8
cliff2
  0
VERTEX
  8
cliff2
 10
451456.693691239
 20
6468124.2105146
  0
VERTEX
  8
cliff2
 10
451458.206308761
 20
6468121.6894854
  0
SEQEND
  0
POLYLINE
 66
1
  8
cliff2
  0
VERTEX
  8
cliff2
 10
451456.451420621
 20
6468124.88416813
  0
VERTEX
  8
cliff2
 10
451458.048579379
 20
6468122.41583187
  0
SEQEND
  0
POLYLINE
 66
1
  8
cliff2
  0
VERTEX
  8
cliff2
 10
451456.420735017
 20
6468128.10201156
  0
VERTEX
  8
cliff2
 10
451456.879264983
 20
6468125.19798844
  0
SEQEND
  0
POLYLINE
 66
1
  8
cliff2
  0
VERTEX
  8
cliff2
 10
451457.096113367
 20
6468131.76192302
  0
VERTEX
  8
cliff2
 10
451457.403886633
 20
6468128.83807698
  0
SEQEND
  0
POLYLINE
 66
1
  8
cliff2
  0
VERTEX
  8
cliff2
 10
451459.618060466
 20
6468069.20373644
  0
VERTEX
  8
cliff2
 10
451459.181939534
 20
6468066.29626356
  0
SEQEND
  0
POLYLINE
 66
1
  8
cliff2
  0
VERTEX
  8
cliff2
 10
452726.153711232
 20
6467932.58703841
  0
VERTEX
  8
cliff2
 10
452729.046288768
 20
6467933.11296159
  0
SEQEND
  0
POLYLINE
 66
1
  8
cliff2
  0
VERTEX
  8
cliff2
 10
452725.858546407
 20
6467932.68829072
  0
VERTEX
  8
cliff2
 10
452728.741453593
 20
6467932.11170928
  0
SEQEND
  0
POLYLINE
 66
1
  8
cliff2
  0
VERTEX
  8
cliff2
 10
452741.123890525
 20
6467768.54347263
  0
VERTEX
  8
cliff2
 10
452743.976109475
 20
6467769.25652737
  0
SEQEND
  0
POLYLINE
 66
1
  8
cliff2
  0
VERTEX
  8
cliff2
 10
452746.039485399
 20
6467779.55630876
  0
VERTEX
  8
cliff2
 10
452748.560514601
 20
6467778.04369124
  0
SEQEND
  0
POLYLINE
 66
1
  8
cliff2
  0
VERTEX
  8
cliff2
 10
452746.734590712
 20
6467929.87688607
  0
VERTEX
  8
cliff2
 10
452748.365409288
 20
6467932.32311393
  0
SEQEND
  0
POLYLINE
 66
1
  8
cliff2
  0
VERTEX
  8
cliff2
 10
452747.50830392
 20
6467930.08286271
  0
VERTEX
  8
cliff2
 10
452747.69169608
 20
6467933.01713729
  0
SEQEND
  0
POLYLINE
 66
1
  8
cliff2
  0
VERTEX
  8
cliff2
 10
452748.417910784
 20
6467931.32835837
  0
VERTEX
  8
cliff2
 10
452751.082089216
 20
6467932.57164163
  0
SEQEND
  0
POLYLINE
 66
1
  8
cliff2
  0
VERTEX
  8
cliff2
 10
452749.566383414
 20
6467932.7933152
  0
VERTEX
  8
cliff2
 10
452751.733616586
 20
6467930.8066848
  0
SEQEND
  0
POLYLINE
 66
1
  8
cliff2
  0
VERTEX
  8
cliff2
 10
452756.470714719
 20
6467931.74107107
  0
VERTEX
  8
cliff2
 10
452758.729285281
 20
6467929.85892893
  0
SEQEND
  0
POLYLINE
 66
1
  8
cliff2
  0
VERTEX
  8
cliff2
 10
452765.455435552
 20
6467689.81485482
  0
VERTEX
  8
cliff2
 10
452768.244564448
 20
6467688.88514518
  0
SEQEND
  0
POLYLINE
 66
1
  8
cliff2
  0
VERTEX
  8
cliff2
 10
452776.02410515
 20
6467923.17159957
  0
VERTEX
  8
cliff2
 10
452775.27589485
 20
6467920.32840043
  0
SEQEND
  0
POLYLINE
 66
1
  8
cliff2
  0
VERTEX
  8
cliff2
 10
452775.031797183
 20
6467921.33678259
  0
VERTEX
  8
cliff2
 10
452777.868202817
 20
6467920.56321741
  0
SEQEND
  0
POLYLINE
 66
1
  8
cliff2
  0
VERTEX
  8
cliff2
 10
452777.62410515
 20
6467921.57159957
  0
VERTEX
  8
cliff2
 10
452776.87589485
 20
6467918.72840043
  0
SEQEND
  0
POLYLINE
 66
1
  8
cliff2
  0
VERTEX
  8
cliff2
 10
452788.848856806
 20
6467873.67906137
  0
VERTEX
  8
cliff2
 10
452791.551143194
 20
6467872.52093863
  0
SEQEND
  0
POLYLINE
 66
1
  8
cliff2
  0
VERTEX
  8
cliff2
 10
452813.934842736
 20
6467799.65372518
  0
VERTEX
  8
cliff2
 10
452816.265157264
 20
6467801.44627482
  0
SEQEND
  0
POLYLINE
 66
1
  8
cliff2
  0
VERTEX
  8
cliff2
 10
452820.53
 20
6467679.4
  0
VERTEX
  8
cliff2
 10
452823.47
 20
6467679.4
  0
SEQEND
  0
POLYLINE
 66
1
  8
cliff2
  0
VERTEX
  8
cliff2
 10
452941.036782586
 20
6467570.96820282
  0
VERTEX
  8
cliff2
 10
452940.263217414
 20
6467568.13179718
  0
SEQEND
  0
POLYLINE
 66
1
  8
cliff2
  0
VERTEX
  8
cliff2
 10
452941.822401392
 20
6467572.75800464
  0
VERTEX
  8
cliff2
 10
452940.977598608
 20
6467569.94199536
  0
SEQEND
  0
POLYLINE
 66
1
  8
cliff2
  0
VERTEX
  8
cliff2
 10
452941.258333488
 20
6467573.04999907
  0
VERTEX
  8
cliff2
 10
452941.741666512
 20
6467570.15000093
  0
SEQEND
  0
POLYLINE
 66
1
  8
cliff2
  0
VERTEX
  8
cliff2
 10
452941.031112227
 20
6467573.03499498
  0
VERTEX
  8
cliff2
 10
452941.668887773
 20
6467570.16500502
  0
SEQEND
  0
POLYLINE
 66
1
  8
cliff2
  0
VERTEX
  8
cliff2
 10
452947.143472631
 20
6467592.07610948
  0
VERTEX
  8
cliff2
 10
452947.856527369
 20
6467589.22389053
  0
SEQEND
  0
POLYLINE
 66
1
  8
cliff2
  0
VERTEX
  8
cliff2
 10
452953.07
 20
6467633.9
  0
VERTEX
  8
cliff2
 10
452950.13
 20
6467633.9
  0
SEQEND
  0
POLYLINE
 66
1
  8
cliff2
  0
VERTEX
  8
cliff2
 10
452950.934590711
 20
6467635.82311393
  0
VERTEX
  8
cliff2
 10
452952.565409289
 20
6467633.37688607
  0
SEQEND
  0
POLYLINE
 66
1
  8
cliff2
  0
VERTEX
  8
cliff2
 10
452952.876109475
 20
6467634.25652737
  0
VERTEX
  8
cliff2
 10
452950.023890525
 20
6467633.54347263
  0
SEQEND
  0
POLYLINE
 66
1
  8
cliff2
  0
VERTEX
  8
cliff2
 10
452950.985145184
 20
6467635.94456445
  0
VERTEX
  8
cliff2
 10
452951.914854816
 20
6467633.15543555
  0
SEQEND
  0
POLYLINE
 66
1
  8
cliff2
  0
VERTEX
  8
cliff2
 10
452954.111709281
 20
6467611.34145359
  0
VERTEX
  8
cliff2
 10
452954.688290719
 20
6467608.45854641
  0
SEQEND
  0
POLYLINE
 66
1
  8
cliff2
  0
VERTEX
  8
cliff2
 10
452954.79199224
 20
6467630.28736955
  0
VERTEX
  8
cliff2
 10
452955.40800776
 20
6467627.41263045
  0
SEQEND
  0
POLYLINE
 66
1
  8
cliff2
  0
VERTEX
  8
cliff2
 10
452953.41713729
 20
6467635.40830392
  0
VERTEX
  8
cliff2
 10
452950.48286271
 20
6467635.59169608
  0
SEQEND
  0
POLYLINE
 66
1
  8
cliff2
  0
VERTEX
  8
cliff2
 10
452973.258333488
 20
6467746.24999907
  0
VERTEX
  8
cliff2
 10
452973.741666512
 20
6467743.35000093
  0
SEQEND
  0
POLYLINE
 66
1
  8
cliff2
  0
VERTEX
  8
cliff2
 10
452973.029095853
 20
6467746.19482211
  0
VERTEX
  8
cliff2
 10
452973.570904147
 20
6467743.30517789
  0
SEQEND
  0
POLYLINE
 66
1
  8
cliff2
  0
VERTEX
  8
cliff2
 10
452974.771235903
 20
6467744.92036536
  0
VERTEX
  8
cliff2
 10
452975.528764097
 20
6467742.07963464
  0
SEQEND
  0
POLYLINE
 66
1
  8
cliff2
  0
VERTEX
  8
cliff2
 10
452974.994535559
 20
6467744.89763183
  0
VERTEX
  8
cliff2
 10
452975.505464441
 20
6467742.00236817
  0
SEQEND
  0
POLYLINE
 66
1
  8
cliff2
  0
VERTEX
  8
cliff2
 10
452977.499999068
 20
6467560.25833349
  0
VERTEX
  8
cliff2
 10
452974.600000932
 20
6467560.74166651
  0
SEQEND
  0
POLYLINE
 66
1
  8
cliff2
  0
VERTEX
  8
cliff2
 10
452990.946914432
 20
6467761.43846424
  0
VERTEX
  8
cliff2
 10
452993.753085568
 20
6467760.56153576
  0
SEQEND
  0
POLYLINE
 66
1
  8
cliff2
  0
VERTEX
  8
cliff2
 10
452999.797631831
 20
6467747.59453556
  0
VERTEX
  8
cliff2
 10
452996.902368169
 20
6467748.10546444
  0
SEQEND
  0
POLYLINE
 66
1
  8
cliff2
  0
VERTEX
  8
cliff2
 10
453000.43
 20
6467758.9
  0
VERTEX
  8
cliff2
 10
453003.37
 20
6467758.9
  0
SEQEND
  0
POLYLINE
 66
1
  8
cliff2
  0
VERTEX
  8
cliff2
 10
453006.320938631
 20
6467704.55114319
  0
VERTEX
  8
cliff2
 10
453007.479061369
 20
6467701.84885681
  0
SEQEND
  0
POLYLINE
 66
1
  8
cliff2
  0
VERTEX
  8
cliff2
 10
453007.122076855
 20
6467705.01492226
  0
VERTEX
  8
cliff2
 10
453006.877923145
 20
6467702.08507774
  0
SEQEND
  0
POLYLINE
 66
1
  8
cliff2
  0
VERTEX
  8
cliff2
 10
453024.186532359
 20
6467699.79491366
  0
VERTEX
  8
cliff2
 10
453021.713467641
 20
6467698.20508634
  0
SEQEND
  0
POLYLINE
 66
1
  8
cliff2
  0
VERTEX
  8
cliff2
 10
453022.858333488
 20
6467701.24999907
  0
VERTEX
  8
cliff2
 10
453023.341666512
 20
6467698.35000093
  0
SEQEND
  0
POLYLINE
 66
1
  8
cliff2
  0
VERTEX
  8
cliff2
 10
453023.480859551
 20
6467709.48771723
  0
VERTEX
  8
cliff2
 10
453021.619140449
 20
6467707.21228277
  0
SEQEND
  0
POLYLINE
 66
1
  8
cliff2
  0
VERTEX
  8
cliff2
 10
453021.657010354
 20
6467710.35427092
  0
VERTEX
  8
cliff2
 10
453023.342989646
 20
6467707.94572908
  0
SEQEND
  0
POLYLINE
 66
1
  8
cliff2
  0
VERTEX
  8
cliff2
 10
453023.226475939
 20
6467728.65290639
  0
VERTEX
  8
cliff2
 10
453023.673524061
 20
6467725.7470936
  0
SEQEND
  0
POLYLINE
 66
1
  8
cliff2
  0
VERTEX
  8
cliff2
 10
453100.1
 20
6468071.77
  0
VERTEX
  8
cliff2
 10
453100.1
 20
6468068.83
  0
SEQEND
  0
POLYLINE
 66
1
  8
cliff2
  0
VERTEX
  8
cliff2
 10
453107.33436061
 20
6469127.1944145
  0
VERTEX
  8
cliff2
 10
453104.56563939
 20
6469126.2055855
  0
SEQEND
  0
POLYLINE
 66
1
  8
cliff2
  0
VERTEX
  8
cliff2
 10
453108.93899091
 20
6468259.76233434
  0
VERTEX
  8
cliff2
 10
453111.86100909
 20
6468259.43766566
  0
SEQEND
  0
POLYLINE
 66
1
  8
cliff2
  0
VERTEX
  8
cliff2
 10
453106.492347396
 20
6468259.5598714
  0
VERTEX
  8
cliff2
 10
453109.407652604
 20
6468259.9401286
  0
SEQEND
  0
POLYLINE
 66
1
  8
cliff2
  0
VERTEX
  8
cliff2
 10
453107.272795037
 20
6468260.28200236
  0
VERTEX
  8
cliff2
 10
453109.927204963
 20
6468259.01799764
  0
SEQEND
  0
POLYLINE
 66
1
  8
cliff2
  0
VERTEX
  8
cliff2
 10
453107.169916508
 20
6468260.07592164
  0
VERTEX
  8
cliff2
 10
453109.830083492
 20
6468258.82407836
  0
SEQEND
  0
POLYLINE
 66
1
  8
cliff2
  0
VERTEX
  8
cliff2
 10
453117.681834062
 20
6468259.9734083
  0
VERTEX
  8
cliff2
 10
453120.618165938
 20
6468259.8265917
  0
SEQEND
  0
POLYLINE
 66
1
  8
cliff2
  0
VERTEX
  8
cliff2
 10
453118.63965224
 20
6468260.7024927
  0
VERTEX
  8
cliff2
 10
453120.960347759
 20
6468258.8975073
  0
SEQEND
  0
POLYLINE
 66
1
  8
cliff2
  0
VERTEX
  8
cliff2
 10
453115.976886067
 20
6468259.03459071
  0
VERTEX
  8
cliff2
 10
453118.423113933
 20
6468260.66540929
  0
SEQEND
  0
POLYLINE
 66
1
  8
cliff2
  0
VERTEX
  8
cliff2
 10
453117.320714719
 20
6468260.94107107
  0
VERTEX
  8
cliff2
 10
453119.579285281
 20
6468259.05892893
  0
SEQEND
  0
POLYLINE
 66
1
  8
cliff2
  0
VERTEX
  8
cliff2
 10
453117.03169828
 20
6468260.44787715
  0
VERTEX
  8
cliff2
 10
453118.86830172
 20
6468258.15212285
  0
SEQEND
  0
POLYLINE
 66
1
  8
cliff2
  0
VERTEX
  8
cliff2
 10
453117.693479653
 20
6468259.59861641
  0
VERTEX
  8
cliff2
 10
453120.606520347
 20
6468259.20138359
  0
SEQEND
  0
POLYLINE
 66
1
  8
cliff2
  0
VERTEX
  8
cliff2
 10
453122.861709282
 20
6468194.79145359
  0
VERTEX
  8
cliff2
 10
453123.438290718
 20
6468191.90854641
  0
SEQEND
  0
POLYLINE
 66
1
  8
cliff2
  0
VERTEX
  8
cliff2
 10
453120.210553032
 20
6468260.88944697
  0
VERTEX
  8
cliff2
 10
453122.289446968
 20
6468258.81055303
  0
SEQEND
  0
POLYLINE
 66
1
  8
cliff2
  0
VERTEX
  8
cliff2
 10
453120.43
 20
6468259.75
  0
VERTEX
  8
cliff2
 10
453123.37
 20
6468259.75
  0
SEQEND
  0
POLYLINE
 66
1
  8
cliff2
  0
VERTEX
  8
cliff2
 10
453121.419838936
 20
6468260.64707175
  0
VERTEX
  8
cliff2
 10
453123.580161064
 20
6468258.65292825
  0
SEQEND
  0
POLYLINE
 66
1
  8
cliff2
  0
VERTEX
  8
cliff2
 10
453123.065005022
 20
6468186.91888777
  0
VERTEX
  8
cliff2
 10
453125.934994978
 20
6468186.28111223
  0
SEQEND
  0
POLYLINE
 66
1
  8
cliff2
  0
VERTEX
  8
cliff2
 10
453123.105435552
 20
6468186.76485482
  0
VERTEX
  8
cliff2
 10
453125.894564448
 20
6468185.83514518
  0
SEQEND
  0
POLYLINE
 66
1
  8
cliff2
  0
VERTEX
  8
cliff2
 10
453123.347507298
 20
6468188.31034776
  0
VERTEX
  8
cliff2
 10
453125.152492702
 20
6468185.98965224
  0
SEQEND
  0
POLYLINE
 66
1
  8
cliff2
  0
VERTEX
  8
cliff2
 10
453126.25
 20
6468247.17
  0
VERTEX
  8
cliff2
 10
453126.25
 20
6468244.23
  0
SEQEND
  0
POLYLINE
 66
1
  8
cliff2
  0
VERTEX
  8
cliff2
 10
453126.645709376
 20
6468246.7508009
  0
VERTEX
  8
cliff2
 10
453125.754290624
 20
6468243.9491991
  0
SEQEND
  0
POLYLINE
 66
1
  8
cliff2
  0
VERTEX
  8
cliff2
 10
453126.348092983
 20
6468243.06387262
  0
VERTEX
  8
cliff2
 10
453123.651907017
 20
6468244.23612738
  0
SEQEND
  0
POLYLINE
 66
1
  8
cliff2
  0
VERTEX
  8
cliff2
 10
453127.426
 20
6468244.682
  0
VERTEX
  8
cliff2
 10
453125.074
 20
6468242.918
  0
SEQEND
  0
POLYLINE
 66
1
  8
cliff2
  0
VERTEX
  8
cliff2
 10
453126.795266836
 20
6468246.36626429
  0
VERTEX
  8
cliff2
 10
453127.004733164
 20
6468243.43373571
  0
SEQEND
  0
POLYLINE
 66
1
  8
cliff2
  0
VERTEX
  8
cliff2
 10
453124.760347759
 20
6468242.7975073
  0
VERTEX
  8
cliff2
 10
453122.43965224
 20
6468244.6024927
  0
SEQEND
  0
POLYLINE
 66
1
  8
cliff2
  0
VERTEX
  8
cliff2
 10
453125.3612
 20
6468242.9884
  0
VERTEX
  8
cliff2
 10
453122.5388
 20
6468243.8116
  0
SEQEND
  0
POLYLINE
 66
1
  8
cliff2
  0
VERTEX
  8
cliff2
 10
453126.032355058
 20
6468243.63054348
  0
VERTEX
  8
cliff2
 10
453123.167644942
 20
6468242.96945652
  0
SEQEND
  0
POLYLINE
 66
1
  8
cliff2
  0
VERTEX
  8
cliff2
 10
453124.156923077
 20
6468243.03461538
  0
VERTEX
  8
cliff2
 10
453121.443076923
 20
6468244.16538461
  0
SEQEND
  0
POLYLINE
 66
1
  8
cliff2
  0
VERTEX
  8
cliff2
 10
453127.522583807
 20
6468245.45226165
  0
VERTEX
  8
cliff2
 10
453125.577416194
 20
6468243.24773835
  0
SEQEND
  0
POLYLINE
 66
1
  8
cliff2
  0
VERTEX
  8
cliff2
 10
453125.358928933
 20
6468248.07928528
  0
VERTEX
  8
cliff2
 10
453127.241071068
 20
6468245.82071472
  0
SEQEND
  0
POLYLINE
 66
1
  8
cliff2
  0
VERTEX
  8
cliff2
 10
453125.891709672
 20
6468248.03823872
  0
VERTEX
  8
cliff2
 10
453127.108290328
 20
6468245.36176128
  0
SEQEND
  0
POLYLINE
 66
1
  8
cliff2
  0
VERTEX
  8
cliff2
 10
453126.178007575
 20
6468250.8563106
  0
VERTEX
  8
cliff2
 10
453125.321992425
 20
6468248.0436894
  0
SEQEND
  0
POLYLINE
 66
1
  8
cliff2
  0
VERTEX
  8
cliff2
 10
453126.068497439
 20
6468251.11031114
  0
VERTEX
  8
cliff2
 10
453125.731502561
 20
6468248.18968887
  0
SEQEND
  0
POLYLINE
 66
1
  8
cliff2
  0
VERTEX
  8
cliff2
 10
453124.360553031
 20
6468251.63944697
  0
VERTEX
  8
cliff2
 10
453126.439446969
 20
6468249.56055303
  0
SEQEND
  0
POLYLINE
 66
1
  8
cliff2
  0
VERTEX
  8
cliff2
 10
453127.322583806
 20
6468249.55226165
  0
VERTEX
  8
cliff2
 10
453125.377416193
 20
6468247.34773835
  0
SEQEND
  0
POLYLINE
 66
1
  8
cliff2
  0
VERTEX
  8
cliff2
 10
453126.634573468
 20
6468250.85412909
  0
VERTEX
  8
cliff2
 10
453127.065426531
 20
6468247.94587091
  0
SEQEND
  0
POLYLINE
 66
1
  8
cliff2
  0
VERTEX
  8
cliff2
 10
453125.383984479
 20
6468252.53470029
  0
VERTEX
  8
cliff2
 10
453126.616015521
 20
6468249.8652997
  0
SEQEND
  0
POLYLINE
 66
1
  8
cliff2
  0
VERTEX
  8
cliff2
 10
453125.935145184
 20
6468252.89456445
  0
VERTEX
  8
cliff2
 10
453126.864854816
 20
6468250.10543555
  0
SEQEND
  0
POLYLINE
 66
1
  8
cliff2
  0
VERTEX
  8
cliff2
 10
453126.61992077
 20
6468252.61833616
  0
VERTEX
  8
cliff2
 10
453126.48007923
 20
6468249.68166384
  0
SEQEND
  0
POLYLINE
 66
1
  8
cliff2
  0
VERTEX
  8
cliff2
 10
453124.115760419
 20
6468256.47613731
  0
VERTEX
  8
cliff2
 10
453125.384239581
 20
6468253.8238627
  0
SEQEND
  0
POLYLINE
 66
1
  8
cliff2
  0
VERTEX
  8
cliff2
 10
453125.832090282
 20
6468253.25217236
  0
VERTEX
  8
cliff2
 10
453124.467909718
 20
6468250.64782764
  0
SEQEND
  0
POLYLINE
 66
1
  8
cliff2
  0
VERTEX
  8
cliff2
 10
453125.00694176
 20
6468254.22940933
  0
VERTEX
  8
cliff2
 10
453125.69305824
 20
6468251.37059067
  0
SEQEND
  0
POLYLINE
 66
1
  8
cliff2
  0
VERTEX
  8
cliff2
 10
453125.091579438
 20
6468254.63803739
  0
VERTEX
  8
cliff2
 10
453126.508420562
 20
6468252.06196261
  0
SEQEND
  0
POLYLINE
 66
1
  8
cliff2
  0
VERTEX
  8
cliff2
 10
453125.153644009
 20
6468254.96555711
  0
VERTEX
  8
cliff2
 10
453125.946355991
 20
6468252.13444289
  0
SEQEND
  0
POLYLINE
 66
1
  8
cliff2
  0
VERTEX
  8
cliff2
 10
453124.081290666
 20
6468255.10933659
  0
VERTEX
  8
cliff2
 10
453126.218709334
 20
6468253.09066341
  0
SEQEND
  0
POLYLINE
 66
1
  8
cliff2
  0
VERTEX
  8
cliff2
 10
453125.067693802
 20
6468256.50499514
  0
VERTEX
  8
cliff2
 10
453125.932306198
 20
6468253.69500486
  0
SEQEND
  0
POLYLINE
 66
1
  8
cliff2
  0
VERTEX
  8
cliff2
 10
453125.32410515
 20
6468257.37159957
  0
VERTEX
  8
cliff2
 10
453124.57589485
 20
6468254.52840043
  0
SEQEND
  0
POLYLINE
 66
1
  8
cliff2
  0
VERTEX
  8
cliff2
 10
453124.563872616
 20
6468258.04809298
  0
VERTEX
  8
cliff2
 10
453125.736127384
 20
6468255.35190702
  0
SEQEND
  0
POLYLINE
 66
1
  8
cliff2
  0
VERTEX
  8
cliff2
 10
453125.441813122
 20
6468257.02936438
  0
VERTEX
  8
cliff2
 10
453126.458186878
 20
6468254.27063562
  0
SEQEND
  0
POLYLINE
 66
1
  8
cliff2
  0
VERTEX
  8
cliff2
 10
453124.74369124
 20
6468258.7605146
  0
VERTEX
  8
cliff2
 10
453126.25630876
 20
6468256.2394854
  0
SEQEND
  0
POLYLINE
 66
1
  8
cliff2
  0
VERTEX
  8
cliff2
 10
453126.136782586
 20
6468258.76820282
  0
VERTEX
  8
cliff2
 10
453125.363217414
 20
6468255.93179718
  0
SEQEND
  0
POLYLINE
 66
1
  8
cliff2
  0
VERTEX
  8
cliff2
 10
453174.503777665
 20
6468182.7608771
  0
VERTEX
  8
cliff2
 10
453172.196222335
 20
6468180.9391229
  0
SEQEND
  0
POLYLINE
 66
1
  8
cliff2
  0
VERTEX
  8
cliff2
 10
453173.556527369
 20
6468182.12610948
  0
VERTEX
  8
cliff2
 10
453172.843472631
 20
6468179.27389053
  0
SEQEND
  0
POLYLINE
 66
1
  8
cliff2
  0
VERTEX
  8
cliff2
 10
453173.91385272
 20
6468181.81861255
  0
VERTEX
  8
cliff2
 10
453173.78614728
 20
6468178.88138745
  0
SEQEND
  0
POLYLINE
 66
1
  8
cliff2
  0
VERTEX
  8
cliff2
 10
453173.142110606
 20
6468181.70522576
  0
VERTEX
  8
cliff2
 10
453173.557889394
 20
6468178.79477424
  0
SEQEND
  0
POLYLINE
 66
1
  8
cliff2
  0
VERTEX
  8
cliff2
 10
453175.670453989
 20
6468184.35748611
  0
VERTEX
  8
cliff2
 10
453173.529546011
 20
6468182.34251389
  0
SEQEND
  0
POLYLINE
 66
1
  8
cliff2
  0
VERTEX
  8
cliff2
 10
453175.466531514
 20
6468184.9043243
  0
VERTEX
  8
cliff2
 10
453173.933468486
 20
6468182.3956757
  0
SEQEND
  0
POLYLINE
 66
1
  8
cliff2
  0
VERTEX
  8
cliff2
 10
453176.555707483
 20
6468830.94692674
  0
VERTEX
  8
cliff2
 10
453179.144292517
 20
6468829.55307326
  0
SEQEND
  0
POLYLINE
 66
1
  8
cliff2
  0
VERTEX
  8
cliff2
 10
453178.416621845
 20
6468831.2426424
  0
VERTEX
  8
cliff2
 10
453180.383378155
 20
6468829.05735761
  0
SEQEND
  0
POLYLINE
 66
1
  8
cliff2
  0
VERTEX
  8
cliff2
 10
453182.044564448
 20
6468133.28514518
  0
VERTEX
  8
cliff2
 10
453179.255435552
 20
6468134.21485482
  0
SEQEND
  0
POLYLINE
 66
1
  8
cliff2
  0
VERTEX
  8
cliff2
 10
453197.177923144
 20
6468168.31492226
  0
VERTEX
  8
cliff2
 10
453197.422076856
 20
6468165.38507774
  0
SEQEND
  0
POLYLINE
 66
1
  8
cliff2
  0
VERTEX
  8
cliff2
 10
453649.003248718
 20
6468131.08920369
  0
VERTEX
  8
cliff2
 10
453651.696751282
 20
6468129.91079631
  0
SEQEND
  0
POLYLINE
 66
1
  8
cliff2
  0
VERTEX
  8
cliff2
 10
453716.387252108
 20
6467515.63913705
  0
VERTEX
  8
cliff2
 10
453718.312747892
 20
6467517.86086295
  0
SEQEND
  0
POLYLINE
 66
1
  8
cliff2
  0
VERTEX
  8
cliff2
 10
453717.135139264
 20
6467517.20405571
  0
VERTEX
  8
cliff2
 10
453719.864860736
 20
6467518.29594429
  0
SEQEND
  0
POLYLINE
 66
1
  8
cliff2
  0
VERTEX
  8
cliff2
 10
453716.873890525
 20
6467517.74347263
  0
VERTEX
  8
cliff2
 10
453719.726109475
 20
6467518.45652737
  0
SEQEND
  0
POLYLINE
 66
1
  8
cliff2
  0
VERTEX
  8
cliff2
 10
453721.762334343
 20
6467518.43899091
  0
VERTEX
  8
cliff2
 10
453721.437665657
 20
6467521.36100909
  0
SEQEND
  0
POLYLINE
 66
1
  8
cliff2
  0
VERTEX
  8
cliff2
 10
453726.352928249
 20
6467523.41983894
  0
VERTEX
  8
cliff2
 10
453728.347071751
 20
6467525.58016106
  0
SEQEND
  0
POLYLINE
 66
1
  8
cliff2
  0
VERTEX
  8
cliff2
 10
453727.242596014
 20
6467524.28519203
  0
VERTEX
  8
cliff2
 10
453728.557403986
 20
6467526.91480797
  0
SEQEND
  0
POLYLINE
 66
1
  8
cliff2
  0
VERTEX
  8
cliff2
 10
453729.440068612
 20
6467527.07824337
  0
VERTEX
  8
cliff2
 10
453732.359931388
 20
6467527.42175663
  0
SEQEND
  0
POLYLINE
 66
1
  8
cliff2
  0
VERTEX
  8
cliff2
 10
453739.385387604
 20
6467572.81115796
  0
VERTEX
  8
cliff2
 10
453741.114612396
 20
6467575.18884204
  0
SEQEND
  0
POLYLINE
 66
1
  8
cliff2
  0
VERTEX
  8
cliff2
 10
453755.738076984
 20
6467503.09611337
  0
VERTEX
  8
cliff2
 10
453758.661923016
 20
6467503.40388663
  0
SEQEND
  0
POLYLINE
 66
1
  8
cliff2
  0
VERTEX
  8
cliff2
 10
453758.605435552
 20
6467587.03514518
  0
VERTEX
  8
cliff2
 10
453761.394564448
 20
6467587.96485482
  0
SEQEND
  0
POLYLINE
 66
1
  8
cliff2
  0
VERTEX
  8
cliff2
 10
453772.202368169
 20
6467563.29453556
  0
VERTEX
  8
cliff2
 10
453775.097631831
 20
6467563.80546444
  0
SEQEND
  0
POLYLINE
 66
1
  8
cliff2
  0
VERTEX
  8
cliff2
 10
453777.060553032
 20
6467599.36055303
  0
VERTEX
  8
cliff2
 10
453779.139446968
 20
6467601.43944697
  0
SEQEND
  0
POLYLINE
 66
1
  8
cliff2
  0
VERTEX
  8
cliff2
 10
453777.748062275
 20
6467601.32042322
  0
VERTEX
  8
cliff2
 10
453780.251937725
 20
6467599.77957678
  0
SEQEND
  0
POLYLINE
 66
1
  8
cliff2
  0
VERTEX
  8
cliff2
 10
453779.600464905
 20
6467600.82782216
  0
VERTEX
  8
cliff2
 10
453781.499535095
 20
6467603.07217784
  0
SEQEND
  0
POLYLINE
 66
1
  8
cliff2
  0
VERTEX
  8
cliff2
 10
453780.148856806
 20
6467602.67906137
  0
VERTEX
  8
cliff2
 10
453782.851143194
 20
6467601.52093863
  0
SEQEND
  0
POLYLINE
 66
1
  8
cliff2
  0
VERTEX
  8
cliff2
 10
453783.791802319
 20
6467602.59411204
  0
VERTEX
  8
cliff2
 10
453785.608197681
 20
6467604.90588796
  0
SEQEND
  0
POLYLINE
 66
1
  8
cliff2
  0
VERTEX
  8
cliff2
 10
453794.665299705
 20
6467612.96601552
  0
VERTEX
  8
cliff2
 10
453797.334700295
 20
6467611.73398448
  0
SEQEND
  0
POLYLINE
 66
1
  8
cliff2
  0
VERTEX
  8
cliff2
 10
453803.262334343
 20
6467614.83899091
  0
VERTEX
  8
cliff2
 10
453802.937665657
 20
6467617.76100909
  0
SEQEND
  0
POLYLINE
 66
1
  8
cliff2
  0
VERTEX
  8
cliff2
 10
453802.406684796
 20
6467615.86638341
  0
VERTEX
  8
cliff2
 10
453804.393315204
 20
6467618.03361659
  0
SEQEND
  0
POLYLINE
 66
1
  8
cliff2
  0
VERTEX
  8
cliff2
 10
453814.653725182
 20
6467622.13484274
  0
VERTEX
  8
cliff2
 10
453816.446274819
 20
6467624.46515726
  0
SEQEND
  0
POLYLINE
 66
1
  8
cliff2
  0
VERTEX
  8
cliff2
 10
453819.685077735
 20
6467627.37792314
  0
VERTEX
  8
cliff2
 10
453822.614922265
 20
6467627.62207686
  0
SEQEND
  0
POLYLINE
 66
1
  8
cliff2
  0
VERTEX
  8
cliff2
 10
453821.484329906
 20
6467627.63725615
  0
VERTEX
  8
cliff2
 10
453824.415670094
 20
6467627.86274385
  0
SEQEND
  0
POLYLINE
 66
1
  8
cliff2
  0
VERTEX
  8
cliff2
 10
453858.447164593
 20
6467612.13846818
  0
VERTEX
  8
cliff2
 10
453859.052835407
 20
6467609.26153182
  0
SEQEND
  0
POLYLINE
 66
1
  8
cliff2
  0
VERTEX
  8
cliff2
 10
453859.420735017
 20
6467611.10201156
  0
VERTEX
  8
cliff2
 10
453859.879264983
 20
6467608.19798844
  0
SEQEND
  0
POLYLINE
 66
1
  8
cliff2
  0
VERTEX
  8
cliff2
 10
453858.003811797
 20
6467611.05442015
  0
VERTEX
  8
cliff2
 10
453860.396188203
 20
6467609.34557986
  0
SEQEND
  0
POLYLINE
 66
1
  8
cliff2
  0
VERTEX
  8
cliff2
 10
453856.877981959
 20
6467612.67769925
  0
VERTEX
  8
cliff2
 10
453859.622018041
 20
6467611.62230075
  0
SEQEND
  0
POLYLINE
 66
1
  8
cliff2
  0
VERTEX
  8
cliff2
 10
454049.21380421
 20
6468581.46075443
  0
VERTEX
  8
cliff2
 10
454051.98619579
 20
6468582.43924557
  0
SEQEND
  0
POLYLINE
 66
1
  8
cliff2
  0
VERTEX
  8
cliff2
 10
454089.280873181
 20
6468461.90065955
  0
VERTEX
  8
cliff2
 10
454092.219126819
 20
6468461.79934045
  0
SEQEND
  0
POLYLINE
 66
1
  8
cliff2
  0
VERTEX
  8
cliff2
 10
454090.185192029
 20
6468461.24259602
  0
VERTEX
  8
cliff2
 10
454092.814807971
 20
6468462.55740399
  0
SEQEND
  0
POLYLINE
 66
1
  8
cliff2
  0
VERTEX
  8
cliff2
 10
454090.112528216
 20
6468462.01438488
  0
VERTEX
  8
cliff2
 10
454092.887471784
 20
6468462.98561512
  0
SEQEND
  0
POLYLINE
 66
1
  8
cliff2
  0
VERTEX
  8
cliff2
 10
454091.953442493
 20
6468462.87909844
  0
VERTEX
  8
cliff2
 10
454094.446557507
 20
6468461.32090156
  0
SEQEND
  0
POLYLINE
 66
1
  8
cliff2
  0
VERTEX
  8
cliff2
 10
454151.13
 20
6468460.35
  0
VERTEX
  8
cliff2
 10
454154.07
 20
6468460.35
  0
SEQEND
  0
POLYLINE
 66
1
  8
cliff2
  0
VERTEX
  8
cliff2
 10
454229.730245016
 20
6469792.75930959
  0
VERTEX
  8
cliff2
 10
454232.269754984
 20
6469794.24069041
  0
SEQEND
  0
POLYLINE
 66
1
  8
cliff2
  0
VERTEX
  8
cliff2
 10
454231.182293985
 20
6469793.05704834
  0
VERTEX
  8
cliff2
 10
454233.517706015
 20
6469794.84295166
  0
SEQEND
  0
POLYLINE
 66
1
  8
cliff2
  0
VERTEX
  8
cliff2
 10
454237.659309592
 20
6469715.81975499
  0
VERTEX
  8
cliff2
 10
454239.140690408
 20
6469713.28024502
  0
SEQEND
  0
POLYLINE
 66
1
  8
cliff2
  0
VERTEX
  8
cliff2
 10
454238.647782946
 20
6469715.61674418
  0
VERTEX
  8
cliff2
 10
454238.452217054
 20
6469712.68325582
  0
SEQEND
  0
POLYLINE
 66
1
  8
cliff2
  0
VERTEX
  8
cliff2
 10
454235.529061369
 20
6469763.99885681
  0
VERTEX
  8
cliff2
 10
454234.370938631
 20
6469766.70114319
  0
SEQEND
  0
POLYLINE
 66
1
  8
cliff2
  0
VERTEX
  8
cliff2
 10
454235.60800776
 20
6469764.21263045
  0
VERTEX
  8
cliff2
 10
454234.99199224
 20
6469767.08736955
  0
SEQEND
  0
POLYLINE
 66
1
  8
cliff2
  0
VERTEX
  8
cliff2
 10
454234.085677988
 20
6469765.24432812
  0
VERTEX
  8
cliff2
 10
454235.614322012
 20
6469767.75567188
  0
SEQEND
  0
POLYLINE
 66
1
  8
cliff2
  0
VERTEX
  8
cliff2
 10
454251.686559797
 20
6469693.39615994
  0
VERTEX
  8
cliff2
 10
454254.513440203
 20
6469694.20384006
  0
SEQEND
  0
POLYLINE
 66
1
  8
cliff2
  0
VERTEX
  8
cliff2
 10
454252.139732713
 20
6469694.3647845
  0
VERTEX
  8
cliff2
 10
454254.960267287
 20
6469693.5352155
  0
SEQEND
  0
POLYLINE
 66
1
  8
cliff2
  0
VERTEX
  8
cliff2
 10
454295.534442891
 20
6469792.55364401
  0
VERTEX
  8
cliff2
 10
454298.365557109
 20
6469793.34635599
  0
SEQEND
  0
POLYLINE
 66
1
  8
cliff2
  0
VERTEX
  8
cliff2
 10
454311.421039153
 20
6469693.49492158
  0
VERTEX
  8
cliff2
 10
454314.278960847
 20
6469692.80507842
  0
SEQEND
  0
POLYLINE
 66
1
  8
cliff2
  0
VERTEX
  8
cliff2
 10
454349.650831763
 20
6469799.63779495
  0
VERTEX
  8
cliff2
 10
454352.249168237
 20
6469798.26220505
  0
SEQEND
  0
POLYLINE
 66
1
  8
cliff2
  0
VERTEX
  8
cliff2
 10
454351.842989646
 20
6469798.95427092
  0
VERTEX
  8
cliff2
 10
454350.157010354
 20
6469796.54572908
  0
SEQEND
  0
POLYLINE
 66
1
  8
cliff2
  0
VERTEX
  8
cliff2
 10
454369.718336162
 20
6469749.51992077
  0
VERTEX
  8
cliff2
 10
454366.781663838
 20
6469749.38007923
  0
SEQEND
  0
POLYLINE
 66
1
  8
cliff2
  0
VERTEX
  8
cliff2
 10
454368.896188203
 20
6469748.94557985
  0
VERTEX
  8
cliff2
 10
454366.503811797
 20
6469750.65442014
  0
SEQEND
  0
POLYLINE
 66
1
  8
cliff2
  0
VERTEX
  8
cliff2
 10
454402.522002586
 20
6468379.38343208
  0
VERTEX
  8
cliff2
 10
454400.777997414
 20
6468377.01656792
  0
SEQEND
  0
POLYLINE
 66
1
  8
cliff2
  0
VERTEX
  8
cliff2
 10
454499.94587091
 20
6469010.03457347
  0
VERTEX
  8
cliff2
 10
454502.85412909
 20
6469010.46542653
  0
SEQEND
  0
POLYLINE
 66
1
  8
cliff2
  0
VERTEX
  8
cliff2
 10
454500.130544835
 20
6469009.91783899
  0
VERTEX
  8
cliff2
 10
454502.969455165
 20
6469010.68216101
  0
SEQEND
  0
POLYLINE
 66
1
  8
cliff2
  0
VERTEX
  8
cliff2
 10
454500.835192029
 20
6469009.84259601
  0
VERTEX
  8
cliff2
 10
454503.464807971
 20
6469011.15740399
  0
SEQEND
  0
POLYLINE
 66
1
  8
cliff2
  0
VERTEX
  8
cliff2
 10
454501.240068612
 20
6469010.87824337
  0
VERTEX
  8
cliff2
 10
454504.159931388
 20
6469011.22175663
  0
SEQEND
  0
POLYLINE
 66
1
  8
cliff2
  0
VERTEX
  8
cliff2
 10
454501.431998226
 20
6469010.39371226
  0
VERTEX
  8
cliff2
 10
454503.368001774
 20
6469012.60628774
  0
SEQEND
  0
POLYLINE
 66
1
  8
cliff2
  0
VERTEX
  8
cliff2
 10
454712.788410291
 20
6469837.23292532
  0
VERTEX
  8
cliff2
 10
454710.011589709
 20
6469836.26707468
  0
SEQEND
  0
POLYLINE
 66
1
  8
cliff2
  0
VERTEX
  8
cliff2
 10
454846.879315978
 20
6468857.33121604
  0
VERTEX
  8
cliff2
 10
454848.320684022
 20
6468854.76878396
  0
SEQEND
  0
POLYLINE
 66
1
  8
cliff2
  0
VERTEX
  8
cliff2
 10
454847.335139264
 20
6468856.54594429
  0
VERTEX
  8
cliff2
 10
454850.064860736
 20
6468855.45405571
  0
SEQEND
  0
POLYLINE
 66
1
  8
cliff2
  0
VERTEX
  8
cliff2
 10
454848.155177885
 20
6468855.62909585
  0
VERTEX
  8
cliff2
 10
454851.044822115
 20
6468856.17090415
  0
SEQEND
  0
POLYLINE
 66
1
  8
cliff2
  0
VERTEX
  8
cliff2
 10
454848.658546407
 20
6468855.58829072
  0
VERTEX
  8
cliff2
 10
454851.541453593
 20
6468855.01170928
  0
SEQEND
  0
POLYLINE
 66
1
  8
cliff2
  0
VERTEX
  8
cliff2
 10
454849.135139264
 20
6468856.34594429
  0
VERTEX
  8
cliff2
 10
454851.864860736
 20
6468855.25405571
  0
SEQEND
  0
POLYLINE
 66
1
  8
cliff2
  0
VERTEX
  8
cliff2
 10
454848.83269231
 20
6468856.76107226
  0
VERTEX
  8
cliff2
 10
454851.76730769
 20
6468856.93892774
  0
SEQEND
  0
POLYLINE
 66
1
  8
cliff2
  0
VERTEX
  8
cliff2
 10
454873.45212285
 20
6467847.93169828
  0
VERTEX
  8
cliff2
 10
454875.74787715
 20
6467849.76830172
  0
SEQEND
  0
POLYLINE
 66
1
  8
cliff2
  0
VERTEX
  8
cliff2
 10
454926.576109475
 20
6468707.74347263
  0
VERTEX
  8
cliff2
 10
454923.723890525
 20
6468708.45652737
  0
SEQEND
  0
POLYLINE
 66
1
  8
cliff2
  0
VERTEX
  8
cliff2
 10
450792.482031791
 20
6470309.72726149
  0
VERTEX
  8
cliff2
 10
450795.417968209
 20
6470309.57273852
  0
SEQEND
  0
POLYLINE
 66
1
  8
cliff2
  0
VERTEX
  8
cliff2
 10
451677.847093605
 20
6470989.72647594
  0
VERTEX
  8
cliff2
 10
451680.752906396
 20
6470990.17352406
  0
SEQEND
  0
POLYLINE
 66
1
  8
cliff2
  0
VERTEX
  8
cliff2
 10
451679.83
 20
6470989.9
  0
VERTEX
  8
cliff2
 10
451682.77
 20
6470989.9
  0
SEQEND
  0
POLYLINE
 66
1
  8
cliff2
  0
VERTEX
  8
cliff2
 10
451717.352492702
 20
6470914.68965224
  0
VERTEX
  8
cliff2
 10
451715.547507298
 20
6470917.01034776
  0
SEQEND
  0
POLYLINE
 66
1
  8
cliff2
  0
VERTEX
  8
cliff2
 10
451718.164784496
 20
6470917.36026729
  0
VERTEX
  8
cliff2
 10
451717.335215504
 20
6470914.53973271
  0
SEQEND
  0
POLYLINE
 66
1
  8
cliff2
  0
VERTEX
  8
cliff2
 10
451718.257105014
 20
6470915.25571933
  0
VERTEX
  8
cliff2
 10
451715.342894986
 20
6470915.64428067
  0
SEQEND
  0
POLYLINE
 66
1
  8
cliff2
  0
VERTEX
  8
cliff2
 10
451717.935011196
 20
6470915.03610489
  0
VERTEX
  8
cliff2
 10
451715.364988804
 20
6470916.46389511
  0
SEQEND
  0
POLYLINE
 66
1
  8
cliff2
  0
VERTEX
  8
cliff2
 10
451717.104055706
 20
6470917.86486074
  0
VERTEX
  8
cliff2
 10
451718.195944294
 20
6470915.13513926
  0
SEQEND
  0
POLYLINE
 66
1
  8
cliff2
  0
VERTEX
  8
cliff2
 10
451718.441764706
 20
6470919.09705882
  0
VERTEX
  8
cliff2
 10
451717.058235294
 20
6470916.50294118
  0
SEQEND
  0
POLYLINE
 66
1
  8
cliff2
  0
VERTEX
  8
cliff2
 10
451717.128358366
 20
6470919.88208922
  0
VERTEX
  8
cliff2
 10
451718.371641634
 20
6470917.21791079
  0
SEQEND
  0
POLYLINE
 66
1
  8
cliff2
  0
VERTEX
  8
cliff2
 10
451716.109817613
 20
6470919.53920697
  0
VERTEX
  8
cliff2
 10
451718.590182387
 20
6470917.96079303
  0
SEQEND
  0
POLYLINE
 66
1
  8
cliff2
  0
VERTEX
  8
cliff2
 10
451718.523113933
 20
6470917.71540929
  0
VERTEX
  8
cliff2
 10
451716.076886067
 20
6470916.08459071
  0
SEQEND
  0
POLYLINE
 66
1
  8
cliff2
  0
VERTEX
  8
cliff2
 10
451717.054290624
 20
6470920.9508009
  0
VERTEX
  8
cliff2
 10
451717.945709376
 20
6470918.1491991
  0
SEQEND
  0
POLYLINE
 66
1
  8
cliff2
  0
VERTEX
  8
cliff2
 10
451717.956308761
 20
6470920.8605146
  0
VERTEX
  8
cliff2
 10
451716.443691239
 20
6470918.3394854
  0
SEQEND
  0
POLYLINE
 66
1
  8
cliff2
  0
VERTEX
  8
cliff2
 10
451766.560553032
 20
6471346.56055303
  0
VERTEX
  8
cliff2
 10
451768.639446968
 20
6471348.63944697
  0
SEQEND
  0
POLYLINE
 66
1
  8
cliff2
  0
VERTEX
  8
cliff2
 10
451980.860553032
 20
6471520.56055303
  0
VERTEX
  8
cliff2
 10
451982.939446968
 20
6471522.63944697
  0
SEQEND
  0
POLYLINE
 66
1
  8
cliff2
  0
VERTEX
  8
cliff2
 10
452345.820735017
 20
6471977.69798844
  0
VERTEX
  8
cliff2
 10
452346.279264983
 20
6471980.60201156
  0
SEQEND
  0
POLYLINE
 66
1
  8
cliff2
  0
VERTEX
  8
cliff2
 10
452349.03
 20
6471927.55
  0
VERTEX
  8
cliff2
 10
452351.97
 20
6471927.55
  0
SEQEND
  0
POLYLINE
 66
1
  8
cliff2
  0
VERTEX
  8
cliff2
 10
452351.03
 20
6471927.6
  0
VERTEX
  8
cliff2
 10
452353.97
 20
6471927.6
  0
SEQEND
  0
POLYLINE
 66
1
  8
cliff2
  0
VERTEX
  8
cliff2
 10
452350.879634639
 20
6471927.4712359
  0
VERTEX
  8
cliff2
 10
452353.720365361
 20
6471928.2287641
  0
SEQEND
  0
POLYLINE
 66
1
  8
cliff2
  0
VERTEX
  8
cliff2
 10
452628.020365361
 20
6470618.7287641
  0
VERTEX
  8
cliff2
 10
452625.179634639
 20
6470617.9712359
  0
SEQEND
  0
POLYLINE
 66
1
  8
cliff2
  0
VERTEX
  8
cliff2
 10
452711.127822161
 20
6470649.9995351
  0
VERTEX
  8
cliff2
 10
452713.372177839
 20
6470648.10046491
  0
SEQEND
  0
POLYLINE
 66
1
  8
cliff2
  0
VERTEX
  8
cliff2
 10
453369.321505377
 20
6471076.07928693
  0
VERTEX
  8
cliff2
 10
453371.978494623
 20
6471074.82071307
  0
SEQEND
  0
POLYLINE
 66
1
  8
cliff2
  0
VERTEX
  8
cliff2
 10
453371.334590711
 20
6471075.22311393
  0
VERTEX
  8
cliff2
 10
453372.965409289
 20
6471072.77688607
  0
SEQEND
  0
POLYLINE
 66
1
  8
cliff2
  0
VERTEX
  8
cliff2
 10
453368.519838936
 20
6471078.04707175
  0
VERTEX
  8
cliff2
 10
453370.680161064
 20
6471076.05292825
  0
SEQEND
  0
POLYLINE
 66
1
  8
cliff2
  0
VERTEX
  8
cliff2
 10
453371.716621844
 20
6471075.34264239
  0
VERTEX
  8
cliff2
 10
453373.683378156
 20
6471073.15735761
  0
SEQEND
  0
POLYLINE
 66
1
  8
cliff2
  0
VERTEX
  8
cliff2
 10
453370.783735711
 20
6471074.60473316
  0
VERTEX
  8
cliff2
 10
453373.716264289
 20
6471074.39526684
  0
SEQEND
  0
POLYLINE
 66
1
  8
cliff2
  0
VERTEX
  8
cliff2
 10
453371.260870472
 20
6471075.58085253
  0
VERTEX
  8
cliff2
 10
453374.039129528
 20
6471074.61914747
  0
SEQEND
  0
POLYLINE
 66
1
  8
cliff2
  0
VERTEX
  8
cliff2
 10
454382.458648479
 20
6470588.88233106
  0
VERTEX
  8
cliff2
 10
454379.541351521
 20
6470588.51766894
  0
SEQEND
  0
POLYLINE
 66
1
  8
cliff2
  0
VERTEX
  8
cliff2
 10
454387.345944294
 20
6470598.26486074
  0
VERTEX
  8
cliff2
 10
454386.254055706
 20
6470595.53513926
  0
SEQEND
  0
POLYLINE
 66
1
  8
cliff2
  0
VERTEX
  8
cliff2
 10
454389.313895109
 20
6470600.0850112
  0
VERTEX
  8
cliff2
 10
454387.886104891
 20
6470597.5149888
  0
SEQEND
  0
POLYLINE
 66
1
  8
cliff2
  0
VERTEX
  8
cliff2
 10
454389.808197682
 20
6470599.30588796
  0
VERTEX
  8
cliff2
 10
454387.991802318
 20
6470596.99411204
  0
SEQEND
  0
POLYLINE
 66
1
  8
cliff2
  0
VERTEX
  8
cliff2
 10
454423.381663838
 20
6470577.88007923
  0
VERTEX
  8
cliff2
 10
454426.318336162
 20
6470578.01992077
  0
SEQEND
  0
POLYLINE
 66
1
  8
cliff2
  0
VERTEX
  8
cliff2
 10
454423.381663838
 20
6470578.71992077
  0
VERTEX
  8
cliff2
 10
454426.318336162
 20
6470578.58007923
  0
SEQEND
  0
POLYLINE
 66
1
  8
cliff2
  0
VERTEX
  8
cliff2
 10
454424.805435552
 20
6470577.63514518
  0
VERTEX
  8
cliff2
 10
454427.594564448
 20
6470578.56485482
  0
SEQEND
  0
POLYLINE
 66
1
  8
cliff2
  0
VERTEX
  8
cliff2
 10
454424.880245016
 20
6470577.95930959
  0
VERTEX
  8
cliff2
 10
454427.419754984
 20
6470579.44069041
  0
SEQEND
  0
POLYLINE
 66
1
  8
cliff2
  0
VERTEX
  8
cliff2
 10
454425.03
 20
6470578.05
  0
VERTEX
  8
cliff2
 10
454427.97
 20
6470578.05
  0
SEQEND
  0
POLYLINE
 66
1
  8
cliff2
  0
VERTEX
  8
cliff2
 10
454425.041351521
 20
6470578.41766894
  0
VERTEX
  8
cliff2
 10
454427.958648479
 20
6470578.78233106
  0
SEQEND
  0
POLYLINE
 66
1
  8
cliff2
  0
VERTEX
  8
cliff2
 10
454426.841351521
 20
6470578.51766894
  0
VERTEX
  8
cliff2
 10
454429.758648479
 20
6470578.88233106
  0
SEQEND
  0
POLYLINE
 66
1
  8
cliff2
  0
VERTEX
  8
cliff2
 10
454430.145579855
 20
6470578.0038118
  0
VERTEX
  8
cliff2
 10
454431.854420145
 20
6470580.3961882
  0
SEQEND
  0
POLYLINE
 66
1
  8
cliff2
  0
VERTEX
  8
cliff2
 10
454430.141351521
 20
6470579.31766894
  0
VERTEX
  8
cliff2
 10
454433.058648479
 20
6470579.68233106
  0
SEQEND
  0
POLYLINE
 66
1
  8
cliff2
  0
VERTEX
  8
cliff2
 10
454430.269076763
 20
6470579.11331218
  0
VERTEX
  8
cliff2
 10
454433.130923237
 20
6470579.78668782
  0
SEQEND
  0
POLYLINE
 66
1
  8
cliff2
  0
VERTEX
  8
cliff2
 10
454431.833468486
 20
6470578.0956757
  0
VERTEX
  8
cliff2
 10
454433.366531514
 20
6470580.6043243
  0
SEQEND
  0
POLYLINE
 66
1
  8
cliff2
  0
VERTEX
  8
cliff2
 10
454431.697507298
 20
6470578.33965224
  0
VERTEX
  8
cliff2
 10
454433.502492702
 20
6470580.66034776
  0
SEQEND
  0
POLYLINE
 66
1
  8
cliff2
  0
VERTEX
  8
cliff2
 10
454432.03
 20
6470579.7
  0
VERTEX
  8
cliff2
 10
454434.97
 20
6470579.7
  0
SEQEND
  0
POLYLINE
 66
1
  8
cliff2
  0
VERTEX
  8
cliff2
 10
454432.03
 20
6470579
  0
VERTEX
  8
cliff2
 10
454434.97
 20
6470579
  0
SEQEND
  0
POLYLINE
 66
1
  8
cliff2
  0
VERTEX
  8
cliff2
 10
454433.73
 20
6470580.35
  0
VERTEX
  8
cliff2
 10
454436.67
 20
6470580.35
  0
SEQEND
  0
POLYLINE
 66
1
  8
cliff2
  0
VERTEX
  8
cliff2
 10
454433.447827643
 20
6470578.66790972
  0
VERTEX
  8
cliff2
 10
454436.052172357
 20
6470580.03209028
  0
SEQEND
  0
POLYLINE
 66
1
  8
cliff2
  0
VERTEX
  8
cliff2
 10
454436.890663407
 20
6470579.48129067
  0
VERTEX
  8
cliff2
 10
454438.909336594
 20
6470581.61870934
  0
SEQEND
  0
POLYLINE
 66
1
  8
cliff2
  0
VERTEX
  8
cliff2
 10
454437.281174591
 20
6470580.89124698
  0
VERTEX
  8
cliff2
 10
454440.218825409
 20
6470581.00875302
  0
SEQEND
  0
POLYLINE
 66
1
  8
cliff2
  0
VERTEX
  8
cliff2
 10
454437.33
 20
6470580.4
  0
VERTEX
  8
cliff2
 10
454440.27
 20
6470580.4
  0
SEQEND
  0
POLYLINE
 66
1
  8
cliff2
  0
VERTEX
  8
cliff2
 10
454437.13169828
 20
6470579.15212285
  0
VERTEX
  8
cliff2
 10
454438.96830172
 20
6470581.44787715
  0
SEQEND
  0
POLYLINE
 66
1
  8
cliff2
  0
VERTEX
  8
cliff2
 10
454438.479641575
 20
6470580.0605276
  0
VERTEX
  8
cliff2
 10
454440.820358425
 20
6470581.8394724
  0
SEQEND
  0
POLYLINE
 66
1
  8
cliff2
  0
VERTEX
  8
cliff2
 10
454438.797507298
 20
6470579.23965224
  0
VERTEX
  8
cliff2
 10
454440.602492702
 20
6470581.56034776
  0
SEQEND
  0
POLYLINE
 66
1
  8
cliff2
  0
VERTEX
  8
cliff2
 10
454439.080717248
 20
6470581.25408491
  0
VERTEX
  8
cliff2
 10
454442.019282752
 20
6470581.34591509
  0
SEQEND
  0
POLYLINE
 66
1
  8
cliff2
  0
VERTEX
  8
cliff2
 10
454440.05212285
 20
6470581.36830172
  0
VERTEX
  8
cliff2
 10
454442.34787715
 20
6470579.53169828
  0
SEQEND
  0
POLYLINE
 66
1
  8
cliff2
  0
VERTEX
  8
cliff2
 10
454440.320402139
 20
6470580.2444014
  0
VERTEX
  8
cliff2
 10
454442.779597861
 20
6470581.8555986
  0
SEQEND
  0
POLYLINE
 66
1
  8
cliff2
  0
VERTEX
  8
cliff2
 10
454441.03
 20
6470580.3
  0
VERTEX
  8
cliff2
 10
454443.97
 20
6470580.3
  0
SEQEND
  0
POLYLINE
 66
1
  8
cliff2
  0
VERTEX
  8
cliff2
 10
454441.082263281
 20
6470580.58154093
  0
VERTEX
  8
cliff2
 10
454444.017736719
 20
6470580.41845907
  0
SEQEND
  0
POLYLINE
 66
1
  8
cliff2
  0
VERTEX
  8
cliff2
 10
454440.803248718
 20
6470579.81079631
  0
VERTEX
  8
cliff2
 10
454443.496751282
 20
6470580.98920369
  0
SEQEND
  0
POLYLINE
 66
1
  8
cliff2
  0
VERTEX
  8
cliff2
 10
454441.080936604
 20
6470581.44753345
  0
VERTEX
  8
cliff2
 10
454444.019063396
 20
6470581.55246655
  0
SEQEND
  0
POLYLINE
 66
1
  8
cliff2
  0
VERTEX
  8
cliff2
 10
454442.569811556
 20
6470582.04550473
  0
VERTEX
  8
cliff2
 10
454444.530188443
 20
6470579.85449527
  0
SEQEND
  0
POLYLINE
 66
1
  8
cliff2
  0
VERTEX
  8
cliff2
 10
454440.821039153
 20
6470581.20507842
  0
VERTEX
  8
cliff2
 10
454443.678960847
 20
6470581.89492158
  0
SEQEND
  0
POLYLINE
 66
1
  8
cliff2
  0
VERTEX
  8
cliff2
 10
454444.33
 20
6470588.65
  0
VERTEX
  8
cliff2
 10
454447.27
 20
6470588.65
  0
SEQEND
  0
POLYLINE
 66
1
  8
cliff2
  0
VERTEX
  8
cliff2
 10
454479.157591066
 20
6470600.06186104
  0
VERTEX
  8
cliff2
 10
454480.742408934
 20
6470602.53813896
  0
SEQEND
  0
POLYLINE
 66
1
  8
cliff2
  0
VERTEX
  8
cliff2
 10
454479.033610612
 20
6470601.07459292
  0
VERTEX
  8
cliff2
 10
454481.466389388
 20
6470602.72540709
  0
SEQEND
  0
POLYLINE
 66
1
  8
cliff2
  0
VERTEX
  8
cliff2
 10
454479.52840043
 20
6470601.07589485
  0
VERTEX
  8
cliff2
 10
454482.37159957
 20
6470601.82410515
  0
SEQEND
  0
POLYLINE
 66
1
  8
cliff2
  0
VERTEX
  8
cliff2
 10
454638.43
 20
6470367.8
  0
VERTEX
  8
cliff2
 10
454641.37
 20
6470367.8
  0
SEQEND
  0
POLYLINE
 66
1
  8
cliff2
  0
VERTEX
  8
cliff2
 10
454638.164584656
 20
6470366.78069542
  0
VERTEX
  8
cliff2
 10
454640.535415344
 20
6470368.51930459
  0
SEQEND
  0
POLYLINE
 66
1
  8
cliff2
  0
VERTEX
  8
cliff2
 10
454640.43
 20
6470367.65
  0
VERTEX
  8
cliff2
 10
454643.37
 20
6470367.65
  0
SEQEND
  0
POLYLINE
 66
1
  8
cliff2
  0
VERTEX
  8
cliff2
 10
454720.03
 20
6472200.95
  0
VERTEX
  8
cliff2
 10
454722.97
 20
6472200.95
  0
SEQEND
  0
POLYLINE
 66
1
  8
cliff2
  0
VERTEX
  8
cliff2
 10
454765.874
 20
6470350.482
  0
VERTEX
  8
cliff2
 10
454768.226
 20
6470348.718
  0
SEQEND
  0
POLYLINE
 66
1
  8
cliff2
  0
VERTEX
  8
cliff2
 10
450006.245729077
 20
6474703.34298965
  0
VERTEX
  8
cliff2
 10
450008.654270923
 20
6474701.65701035
  0
SEQEND
  0
POLYLINE
 66
1
  8
cliff2
  0
VERTEX
  8
cliff2
 10
450008.113467641
 20
6474701.90508634
  0
VERTEX
  8
cliff2
 10
450010.586532359
 20
6474703.49491366
  0
SEQEND
  0
POLYLINE
 66
1
  8
cliff2
  0
VERTEX
  8
cliff2
 10
450008.282031791
 20
6474702.87273852
  0
VERTEX
  8
cliff2
 10
450011.217968209
 20
6474703.02726148
  0
SEQEND
  0
POLYLINE
 66
1
  8
cliff2
  0
VERTEX
  8
cliff2
 10
452199.93
 20
6474677.8
  0
VERTEX
  8
cliff2
 10
452202.87
 20
6474677.8
  0
SEQEND
  0
POLYLINE
 66
1
  8
cliff2
  0
VERTEX
  8
cliff2
 10
452202.393945666
 20
6474678.83014818
  0
VERTEX
  8
cliff2
 10
452203.406054334
 20
6474676.06985182
  0
SEQEND
  0
POLYLINE
 66
1
  8
cliff2
  0
VERTEX
  8
cliff2
 10
452201.323385157
 20
6474678.7986917
  0
VERTEX
  8
cliff2
 10
452203.276614843
 20
6474676.6013083
  0
SEQEND
  0
POLYLINE
 66
1
  8
cliff2
  0
VERTEX
  8
cliff2
 10
452200.316686225
 20
6474678.08621573
  0
VERTEX
  8
cliff2
 10
452202.583313775
 20
6474676.21378427
  0
SEQEND
  0
POLYLINE
 66
1
  8
cliff2
  0
VERTEX
  8
cliff2
 10
452202.93
 20
6474677.15
  0
VERTEX
  8
cliff2
 10
452205.87
 20
6474677.15
  0
SEQEND
  0
POLYLINE
 66
1
  8
cliff2
  0
VERTEX
  8
cliff2
 10
452204.934590712
 20
6474678.42311393
  0
VERTEX
  8
cliff2
 10
452206.565409288
 20
6474675.97688607
  0
SEQEND
  0
POLYLINE
 66
1
  8
cliff2
  0
VERTEX
  8
cliff2
 10
452203.460870472
 20
6474678.08085253
  0
VERTEX
  8
cliff2
 10
452206.239129528
 20
6474677.11914747
  0
SEQEND
  0
POLYLINE
 66
1
  8
cliff2
  0
VERTEX
  8
cliff2
 10
452201.782536671
 20
6474677.56367863
  0
VERTEX
  8
cliff2
 10
452204.717463329
 20
6474677.73632137
  0
SEQEND
  0
POLYLINE
 66
1
  8
cliff2
  0
VERTEX
  8
cliff2
 10
452203.235517241
 20
6474678.8637931
  0
VERTEX
  8
cliff2
 10
452205.364482759
 20
6474676.8362069
  0
SEQEND
  0
POLYLINE
 66
1
  8
cliff2
  0
VERTEX
  8
cliff2
 10
452200.93
 20
6474677.4
  0
VERTEX
  8
cliff2
 10
452203.87
 20
6474677.4
  0
SEQEND
  0
POLYLINE
 66
1
  8
cliff2
  0
VERTEX
  8
cliff2
 10
452349.78286271
 20
6474489.69169608
  0
VERTEX
  8
cliff2
 10
452352.71713729
 20
6474489.50830392
  0
SEQEND
  0
POLYLINE
 66
1
  8
cliff2
  0
VERTEX
  8
cliff2
 10
452707.285077735
 20
6473153.12207686
  0
VERTEX
  8
cliff2
 10
452710.214922265
 20
6473152.87792314
  0
SEQEND
  0
POLYLINE
 66
1
  8
cliff2
  0
VERTEX
  8
cliff2
 10
452856.312288092
 20
6474692.66117099
  0
VERTEX
  8
cliff2
 10
452858.487711908
 20
6474694.63882901
  0
SEQEND
  0
POLYLINE
 66
1
  8
cliff2
  0
VERTEX
  8
cliff2
 10
452864.82044379
 20
6472881.554804
  0
VERTEX
  8
cliff2
 10
452863.67955621
 20
6472878.845196
  0
SEQEND
  0
POLYLINE
 66
1
  8
cliff2
  0
VERTEX
  8
cliff2
 10
452865.539369366
 20
6472881.86337835
  0
VERTEX
  8
cliff2
 10
452865.260630634
 20
6472878.93662166
  0
SEQEND
  0
POLYLINE
 66
1
  8
cliff2
  0
VERTEX
  8
cliff2
 10
452865.566749261
 20
6472881.96848375
  0
VERTEX
  8
cliff2
 10
452865.433250739
 20
6472879.03151625
  0
SEQEND
  0
POLYLINE
 66
1
  8
cliff2
  0
VERTEX
  8
cliff2
 10
452865.226227052
 20
6472882.30969276
  0
VERTEX
  8
cliff2
 10
452865.573772948
 20
6472879.39030724
  0
SEQEND
  0
POLYLINE
 66
1
  8
cliff2
  0
VERTEX
  8
cliff2
 10
452865.830918992
 20
6472883.06978897
  0
VERTEX
  8
cliff2
 10
452865.069081008
 20
6472880.23021103
  0
SEQEND
  0
POLYLINE
 66
1
  8
cliff2
  0
VERTEX
  8
cliff2
 10
452865.862961594
 20
6472883.24628877
  0
VERTEX
  8
cliff2
 10
452865.337038406
 20
6472880.35371123
  0
SEQEND
  0
POLYLINE
 66
1
  8
cliff2
  0
VERTEX
  8
cliff2
 10
452868.794564448
 20
6472887.06485482
  0
VERTEX
  8
cliff2
 10
452866.005435552
 20
6472886.13514518
  0
SEQEND
  0
POLYLINE
 66
1
  8
cliff2
  0
VERTEX
  8
cliff2
 10
452868.932306198
 20
6472888.20499514
  0
VERTEX
  8
cliff2
 10
452868.067693802
 20
6472885.39500486
  0
SEQEND
  0
POLYLINE
 66
1
  8
cliff2
  0
VERTEX
  8
cliff2
 10
452869.631291173
 20
6472886.99451708
  0
VERTEX
  8
cliff2
 10
452867.668708827
 20
6472884.80548292
  0
SEQEND
  0
POLYLINE
 66
1
  8
cliff2
  0
VERTEX
  8
cliff2
 10
452867.53169828
 20
6472889.34787715
  0
VERTEX
  8
cliff2
 10
452869.36830172
 20
6472887.05212285
  0
SEQEND
  0
POLYLINE
 66
1
  8
cliff2
  0
VERTEX
  8
cliff2
 10
452871.686104891
 20
6472933.8149888
  0
VERTEX
  8
cliff2
 10
452873.113895109
 20
6472936.3850112
  0
SEQEND
  0
POLYLINE
 66
1
  8
cliff2
  0
VERTEX
  8
cliff2
 10
452871.332849555
 20
6472934.53901537
  0
VERTEX
  8
cliff2
 10
452873.467150445
 20
6472936.56098463
  0
SEQEND
  0
POLYLINE
 66
1
  8
cliff2
  0
VERTEX
  8
cliff2
 10
452871.345791302
 20
6472935.17181148
  0
VERTEX
  8
cliff2
 10
452873.954208698
 20
6472936.52818852
  0
SEQEND
  0
POLYLINE
 66
1
  8
cliff2
  0
VERTEX
  8
cliff2
 10
452872.318459071
 20
6472935.98226328
  0
VERTEX
  8
cliff2
 10
452872.481540929
 20
6472938.91773672
  0
SEQEND
  0
POLYLINE
 66
1
  8
cliff2
  0
VERTEX
  8
cliff2
 10
452872.980543476
 20
6472935.81764494
  0
VERTEX
  8
cliff2
 10
452872.319456524
 20
6472938.68235506
  0
SEQEND
  0
POLYLINE
 66
1
  8
cliff2
  0
VERTEX
  8
cliff2
 10
452871.619838936
 20
6472937.05292825
  0
VERTEX
  8
cliff2
 10
452873.780161063
 20
6472939.04707175
  0
SEQEND
  0
POLYLINE
 66
1
  8
cliff2
  0
VERTEX
  8
cliff2
 10
452872.9
 20
6472937.23
  0
VERTEX
  8
cliff2
 10
452872.9
 20
6472940.17
  0
SEQEND
  0
POLYLINE
 66
1
  8
cliff2
  0
VERTEX
  8
cliff2
 10
452872.46153576
 20
6472938.54691443
  0
VERTEX
  8
cliff2
 10
452873.33846424
 20
6472941.35308557
  0
SEQEND
  0
POLYLINE
 66
1
  8
cliff2
  0
VERTEX
  8
cliff2
 10
452872.59199224
 20
6472940.21263045
  0
VERTEX
  8
cliff2
 10
452873.20800776
 20
6472943.08736955
  0
SEQEND
  0
POLYLINE
 66
1
  8
cliff2
  0
VERTEX
  8
cliff2
 10
452896.366383414
 20
6472866.8933152
  0
VERTEX
  8
cliff2
 10
452898.533616586
 20
6472864.9066848
  0
SEQEND
  0
POLYLINE
 66
1
  8
cliff2
  0
VERTEX
  8
cliff2
 10
452901.381085626
 20
6472837.07295544
  0
VERTEX
  8
cliff2
 10
452902.118914374
 20
6472834.22704456
  0
SEQEND
  0
POLYLINE
 66
1
  8
cliff2
  0
VERTEX
  8
cliff2
 10
452902.262271577
 20
6472836.88644926
  0
VERTEX
  8
cliff2
 10
452901.637728423
 20
6472834.01355075
  0
SEQEND
  0
POLYLINE
 66
1
  8
cliff2
  0
VERTEX
  8
cliff2
 10
452897.994913659
 20
6473272.66346764
  0
VERTEX
  8
cliff2
 10
452896.405086341
 20
6473275.13653236
  0
SEQEND
  0
POLYLINE
 66
1
  8
cliff2
  0
VERTEX
  8
cliff2
 10
452898.583616586
 20
6473272.6066848
  0
VERTEX
  8
cliff2
 10
452896.416383414
 20
6473274.5933152
  0
SEQEND
  0
POLYLINE
 66
1
  8
cliff2
  0
VERTEX
  8
cliff2
 10
452896.408235294
 20
6473274.30294118
  0
VERTEX
  8
cliff2
 10
452897.791764706
 20
6473276.89705882
  0
SEQEND
  0
POLYLINE
 66
1
  8
cliff2
  0
VERTEX
  8
cliff2
 10
452897.15
 20
6473273.33
  0
VERTEX
  8
cliff2
 10
452897.15
 20
6473276.27
  0
SEQEND
  0
POLYLINE
 66
1
  8
cliff2
  0
VERTEX
  8
cliff2
 10
452897.757889394
 20
6473273.19477424
  0
VERTEX
  8
cliff2
 10
452897.342110606
 20
6473276.10522576
  0
SEQEND
  0
POLYLINE
 66
1
  8
cliff2
  0
VERTEX
  8
cliff2
 10
452896.647956822
 20
6473274.5299492
  0
VERTEX
  8
cliff2
 10
452898.552043178
 20
6473276.7700508
  0
SEQEND
  0
POLYLINE
 66
1
  8
cliff2
  0
VERTEX
  8
cliff2
 10
452920.544328123
 20
6472825.81432201
  0
VERTEX
  8
cliff2
 10
452923.055671877
 20
6472824.28567799
  0
SEQEND
  0
POLYLINE
 66
1
  8
cliff2
  0
VERTEX
  8
cliff2
 10
452922.280599633
 20
6472824.79198287
  0
VERTEX
  8
cliff2
 10
452925.219400367
 20
6472824.70801713
  0
SEQEND
  0
POLYLINE
 66
1
  8
cliff2
  0
VERTEX
  8
cliff2
 10
452922.280936604
 20
6472824.45246655
  0
VERTEX
  8
cliff2
 10
452925.219063396
 20
6472824.34753345
  0
SEQEND
  0
POLYLINE
 66
1
  8
cliff2
  0
VERTEX
  8
cliff2
 10
452923.177273262
 20
6472825.29132206
  0
VERTEX
  8
cliff2
 10
452925.822726738
 20
6472824.00867795
  0
SEQEND
  0
POLYLINE
 66
1
  8
cliff2
  0
VERTEX
  8
cliff2
 10
452923.393712259
 20
6472824.56800177
  0
VERTEX
  8
cliff2
 10
452925.606287741
 20
6472822.63199823
  0
SEQEND
  0
POLYLINE
 66
1
  8
cliff2
  0
VERTEX
  8
cliff2
 10
452923.316567919
 20
6472824.32200259
  0
VERTEX
  8
cliff2
 10
452925.683432081
 20
6472822.57799741
  0
SEQEND
  0
POLYLINE
 66
1
  8
cliff2
  0
VERTEX
  8
cliff2
 10
452954.49254996
 20
6474637.9749214
  0
VERTEX
  8
cliff2
 10
452952.20745004
 20
6474636.1250786
  0
SEQEND
  0
POLYLINE
 66
1
  8
cliff2
  0
VERTEX
  8
cliff2
 10
453099.683255818
 20
6474308.85221705
  0
VERTEX
  8
cliff2
 10
453102.616744182
 20
6474309.04778295
  0
SEQEND
  0
POLYLINE
 66
1
  8
cliff2
  0
VERTEX
  8
cliff2
 10
453115.305435552
 20
6474312.26485482
  0
VERTEX
  8
cliff2
 10
453118.094564448
 20
6474311.33514518
  0
SEQEND
  0
POLYLINE
 66
1
  8
cliff2
  0
VERTEX
  8
cliff2
 10
453156.28286271
 20
6474315.40830392
  0
VERTEX
  8
cliff2
 10
453159.21713729
 20
6474315.59169608
  0
SEQEND
  0
POLYLINE
 66
1
  8
cliff2
  0
VERTEX
  8
cliff2
 10
453212.985387605
 20
6474325.91115796
  0
VERTEX
  8
cliff2
 10
453214.714612395
 20
6474328.28884204
  0
SEQEND
  0
POLYLINE
 66
1
  8
cliff2
  0
VERTEX
  8
cliff2
 10
453224.73
 20
6474331.65
  0
VERTEX
  8
cliff2
 10
453227.67
 20
6474331.65
  0
SEQEND
  0
POLYLINE
 66
1
  8
cliff2
  0
VERTEX
  8
cliff2
 10
453232.253725182
 20
6474331.53484274
  0
VERTEX
  8
cliff2
 10
453234.046274818
 20
6474333.86515726
  0
SEQEND
  0
POLYLINE
 66
1
  8
cliff2
  0
VERTEX
  8
cliff2
 10
453275.502941177
 20
6473373.35823529
  0
VERTEX
  8
cliff2
 10
453278.097058824
 20
6473374.74176471
  0
SEQEND
  0
POLYLINE
 66
1
  8
cliff2
  0
VERTEX
  8
cliff2
 10
453289.53899091
 20
6474338.86233434
  0
VERTEX
  8
cliff2
 10
453292.46100909
 20
6474338.53766566
  0
SEQEND
  0
POLYLINE
 66
1
  8
cliff2
  0
VERTEX
  8
cliff2
 10
453290.576886067
 20
6474337.73459071
  0
VERTEX
  8
cliff2
 10
453293.023113933
 20
6474339.36540929
  0
SEQEND
  0
POLYLINE
 66
1
  8
cliff2
  0
VERTEX
  8
cliff2
 10
453289.789688864
 20
6474338.13150256
  0
VERTEX
  8
cliff2
 10
453292.710311136
 20
6474338.46849744
  0
SEQEND
  0
POLYLINE
 66
1
  8
cliff2
  0
VERTEX
  8
cliff2
 10
453299.753711232
 20
6474351.98703841
  0
VERTEX
  8
cliff2
 10
453302.646288768
 20
6474352.51296159
  0
SEQEND
  0
POLYLINE
 66
1
  8
cliff2
  0
VERTEX
  8
cliff2
 10
453301.376886067
 20
6474352.23459071
  0
VERTEX
  8
cliff2
 10
453303.823113933
 20
6474353.86540929
  0
SEQEND
  0
POLYLINE
 66
1
  8
cliff2
  0
VERTEX
  8
cliff2
 10
453304.442596015
 20
6474352.93519203
  0
VERTEX
  8
cliff2
 10
453305.757403985
 20
6474355.56480797
  0
SEQEND
  0
POLYLINE
 66
1
  8
cliff2
  0
VERTEX
  8
cliff2
 10
453323.63
 20
6474344.05
  0
VERTEX
  8
cliff2
 10
453326.57
 20
6474344.05
  0
SEQEND
  0
POLYLINE
 66
1
  8
cliff2
  0
VERTEX
  8
cliff2
 10
453336.905177885
 20
6474343.67090415
  0
VERTEX
  8
cliff2
 10
453339.794822115
 20
6474343.12909585
  0
SEQEND
  0
POLYLINE
 66
1
  8
cliff2
  0
VERTEX
  8
cliff2
 10
453338.812630451
 20
6474343.69199224
  0
VERTEX
  8
cliff2
 10
453341.687369549
 20
6474344.30800776
  0
SEQEND
  0
POLYLINE
 66
1
  8
cliff2
  0
VERTEX
  8
cliff2
 10
453343.346914432
 20
6474343.33846424
  0
VERTEX
  8
cliff2
 10
453346.153085568
 20
6474342.46153576
  0
SEQEND
  0
POLYLINE
 66
1
  8
cliff2
  0
VERTEX
  8
cliff2
 10
453351.981663838
 20
6474343.11992077
  0
VERTEX
  8
cliff2
 10
453354.918336162
 20
6474342.98007923
  0
SEQEND
  0
POLYLINE
 66
1
  8
cliff2
  0
VERTEX
  8
cliff2
 10
453359.024
 20
6473941.518
  0
VERTEX
  8
cliff2
 10
453361.376
 20
6473943.282
  0
SEQEND
  0
POLYLINE
 66
1
  8
cliff2
  0
VERTEX
  8
cliff2
 10
453359.282031791
 20
6473942.47273852
  0
VERTEX
  8
cliff2
 10
453362.217968209
 20
6473942.62726148
  0
SEQEND
  0
POLYLINE
 66
1
  8
cliff2
  0
VERTEX
  8
cliff2
 10
453442.011157956
 20
6474399.0853876
  0
VERTEX
  8
cliff2
 10
453444.388842044
 20
6474400.8146124
  0
SEQEND
  0
ENDSEC
  0
EOF
